<?xml version="1.0" standalone="no"?>
<svg viewBox="0 0 200 200" xmlns="http://www.w3.org/2000/svg">
  <path fill="#FF0066" d="M40.3,-63.9C50.9,-55.9,57.3,-42.5,64.9,-28.8C72.5,-15,81.4,-1,82.9,14.2C84.3,29.5,78.2,46,67.6,59C57,72,41.9,81.5,25.7,85.2C9.6,88.8,-7.6,86.6,-22.3,80.3C-36.9,73.9,-49,63.5,-60.5,51.6C-71.9,39.8,-82.7,26.6,-82.4,13.3C-82,0,-70.5,-13.5,-61.1,-25.3C-51.7,-37.2,-44.3,-47.4,-34.5,-55.7C-24.7,-63.9,-12.3,-70.3,1.3,-72.3C14.9,-74.3,29.7,-71.8,40.3,-63.9Z" transform="translate(100 100)" />
</svg>
