<?xml version="1.0" encoding="utf-8"?>
<!-- Generator: Adobe Illustrator 25.0.1, SVG Export Plug-In . SVG Version: 6.00 Build 0)  -->
<svg version="1.1" id="Layer_1" xmlns="http://www.w3.org/2000/svg" xmlns:xlink="http://www.w3.org/1999/xlink" x="0px" y="0px"
	 viewBox="0 0 1001.5 743.9" style="enable-background:new 0 0 1001.5 743.9;" xml:space="preserve">
<path d="M1001.5,59.2c-111.7-83.5-276.1-80.1-379.1,19c-18.4,12.4-37.2,24.3-56.6,34.3c-38.8,20-80.2,31.9-125.2,24.8
	c-11.5-1.3-22.5-4-34.3-7c-3.7-1-7.3-1.9-10.9-3.1c-28.3-9.1-55.9-17.4-83.9-22.9c-27.2-6.6-54.6-7.5-82-5.9
	c-0.9,0.1-1.8,0.1-2.8,0.2c-29.3,2.2-57.8,11.8-83.2,27.2c-1.9,1.2-3.9,2.4-5.9,3.6c-4.5,2.7-8.8,5.6-13,8.7
	c-13.2,9.6-26.2,18.9-37.7,32c-6.4,7.3-12.9,16.2-19.2,26.6c-3.9,6.4-7.1,12.4-11,19c-11.6,21.3-20.2,42.3-28.4,64.1
	c-9.8,26.7-16.6,54.3-22.3,82.3C-25.4,516,71.5,662.3,204.8,717.7c12,5.5,24.4,9.8,37.1,13.3c31.7,8.4,65.3,10.8,99,8.7
	c11.2-0.7,22.5-1.9,33.7-3.5c77.5-8,144.5-45.1,218-74.3c35.4-14.9,72.7-7.1,105.7,10.2c54.9,29.9,105.1,68.6,168.2,71.6
	c12.7,0.1,24.7,0.6,37.5,0.1c35.8,0,71.2-13.9,97.5-37.2V59.2z"/>
</svg>
