<?xml version="1.0" encoding="utf-8"?>
<!-- Generator: Adobe Illustrator 25.0.1, SVG Export Plug-In . SVG Version: 6.00 Build 0)  -->
<svg version="1.1" id="Layer_1" xmlns="http://www.w3.org/2000/svg" xmlns:xlink="http://www.w3.org/1999/xlink" x="0px" y="0px"
	 viewBox="0 0 165.5 159.9" style="enable-background:new 0 0 165.5 159.9;" xml:space="preserve">
<path d="M122.7,9.1c10.6,8,17,21.4,24.6,35.1c7.6,13.8,16.5,27.8,18,43c1.4,15.3-4.7,31.8-15.3,44.8c-10.6,13-25.7,22.5-41.9,26.2
	c-16.1,3.6-33.3,1.4-48-4.9c-14.6-6.4-26.7-16.8-38.2-28.7C10.5,112.8-0.3,99.6,0,86.3C0.4,73,11.9,59.5,21.3,47.7
	c9.4-11.9,16.8-22.1,26.6-30.4C57.7,9.1,70.1,2.7,83.7,0.7S112.1,1.2,122.7,9.1z"/>
</svg>
