<?xml version="1.0" standalone="no"?>
<svg viewBox="0 0 200 200" xmlns="http://www.w3.org/2000/svg">
  <path fill="#FF0066" d="M37.6,-61.6C49.9,-50.6,61.8,-42.1,71.1,-30.1C80.3,-18,86.8,-2.3,83.7,11.3C80.6,24.9,67.9,36.4,56.1,46.9C44.3,57.3,33.3,66.8,21.1,69C8.9,71.3,-4.6,66.5,-19,63C-33.4,59.6,-48.7,57.5,-57.8,49C-67,40.4,-70,25.5,-72.3,10.3C-74.7,-4.9,-76.3,-20.2,-72.5,-35C-68.7,-49.8,-59.5,-64,-46.5,-74.7C-33.5,-85.4,-16.7,-92.6,-2,-89.4C12.6,-86.3,25.3,-72.6,37.6,-61.6Z" transform="translate(100 100)" />
</svg>
