<?xml version="1.0" encoding="utf-8"?>
<!-- Generator: Adobe Illustrator 25.0.1, SVG Export Plug-In . SVG Version: 6.00 Build 0)  -->
<svg version="1.1" id="Layer_1" xmlns="http://www.w3.org/2000/svg" xmlns:xlink="http://www.w3.org/1999/xlink" x="0px" y="0px"
	 viewBox="0 0 159.3 159.8" style="enable-background:new 0 0 159.3 159.8;" xml:space="preserve">
<path d="M112.4,28.6c12.3,11,24.2,19.5,33.5,31.5c9.2,12.1,15.7,27.8,12.6,41.4s-15.8,25.1-27.6,35.6c-11.8,10.4-22.8,19.9-35,22.1
	c-12.2,2.3-25.7-2.5-40.1-6c-14.4-3.4-29.7-5.5-38.8-14c-9.2-8.6-12.2-23.5-14.5-38.7C0.1,85.3-1.5,70,2.3,55.2s13-29,26-39.7
	S58.1-2.4,72.8,0.8C87.4,3.9,100.1,17.6,112.4,28.6z"/>
</svg>
