<?xml version="1.0" standalone="no"?>
<svg viewBox="0 0 200 200" xmlns="http://www.w3.org/2000/svg">
  <path fill="#FF0066" d="M48.8,-74.4C63.9,-66.3,77.3,-53.8,84.8,-38.4C92.3,-23,94,-4.6,90.7,12.6C87.5,29.7,79.3,45.7,67.8,58.5C56.3,71.2,41.4,80.8,25.5,84.1C9.7,87.5,-7.2,84.7,-24.1,80.5C-41.1,76.3,-58.1,70.7,-69.6,59.3C-81,47.9,-86.8,30.6,-86.6,14.1C-86.4,-2.4,-80.1,-18.1,-71.8,-31.3C-63.4,-44.6,-53,-55.4,-40.7,-64.7C-28.4,-74.1,-14.2,-81.9,1.3,-84C16.9,-86.1,33.7,-82.4,48.8,-74.4Z" transform="translate(100 100)" />
</svg>
