<?xml version="1.0" encoding="utf-8"?>
<!-- Generator: Adobe Illustrator 25.0.1, SVG Export Plug-In . SVG Version: 6.00 Build 0)  -->
<svg version="1.1" id="Layer_1" xmlns="http://www.w3.org/2000/svg" xmlns:xlink="http://www.w3.org/1999/xlink" x="0px" y="0px"
	 viewBox="0 0 178.9 170.2" style="enable-background:new 0 0 178.9 170.2;" xml:space="preserve">
<path d="M135.4,10.2c15.1,8.1,28.5,20.6,36,36s9.2,33.8,5.9,51c-3.2,17.1-11.4,33.1-22.9,45.9c-11.5,12.7-26.4,22.3-42.3,25.6
	c-15.8,3.4-32.7,0.6-49.6-3.6c-17-4.2-34-9.8-45.5-21.2C5.6,132.5-0.2,115.2,0,98.7c0.2-16.5,6.5-32.2,14.8-45.4
	C23.2,40,33.6,29.2,45.9,19.9c12.3-9.4,26.5-17.2,42-19.3C103.5-1.5,120.3,2.2,135.4,10.2z"/>
</svg>
