<?xml version="1.0" encoding="utf-8"?>
<!-- Generator: Adobe Illustrator 25.0.1, SVG Export Plug-In . SVG Version: 6.00 Build 0)  -->
<svg version="1.1" id="Layer_1" xmlns="http://www.w3.org/2000/svg" xmlns:xlink="http://www.w3.org/1999/xlink" x="0px" y="0px"
	 viewBox="0 0 859.4 518.2" style="enable-background:new 0 0 859.4 518.2;" xml:space="preserve">
<path d="M859.4,4.7c-13.6,0.4-27.1,0.7-40.7,0.7c-5,0-10.6,0.1-14.8-2.4c-4.2-2.6-8.1-3.3-12.5-3c-8,0.5-16,1.3-24.1,1.6
	c-16.3,0.6-32.7,0.8-49,1.6C701.3,4.3,684.2,5.8,667,7c-15,1-29.9,1.7-44.8,3.1c-16.4,1.5-32.7,3.6-49.1,5.3
	c-12.3,1.2-24.7,2.3-36.9,3.9c-14,1.8-27.9,4.4-41.7,6.5c-15.9,2.4-31.8,4.1-47.7,6.9c-24.8,4.3-49.4,9.6-74.2,13.8
	C351.9,50,332,58.2,310.9,58.9c-6.6,0.2-13.2,3.2-19.9,5c-11.5,3.3-22.8,6.6-34.1,9.9c-16.3,4.7-32.6,9.5-48.9,14.5
	c-7.9,2.4-15.9,4.7-23.7,7.4c-7.3,2.5-14.4,5.3-21.5,8.1c0.1,0.6,0.3,1.1,0.4,1.7c4.7-1,9.5-2.2,14.4-3.3c0.1,0.4,0.1,0.8,0.3,1.2
	c-6.2,2-12.3,3.9-18.7,5.9c-0.3-2-0.4-3.3-0.5-4.8c-4.8,1.8-9,3.4-14.4,5.4c2.9,1,4.6,1.5,6.2,2.1c-0.1,0.5-0.1,0.9-0.3,1.4
	c5.3-1.3,10.7-2.8,16-4.1c0.1,0.6,0.4,1.3,0.5,2c-24.8,6.8-49,15.4-69.4,33.3c3.1,1.6,7.4-5.4,10.9,1.5c-8.1,3.9-15.9,7.7-23.8,11.4
	c0.1,0.5,0.3,1,0.4,1.5c2.4-0.2,5-0.3,7.5-0.4c0.1,0.6,0.4,1.1,0.5,1.7c-11.7,4-19.9,12.7-26.1,24.4c3.1,4.1,2.5,6.4-2.5,8.1
	c-7.5,2.7-12.9,13.6-11.2,20.4c-3.8,4.6-9,8.4-10.8,13.7c-3.3,9.9-10.2,15.9-15.5,23c-0.5,3.2,0,7.1-1.5,8.8
	c-5.1,6-11.1,11.2-16.7,16.8c-1.9,1.8-3.6,4.1-4.7,5.5c3.7,3.9,6.6,6.9,9.3,9.6c-3.7,4.6-7.8,8.5-10.4,13.2
	c-1.9,3.3-3.6,8.5-2.4,11.6c1.1,3.2,5.9,7.1,8.7,6.7c5.5-0.7,11.1-3.3,15.8-6.7c3.9-2.9,7.3-3.6,11.5-2.2c0.9,0.3,2,0.7,2.8,0.4
	c4.8-2.3,9.5-5.2,14.5-7.2c5.7-2.3,11.6-4,17.4-5.5c4.2-1.1,7.9-0.5,7.9,6.1c0,1.2,1,2.6,1.7,3.9c0.6-0.5,1.4-1,2-1.5
	c-0.3-1.7-0.5-3.5-0.8-5.3c-0.8-6.8,0.3-8.2,6.1-9.3c9.7-2,19.3-4.5,29.1-6c7.8-1.1,14.3-6.7,22.3-6.4c0.8,0.1,1.4-1.4,2.3-1.8
	c2.9-1.3,6-2.8,9-3.7c3.2-0.9,6.4-1.3,9.5-2.1c3.3-0.8,6.6-1.7,9.9-2.7c1.1-0.3,2.3-0.5,3.4-0.8c6.4-1.7,12.7-3.6,19.1-5.2
	c0.6-0.1,1.8,0,2.2,0.5c2.5,3.9,5.3,1.4,8,0.7c1.1-0.2,2.3-0.1,4.6-0.3c-3.3,2.7-5.5,4.4-7.6,6.3c-2.3,2.1-4.5,4.1-6.6,6.2
	c-1.8,1.6-4.8,3.4-5,5.2c-0.6,9.2-5.7,11.8-12.6,12.4c-0.8,0-1.3,0.8-2,1.3c4.5,3.8,5,9.2,1.1,12.8c-3.2,3.1-6.7,5.7-10.6,7.7
	c-3.4,1.7-5.5,3-3.2,7.7c0.6,1.3,0.3,4.2-0.6,5.5c-5.1,7.2-9.7,15.3-19.3,15.3c-1.1,0-2.7-0.1-3.4,0.6c-2.5,2.3-6.2,4.3-7.1,7.4
	c-1.4,4.6,0.3,9.2,5.6,10.4c1,0.2,2,1.6,2.9,2.5c-0.4,0.8-0.4,1.4-0.6,1.6c-3.3,2.9-9.9,3.3-6,11.2c0.1,0.5-1.5,2.3-2.3,3.3
	c1.3,1.7,3.8,3.9,3.6,5.2c-1,4.5,1.8,5.3,4.1,5.4c8.7,0.5,17.6,1.5,26.1,0.3c5.7-0.9,10.8-0.8,15.9,0.7c0.8,3.2,1.4,6,1.9,8.7
	c0.9,4.6-2,12.9-4.6,12.3c-4.8-1.1-5.2,2.5-6.1,5.9c-3.3,12.3-8.9,23.1-17.6,31.8c-4.7,4.6-6,12.2-2.9,18.3
	c3.7,7.1,7.3,14.1,14.6,18c5.5,2.9,10.1,7.7,8.9,16c-0.3,1.7,0.6,3.7,1.1,6c1.4-1.2,2.3-2.1,2.2-2c-0.3-3.7-1.1-6.8-0.3-8.9
	c1.4-3.5,4.6-2.8,7.3-1.3c3.2,1.6,6.1,4.3,9.4,5.1c10.2,2.6,20.5,5,30.8,6.7c10.1,1.6,20.2,2.2,30.4,2.9c5,0.4,10.1-0.1,15.1,0.3
	c2.9,0.2,5.9,2.2,8.8,2.2c6.1,0,12.2-1.8,18.2-1.1c8.1,0.9,16.2-5.1,24.3-0.3c0.6,0.3,2.2-0.2,2.7-0.9c6.2-7.5,14-0.3,20.7-2.6
	c1.8-0.6,3.9,0,6,0.2c2.7,0.2,5.7-0.3,7.8,1.1c4.7,3.3,8.1,1.4,11.8-1.5c0.8-0.6,1.4-2,2.2-2c7.4-0.4,14.8,0.3,22.1-1.5
	c5.5-1.3,12.1,1.4,16.9-1c5-2.6,9.5-2.3,14.4-2.7c4.7-0.4,9.5-1,14.3-1.3c6.2-0.5,12.3-0.7,18.6-1.2c5.3-0.4,10.7-1.2,16-1.6
	c9.2-0.7,18.5-1.2,27.6-1.7c6-0.3,11.8-0.9,17.7-0.6c5.9,0.3,10.7-1.6,13.6-7.3c0.4,2.4,0.8,4.1,1.1,6c3.1,0.2,6.2,0.9,9.3,0.5
	c3.1-0.4,6-2,8-2.7c30.7-0.6,60.5-3.7,90.5-5.5c0.3-2.3,0.5-4.1,0.6-5.9c4.6-1.4,8.1-1.1,10.3,4.6c0.6-2.1,1.1-4.2,1.5-5.3
	c8-0.6,15.5-1.2,22.9-2c2.8-0.2,4.6,0.9,7,2.8c2.8,2.2,7.8,0.7,11.7,0.8c0.3,0,0.5-0.7,0.5-1.1c0.3-3.7,1.4-5.4,5.2-4.7
	c2.3,0.4,5-1.6,7.4-1.3c3.1,0.4,5.7,2.6,8.8,3.2c5.3,0.9,10.9,3.2,14.9-3.7c0.5-0.7,2.2-0.6,3.2-0.9c6.5-2.1,12.5,6.2,19.2,1.2
	c0-0.1,0.5,0.6,0.8,0.8c4.6,3.7,9.2,2.5,13.9,0.1c1.5-0.7,3.7-0.2,5.6-0.3c3.4-0.2,6.9,0,10.1-0.9c0.6-0.2,0.1-5,0.1-8.8
	c2.5,0.4,5.6,0.1,8,1.3c5.3,2.7,5.9,2.6,6.4-4.5c0.1-1.3,1.1-2.6,1.7-3.8c1,0.6,2.3,0.9,2.9,1.8c1.9,2.7,3.4,5.6,5.5,9.1
	c-4.7,0.8-8.8,1.4-12.7,2.2c0.1,0.8,0.3,1.6,0.4,2.5c7.3-3.2,16,1.3,22.4-7.5c3.1-4.1,7.4-3.6,10.8-0.6c-2.5,1.3-5.1,2.6-7.5,3.8
	c0.3,0.5,0.4,1,0.8,1.8c2.7,0.2,5.3,0.7,8,0.5c2.3-0.1,5.7-0.3,6.6-2c4.2-7.4,10.3-6.5,16.7-7c1-0.1,2.1-0.1,3.1-0.1V4.7z"/>
</svg>
