<?xml version="1.0" encoding="utf-8"?>
<!-- Generator: Adobe Illustrator 25.0.1, SVG Export Plug-In . SVG Version: 6.00 Build 0)  -->
<svg version="1.1" id="Layer_1" xmlns="http://www.w3.org/2000/svg" xmlns:xlink="http://www.w3.org/1999/xlink" x="0px" y="0px"
	 viewBox="0 0 368.5 230.3" style="enable-background:new 0 0 368.5 230.3;" xml:space="preserve">
<path d="M368.5,0c-10.7,0.4-22.7,1.6-35.8,3.9c-97.4,16.9-119.1,9.3-192.1,4.3C95.8,5,0.6,11.6,0,55.8c0,2-0.1,4.2,0.4,6.1
	C2,68,8.4,74.7,29,77.3c9.1,1.1,10.1,6.7,6.5,9.1C28.4,91.3-0.4,86.7,2.2,107c0.7,5.4,7.3,9.5,12.9,9.6c1.6,0,2.1,0.8,1.8,1.7
	c-1,4.9-17.3,5.5-13.3,18.4c1.5,4.9,8.4,5.7,10.7,8.5c6.9,8.5-7,9.5-8.6,19.6c-2.3,13.9,16.4,9.1,14.4,23.1
	c-3.9,29.3,168,42.2,199.7,42.4c63.5,0.5,112-2.6,148.6-7.8V0z"/>
</svg>
