<?xml version="1.0" encoding="UTF-8" standalone="no"?>
<!DOCTYPE svg PUBLIC "-//W3C//DTD SVG 20010904//EN"
"http://www.w3.org/TR/2001/REC-SVG-20010904/DTD/svg10.dtd">
<!-- Created with Sodipodi ("http://www.sodipodi.com/") -->
<svg
   width="541"
   height="747"
   xmlns="http://www.w3.org/2000/svg"
   xmlns:sodipodi="http://sodipodi.sourceforge.net/DTD/sodipodi-0.dtd"
   xmlns:xlink="http://www.w3.org/1999/xlink"
   id="svg410"
   sodipodi:version="0.29win"
   sodipodi:docname="C:\WINDOWS\Desktop\programs\cr2v\gocc.svg">
  <defs
     id="defs416" />
  <sodipodi:namedview
     id="base" />
  <path
     style="fill:#0"
     d="M541 462 L541 495 C538.8 501.1 540.7 509.6 538 516 C525.6 624 433.2 722.1 326 741 C315.1 745.3 302.2 745.2 291 747 L250 747 C238.8 745.2 225.9 745.3 215 741 C99.4 721.1 5.254 609.7 0 494 L0 460 C3.663 437.4 8.322 413.9 17.25 392.3 C26.29 374.9 35.6 357.6 46.25 341.3 L80.25 295.3 C156.3 204.9 222.9 107.8 273 2 L286.8 31.25 C328.2 132.1 393.5 221.4 464.8 305.3 C472.5 316.6 480.8 327.6 489.8 338.3 C503.2 358.9 516.3 379.7 526.8 402.3 C534 421.4 538.5 442 541 462 z"
     id="path412" />
</svg>
