<?xml version="1.0" encoding="utf-8"?>
<!-- Generator: Adobe Illustrator 25.0.1, SVG Export Plug-In . SVG Version: 6.00 Build 0)  -->
<svg version="1.1" id="Layer_1" xmlns="http://www.w3.org/2000/svg" xmlns:xlink="http://www.w3.org/1999/xlink" x="0px" y="0px"
	 viewBox="0 0 335.8 241.7" style="enable-background:new 0 0 335.8 241.7;" xml:space="preserve">
<path d="M52.5,0c0,0-46.4,20.9-51.6,68.6c0,0-10.6,30.9,40.1,53.3c0,0,22.3,11,24,35.2c0,0,1.6,12.9-1.9,30.5
	c-3.4,17.7-0.9,30.6-0.9,30.6s5.5,23.2,34,17.7c0,0,65.4-28.6,96.9-20.6c0,0,24,3,53.3,18c0,0,26.2,17.6,58.7,1.8
	c0.3-0.1,0.5-0.3,0.8-0.4c0,0,13-5.1,29.9-17.3V0H52.5z"/>
</svg>
