<?xml version="1.0" encoding="utf-8"?>
<!-- Generator: Adobe Illustrator 25.0.1, SVG Export Plug-In . SVG Version: 6.00 Build 0)  -->
<svg version="1.1" id="Layer_1" xmlns="http://www.w3.org/2000/svg" xmlns:xlink="http://www.w3.org/1999/xlink" x="0px" y="0px"
	 viewBox="0 0 983.1 739.2" style="enable-background:new 0 0 983.1 739.2;" xml:space="preserve">
<path d="M983,268.1c0-87.8,0-175.7,0.1-263.5c0-0.6,0-1.2-0.1-1.6V0l-3.5,0c-0.3,0-0.6,0-1,0C659,0.1,339.5,0.1,20,0.1l0,0
	c-0.4,1.6-0.8,3.3-1.2,5c0,0,0,0,0,0.1C13,18.7,9.6,32.9,7,47.3C6.1,52.5,4.9,57.7,4.9,63c0,0,0,0,0,0c-3.3,3-4.8,69-4.8,70.4
	c-0.1,4.7,1.2,9.2,2,13.7C6,173.3,14.6,198,25.5,221.9c8,17.4,17.3,34.2,27.5,50.5c8,12.8,16.4,25.4,25.3,37.5
	c20.3,27.5,42.8,53.2,65.1,79c16.2,18.7,32.7,37.1,49.3,55.4c14,15.4,28.1,30.6,42.5,45.5c13.6,14.2,27.6,27.9,41.2,42.1
	c9.9,10.3,20.5,20,30.8,29.9c7,6.7,13.8,13.5,20.8,20.1c14.7,13.9,29.4,27.9,44.6,41.3c12.6,11.2,24.9,22.9,37.9,33.7
	c23.1,19.3,48.5,35.4,75.3,48.9c17.1,8.6,35,15.8,53.4,21.4c20.3,6.2,41,10.7,62.3,11.8c1.5,0.1,62.8,0,64.2,0
	c14.6-0.3,28.9-2.7,43.3-5c22.3-3.5,44.1-8.9,65.8-14.8c16.2-4.4,32-10,47.7-15.5c17.3-6.1,34.2-13.2,51.2-20.3
	c19.7-8.4,38.9-17.8,58-27.4c14.5-7.3,28.6-15.3,42.4-23.8c2.8-1.7,5.5-3,8.8-3.2v-18.6v-8.4v0c0,0,0,0,0,0v-29c0,0,0,0,0,0V268.1z
	 M4.7,65c-1.8,29.6,2.6,58.2,11.1,86.1l0,0C7.3,123.2,2.9,94.7,4.7,65z"/>
</svg>
