<?xml version="1.0" encoding="utf-8"?>
<!-- Generator: Adobe Illustrator 25.0.1, SVG Export Plug-In . SVG Version: 6.00 Build 0)  -->
<svg version="1.1" id="Layer_1" xmlns="http://www.w3.org/2000/svg" xmlns:xlink="http://www.w3.org/1999/xlink" x="0px" y="0px"
	 viewBox="0 0 876 617" style="enable-background:new 0 0 876 617;" xml:space="preserve">
<path d="M875.76,119.73V0H397.03H292.58L0,292.58V413l0.03,0.03v59.76c17.03-0.5,33.91-7.28,46.84-20.36
	c1.11-1.12,2.15-2.29,3.17-3.47l4.8-4.8c1.05-0.94,2.09-1.91,3.09-2.92c0.79-0.79,1.53-1.61,2.26-2.43l7.96-7.96
	c0.28-0.27,0.57-0.52,0.84-0.8c0.19-0.19,0.35-0.39,0.53-0.57l49.35-49.35c1.62,2.04,3.37,4.02,5.27,5.9
	c11.48,11.34,26.06,17.64,40.98,18.93L0,570.08V617h110l59.01-59.01c4.3,10.67,10.79,20.66,19.49,29.26
	c34.18,33.77,89.27,33.45,123.05-0.72c1.98-2,3.82-4.08,5.55-6.22l2.45-2.45c2.06-1.72,4.07-3.54,5.99-5.5
	c1.69-1.71,3.27-3.47,4.78-5.27l4.37-4.37c1.66-1.43,3.28-2.93,4.84-4.52c1.33-1.34,2.59-2.72,3.8-4.12l6.76-6.76
	c1.17-1.05,2.31-2.14,3.43-3.28c0.84-0.85,1.65-1.73,2.45-2.6l138.6-138.6c3.28,7.46,7.96,14.45,14.11,20.52
	c6.42,6.34,13.82,11.08,21.69,14.27L351,617h159.42L876,251.42V119.97L875.76,119.73z"/>
</svg>
