<?xml version="1.0" encoding="utf-8"?>
<!-- Generator: Adobe Illustrator 25.0.1, SVG Export Plug-In . SVG Version: 6.00 Build 0)  -->
<svg version="1.1" id="Layer_1" xmlns="http://www.w3.org/2000/svg" xmlns:xlink="http://www.w3.org/1999/xlink" x="0px" y="0px"
	 viewBox="0 0 1681 1136" style="enable-background:new 0 0 1681 1136;" xml:space="preserve">
<g>
	<path d="M882.9,54c0.9,0,1.8,0,2.7,0C885.3,53.9,883.8,54,882.9,54z"/>
	<path d="M512,131.6c0,0.4,0,0.9,0,1.5C512,132.6,512.2,131.8,512,131.6z"/>
	<path d="M512,133.2c0,0.3,0,0.6,0,0.9C512,133.8,512,133.4,512,133.2C512,133.2,512,133.2,512,133.2z"/>
	<path d="M1681,138.3c-1.7-0.3-4.2,0.1-5.1-0.5c-3.4-2.3-7.3-3.5-12.4-2.9c-5.7,0.8-7.3-3.3-12-3.4c-2.1,0-3.8,0-5.2-0.8
		c-3.4-2-6.8-4-10.2-6c-1.9,0-3.8,0-5.7,0c-7.1,0.1-7-0.1-17.8-3.3c-2.2-0.7-5.7,0.3-7.6-1.5c-2.3-2.2-6.7-1.5-9.7-2.5
		c-3.1-1.1-5-3.3-9.5-2.9c-2.8,0.2-5.8,0.2-8.6,0c-7.2-0.4-15.5,1.8-20.9-2.9c-4.7-0.1-9.4-0.5-14.1-0.3c-4.6,0.2-6.5-1.8-9.7-3.4
		c-11,0-22.4,0.1-33.9-0.1c-1.2,0-3.5-1.6-3.3-2.2c2-5.2-3-8.3-9.4-11.2c-7.5,0-15.1,0-23.3,0c-1.9-3-6.5-3.4-11.3-3.6
		c-3-2.4-7-3.5-12.2-3.1c-1.7,0.1-4.5,0-5.2-0.6c-3.9-3.5-9.9-2.8-15.4-2.7c-1.2,0-2.4,1.2-3.5,1.8c0.7,0.4,1.3,1.1,2,1.1
		c3.7,0.3,7.7,0.2,9.8,2.4c2.3,2.4,7.6,0,9.9,2.3c2.2,2.2,5.9,2.5,9.8,2.4c2.9,2.4,6.9,3.5,11.8,3.6c0.7,0,1.5,0.7,2,1.1
		c1,0.9-0.2,4.2-1.5,4.6c-1.4,0.4-2.7,0.1-4.1-1.1c-1.8-1.6-4.6-1.9-7.4-1.6c-5.3,0.5-9.2-0.7-12.3-3.4c-4.2,2.3-8,4.6-12.3,6.6
		c-1.1,0.5-4.7,0.4-5.3-0.1c-3.9-3.3-9.3-3.4-15.1-3.2c-1.9,0.1-3.3-0.6-4.7-1.5c-1.2-0.8-2.9-1.8-4.4-1.8
		c-13.3,0.1-26.6-0.7-39.8,0.5c-0.7,0.1-1.8,0.8-1.8,1.1c0.1,0.4,1.1,0.9,1.9,1.2c4.3,1.3,9.3-0.5,13.5,1.2c0.6,0.2,1.3,0.9,1.2,1.1
		c-0.3,0.5-1.2,1.1-1.9,1.2c-6.6,0.2-13.3,0.4-19.9,0.2c-4.7-0.1-6.3,2.1-9.3,3.4c-3.7,0-7.5,0-12.1,0c-1.6,1-3.3,2.4-5.4,3.5
		c-2,1-2.7,1.6-1.2,2.4c0.7,0.3,1.5,0.8,2.2,0.8c11.4,0.2,22.8,0.2,34.2,0.4c0.7,0,1.4,0.7,2.2,1.2c-1.9,1.2-3.7,2.3-5.6,3.5
		c-2.6,1.6-2.6,1.6-6.1-0.2c-2.3-1.2-2.3-1.2-6.1,0.6c-3.3,1.7-6.9,1.8-9.8,0.2c-1.4-0.8-2.8-1.5-4.2-2.3c-21,0-42,0-63,0
		c-4.4-4-11-3.7-17.6-3c-0.8,0.1-1.5,0.7-2,1.2c-3.4,2.8-8.5,1.7-13,1.8c-2.9,0.1-4.3-1.1-4.6-3.3c-0.3-2.2-1.9-3.4-4.5-3.4
		c-8.6,0-17.2-0.1-25.8,0.1c-1.5,0-3.2,1-4.4,1.8c-1.4,0.9-2.8,1.5-4.7,1.5c-20.1,0-40.2,0-60.3-0.1c-1.4,0-2.9-1.3-4.3-2
		c-0.7-0.4-1.3-0.9-2.1-1.2c-2.7-1-7.9,0.4-8.8,2.3c-0.5,1-0.1,2.4-1.1,3.1c-3.5,2.5-4.2-0.7-5.9-1.3c-1.8-0.7-2.6-0.8-4.2,0.6
		c-3.3,2.8-11,1.4-13.9,4.8c-0.3,0.3-1.6,0.6-2.4,0.5c-1.8-0.1-4.1-0.1-5.2-0.7c-2.8-1.5-5.3-2.8-9.7-2.8c-3,0-3.4-1.6-1.1-3.1
		c3-1.9,3-2,0.1-3.6c-1.9-1.1-3.9-2.1-5.9-3.2c-0.9,0.5-1.5,0.9-2.2,1.3c-5.3,2.7-6.1,2.7-11.8,0.3c-1.5-0.6-3-1.6-4.5-1.6
		c-4.8-0.2-9.6,0.1-14.3-0.2c-1.4-0.1-2.6-1.1-3.4-1.5c4.6-2.8,9-5.8,13.9-8.4c1-0.5,4-0.4,5.5,0.1c2.3,0.7,4,2,6,3.1
		c0.9-0.5,1.6-0.9,2.2-1.3c2.7-1.6,5.1-3.4,8.2-4.7c2.1-0.8,5.6-0.5,7.5-1.4c3-1.4,5.4-3.1,9.7-2.6c3.5-1.9,6.9-3.7,10.4-5.6
		c0.7-0.4,1.4-0.7,2.2-1.2c3.7,0,7.5,0.1,11.3-0.1c0.7,0,1.7-0.7,2-1.2c0.4-0.8-0.6-1.9-2.7-2c-5.7-0.2-11.4-0.1-16.6-0.1
		c-3.8-2.2-7.1-4.3-10.7-6.1c-1.2-0.6-3.5-0.6-5.3-0.6c-2.5,0.1-3.7,1-4.1,3.6c-0.2,1.2-0.4,2.3-2.4,2.7c-1.4,0.3-2.8-0.6-3.4-1.8
		c-0.3-0.5,0.1-1.1-0.1-1.7c-1.2-3.1-6.3-4-10.4-1.8c-1.4,0.7-2.6,1.7-3.6,2.3c-8.2,0-15.8,0-23.4,0c-3.4,2-6.7,4.1-10.3,5.9
		c-1.2,0.6-3.4,0.8-5.1,0.7c-5-0.2-9.3,0.3-12.4,2.9c-0.4,0.3-1.6,0.5-2.4,0.5c-0.9,0.1-1.9,0-2.9,0c-2.7,0.1-6.4-0.7-8,0.7
		c-3,2.7-9,1.8-11.8,3.6c-3.8,2.5-8,2.7-12.8,2.4c-2.2-0.1-3.8,0-5,1.1c-2.4,2.1-5.8,2.3-9.8,2.6c-2.3,0.2-4.1,2.9-6.3,3
		c-5.4,0.3-11.6,1.2-15.4-2.5c-3.5-0.8-3.9,1.6-6.1,2c-6.4,1.2-13.1,0.5-19.7,0.5c-3.1,0-5.3,0.6-7.4,1.9c-2.6,1.6-5.4,3.2-8.1,4.8
		c-1.9,0.1-3.8,0.2-5.6,0.1c-4-0.3-7.1,0.3-10,2.2c-2.9,1.9-12,1.6-15.5,0c-1.3-0.6-2.7-1.3-4.1-1.9c-2.7,1.6-5.6,3.1-8.1,4.8
		c-2.1,1.4-4.4,1.8-7.4,1.7c-2.7,0-6.2-0.7-8,0.7c-3.4,2.5-7.6,2.9-12.6,2.7c-3.8-0.1-7.7,0.1-11.5-0.1c-2.1-0.1-4.1-0.1-5.1,0.9
		c-3.1,2.8-7.8,2.5-12.6,2.6c-3.5,0.1-5.3-1.1-7-2.3c-1.7-1.3-3-1.5-4.1,0.1c-3.1,4.8-4.4,6.2-8.2,8.1c-1.8,0.9-5.3,1.1-7.8,0.3
		c-2-0.6-2.4-1.6-2.2-2.8c0.3-1.7,0.1-3.4,0.1-5.4c2.5-1.4,5.2-2.9,8-4.4c7.8,0.3,11.2-3.4,15.9-6c0.7-0.4,1.5-1.2,2-1.1
		c5.7,0.9,8.4-1.9,12-3.4c6.5,1.3,8.6-4,14.9-3.5c1.4,0.1,3.3-0.8,4.5-1.6c2.1-1.3,4.5-1.7,7.4-1.8c1.6-0.1,3.2-1,4.4-1.8
		c1.4-0.9,2.8-1.5,4.7-1.5c1.9,0,3.9-0.1,5.7,0c2.1,0.2,4.1,0.1,5.1-0.9c3.9-3.6,10-2.3,15.8-2.5c5.8-3.4,11.8-6.9,17.4-10.1
		c5.8,0,10.5,0,15.3,0c2.9,0,4.3-1,4.7-3.3c0.4-2.3,1.9-3.5,4.4-3.5c6.7,0,13.4-0.2,20.1,0.1c5.2,0.2,9.2-0.6,12.3-3.1
		c4.9-0.1,9-1.1,11.8-3.7c2.1,1.2,3.9,2.4,6.2,3.3c2.7,1.1,8.1-0.7,8.5-2.7c0.5-2.6-0.8-3.5-6.3-4c-0.9-0.1-1.9,0-2.7-0.3
		c-0.8-0.2-1.6-0.7-2-1.2c-0.2-0.3,0.5-1,1-1.1c2.5-0.5,5.6-0.5,7.7-1.3c3.1-1.3,5.7-3,8.2-4.7c2.1-1.5,4.7-1.6,7.6-1.5
		c1,0,1.9,0,2.9,0s2.1,0.2,2.8,0c4-1.1,6.3-4.2,12-3.4c0.5,0.1,1.6-0.5,2.1-1c2.4-2,5.7-2.7,9.9-2.4c0.6,0,1.6-0.7,2-1.1
		c0.6-0.8-0.4-1.6-2.5-2.1c-0.8-0.2-1.9-0.1-2.9,0c-4.8,0.2-8.9-0.1-12.7-2.5c-3.1-1.9-12.2-1.1-15.4,0.7c-2.7,1.6-5.4,3.2-8.8,5.1
		c-6.9,0-14.5,0.2-22.1-0.1c-5.4-0.2-9,1-12.1,3.3c-5.3-0.3-8.8,1.3-11.7,3.6c-5.9,0-11.7,0-20.4,0c0,0,0,0,0.1,0
		c0.9,1.2-0.1,2-1.8,2.8c-2,1-4.7,2-3.9,4c0.5,1.2-0.1,2.3-2.1,2.8c-2.5,0.5-5.1,0.8-7.6,1.2c-3.6,3.6-9.6,2.7-15,2.6
		c-1.2,0-2.4-1.2-3.6-1.8c0.7-0.4,1.2-1,2-1.1c3.5-0.4,7-0.4,9.7-2.3c4.2-2.9,9.1-5.6,17.9-8.2c3.6-2.1,6.9-2.8,8.6-4.1
		c0.5-0.4,1.5-0.9,1.3-1.2c-1-1.1-2.6-1.5-4.6-1.5c-5.9-0.2-11.4-0.1-14.9,3.3c-5.5-0.6-8.6,1.5-11.9,3.6c-1.9,1.2-4.1,2.3-6.2,3.4
		c-3.8,0-7.6,0-11.1,0c-5,2.9-9.9,5.6-14.4,8.5c-2.2,1.4-4.9,1.3-7.6,1.6c-1.4,0.2-3.3,1.3-3.5,2.1c-0.5,1.6-0.1,3.3-2.8,4.4
		c-5.3,2.1-7.6,6.2-15.2,7c-7.9,0.9-11,5.8-16.9,8.5c-3,1.4-5.4,3.2-8.2,4.7c-0.5,0.3-1.8,0.2-2.7,0.2c-5.9-0.3-8.2,4.8-14.8,3.4
		c-1.4,0.8-2.7,1.6-4.1,2.4c-0.6,0.3-1.3,0.5-2.1,0.7c-2.9-2.5-6.8-3.3-12-3.3c-4.4,0.1-6.7,1.5-9.6,2.9c-2.2,1.1-5.1,0.9-7.7,0
		c-5.6-2-5.6-2.1-10.4,0.6c-5.4,0-11.1,0-16.8,0c-1.9,0-4.1-2.8-3.3-4.1c1.6-2.8,5.8-4.2,9.2-6c5.8,0.8,8.4-1.9,11.7-3.8
		c10.9-6.3,21.6-12.7,32.6-19c1.1-0.6,3.4-0.6,5.1-0.8c5.3-0.8,6.6-3.7,2.9-6.1c-1.2-0.8-2.5-1.6-3.7-2.4c4.7-2.8,9.4-5.6,14.3-8.3
		c0.5-0.3,1.9,0,2.8,0c0-1.7-0.5-3.4,0.1-5c1.2-3.3-2.8-4.9-5.6-6.9c2.8-1.6,5.2-3.5,8.3-4.7c4.4-1.8,1.8-5.2,5.9-7.1
		c2.8-1.3,2.5-1.9-0.5-3.4c-2-1.1-2.8-1.8-0.7-2.4c5.4-1.4,2.6-5.1,6-7c2.8-1.6,5.4-3.2,8.1-4.7c3.4-2,6.8-3.9,10.2-5.9
		c1.9,0,3.8,0.1,5.7-0.1c0.8-0.1,1.6-0.7,2-1.1c0.6-0.8-0.4-1.6-2.5-2.1c-0.8-0.2-1.9,0-2.8,0c-4.8-0.2-9.4-0.2-12.6,2.6
		c-1,0.9-3,1-5.1,0.8c-4.9-0.4-9,0.2-12.5,2.7c-3.6,2.6-8,4.8-12.1,7.2c-3.3,1.9-6,4.5-11.8,3.6c-9.6,3.2-9.6,3.3-14.8,3.3
		c-2.1,0-3.7,0.2-4.8,1.4c-3.1,3.1-10.4,1.6-14.1,4.7c-2.2,1.8-7.1,0.5-10.7,0.8c-0.9,0.1-1.8,0.2-2.5,0.5c-0.8,0.3-1.9,0.8-1.9,1.2
		c0,0.4,1.1,1.1,1.8,1.1c3.7,0.3,7.4,0.2,11.1,0.6c1.5,0.2,3.4,1,4,1.9c0.6,0.9,0.8,2.6-0.2,3.2c-6.4,4-13.1,7.8-19.8,11.8
		c-3.7-3.4-3.8-4.2-1.2-6c0.6-0.4,1.2-0.9,2-1.2c1.9-0.7,2.2-1.6,2.2-2.9c0-1.9-1.5-3.3-4.5-3.5c-3.2-0.2-6.6,0.5-7.1,1.8
		c-0.6,1.5,0.4,3.1-2.2,4.6c-6.2,3.5-11.9,7.2-17.1,10.4c-8.6,0.2-9.1,0.2-9.5,2.9c-0.3,2.7-2.1,4-6.7,3.8c-1.9-0.1-3.3,0.6-4.7,1.5
		c-1.9,1.3-4.1,2.3-6,3.4c0,1.4,0,2.5,0,3.6c0.1,4.6-0.4,5.1-7.5,4.9c-7-0.2-10.6,0.9-10.3,5.4c0,0.8-2.5,1.6-3.9,2.4
		c-12.2,7.1-24.1,14.4-36.6,21.3c-3.7,2-4.6,4.5-6.1,7c-1.2,2-5.8,0.4-7.4,1.3c-3.6,1.9-6.8,3.4-12,3.6c-2.1,0.1-3.4,2.9-6,2.4
		c-3.4-0.6-1-3.2-2.4-4.3c-3.2-2.6-7.4-4.7-11.3-7.1c4.7-1.8,6.6-4.2,5.7-7.2c-0.1-0.5,0.3-1.2-0.1-1.7c-0.7-0.9-1.5-2.2-2.9-2.6
		c-1.5-0.5-4.3-0.6-5.5,0c-8.1,3.5-12.5,9.8-24.1,10.6c-4.7,2.8-9,5.9-14.3,8.2c-5.1,2.2-3.7,6-7.9,8.3c-4.9,2.6-9.5,5.5-14.2,8.3
		c-0.5,0.3-0.1,1.1-0.1,1.6c0,1.1,0,2.2,0,3.4c0.9,0,2.3,0.2,2.8,0c6.1-3.4,12.6-6.7,17.9-10.6c4.3-3.1,9.4-2.9,15-3
		c1.5,0,4.4-1.2,4.3-1.5c-1.3-4.2,4.7-5.7,8.2-8c1.3-0.9,6.2-0.7,7.6,0.2c4.5,2.8,8.9,5.5,13.2,8.4c0.5,0.3,0.2,1.1,0,1.6
		c-1,2.4-7.4,6-11.4,6.1c-2.1,0-4,0-4.8,1.2c-0.6,1-0.6,2.1-1,3.1c-1,2.1-1.9,2.6-5.8,2.5c-1.9,0-3.8,0-5.6,2.6
		c-3.3,4.5-6.6,6.4-10.1,8.4c-2.8,1.6-0.2,4.3-3.9,5.8c-3.1,1.3-5.5,3.1-8.2,4.7c-0.1,5-7.3,7.3-12,10.5c-0.5,0.3-0.3,1-0.3,1.6
		c0,0.6,0.4,1.3-0.1,1.6c-2.4,1.7-5.1,3.3-7.7,4.8c-1.5,0.9-5.5,0.7-7.7-0.1c-1.4-0.5-2.7-3.8-1.4-4.5c3.6-1.9,6.6-3.9,5.5-7.1
		c-0.9-2.5,1.9-3.9,4.4-5.7c1.5-1.1,1.4-3,2.2-4.4c0.3-0.5,1.4-1.2,1.9-1.1c7.2,1,9.5-2.9,14.3-4.8c-1.8-1.2-3.5-2.4-5.4-3.8
		c2.4-1.4,5-3,7.6-4.4c0.3-0.2,1.5-0.1,1.9,0.1c2.5,1.4,4.5,3.6,8.2,0.7c1.7-1.3,4.2-2.3,5.9-3.6c1.4-1,2.8-1.6,4.9-1.1
		c0,0,0,0,0.1,0c0-2.5,0.1-3.8-0.1-5c-0.1-1.2-4.9-2.2-6.9-1.9c-3.9,0.6-5.6,2.6-8.4,4c-2.1,1-3.5,3-6.3,2.7
		c-5.6-0.5-7.2,2.9-11.6,3.5c-3.4,0.5-6.4-0.8-7.1-3.4c-1.9,0-3.8,0-5.7,0c-3.5,0-6,1-5.7,2.5c0.8,4.2-1.5,7.3-7,10
		c-5.7,2.9-10.8,6.2-16.1,9.4c-0.5,0.3-0.2,1.1,0,1.6c0.6,2.1-1.5,3-4.4,3.4c-3.8,0.5-7.7-0.9-7.2-3.4c0.5-2.2,0.1-4.4,0.1-6.6
		c-2.2-0.4-3.9,0-4.9,1.2c-1.5,1.9-0.3,4.4-4,5.7c-4.3,1.6-1,5.5-6,6.9c-0.8,0.2-1.9,0.7-2,1.2c-0.3,2.8-0.9,5.6-0.2,8.3
		c0.8,3.3-6.9,3.8-5.9,7c0.2,0.5,0.4,1.3,0,1.6c-4.3,3.4-12.5,5.2-11.9,10.5c-2.7,1.6-5.1,3.4-8.2,4.7c-3.6,1.5-1.7,4.2-4,5.7
		c-3.8,2.5-7.9,4.8-12.1,7.1c-2.7,1.5-4.6,4.1-8.5,3.9c-6.3-0.3-8.3,4.6-14.8,3.6c-0.9-0.1-3.6,1.4-3.5,2c0.8,4.2-5.6,5.5-8.9,7.9
		c-0.4,0.3-1.8,0-2.8,0c0,1.7,0,3.3,0,5.3c-4.4,2.5-9.1,5.2-13.9,7.9c-0.5,0.3-1.7,0.2-2.6,0.3c-2.1,0.3-3.7,0-5.1-0.8
		c-1.5-0.8-0.9-1.4,1.1-2.4c2.9-1.4,5.8-2.9,7.9-4.7c1.4-1.2,1.2-3,2.1-4.4c0.8-1.2,2.6-1.4,4.8-1.2c1.8,0.2,3.8,0,5.6,0
		c0-1.7,0.7-3.5-0.2-5c-0.9-1.4-3.5-2.4-5.3-3.5c2.9-1.7,5.7-3.2,8.3-4.9c1.2-0.8,2.8-1.7,2.9-2.6c0.7-5.5,7-7.2,15-7.9
		c0.8-0.1,1.9-0.7,2-1.1c0.2-2.2,0.1-4.4,0.1-7.7c-1.8-0.9-4.6-2.4-7.6-3.8c-2.6-1.3-9.1-0.4-9.2,1.6c-0.1,2.5-1.8,4.1-4.6,5.7
		c-1.1,0.6-0.8,2-1.4,3c-0.7,1-1.5,2-2.8,2.7c-2.3,1.2-2.8,2.6-3.1,4.4c-0.1,0.9-1.7,1.9-3,2.6c-1.6,0.8-2.6,1.6-2.6,2.8
		c0,1.1-0.2,2.3,0.1,3.4c0.3,1.3,0.1,2.4-1.5,3c-6.1,2.3-3.9,5.9-4.3,9.5c-2.5,1.3-5.3,2.7-8.3,4.2c-6.7-3-6.6-3-9.8-8.3
		c-0.3-0.5-1.3-1.1-2-1.1c-0.6,0-1.8,0.6-1.9,1.1c-1.9,5.5-0.7,11.1-0.8,16.6c0,0.9,1.9,1.8,3,2.6c1.2,0.9,2.7,1.6,4,2.4
		c1.4,0.8,2.7,0.6,4.1-0.7c1.3-1.2,2.7-1.6,4-1.2c1.9,0.6,2.1,1.6,2,2.9c-0.1,1.2-0.2,2.4-2.3,2.8c-3.3,0.7-7.1,0.4-9.9,2.4
		c-4.2,2.9-9.2,5.5-13.7,8.1c-2.3-0.8-3.3-1.8-2.9-2.9c0.4-1.3-0.1-2.2-1.5-3c-1.4-0.8-2.5-0.4-4.1,0.8c-4.4,3.4-12.6,5.2-12.2,10.5
		c-4.7,2.8-9.3,5.7-14.3,8.3c-2.5,1.3-1.7,3-2.6,4.4c-1,1.4-4.8,2.4-5.2,3.8c-0.5,2.3-0.8,4.3-4.4,5.7c-1.8,0.7-2,1.7-1.9,2.9
		c0.3,2.8,0.1,5.6,0.1,8.2c-0.9,0.5-1.6,0.9-2.3,1.3c-4.7,2.9-4.7,4.1-0.9,6.9c2.8,2.1,2.7,2,0.2,3.6c-3.2,2.1-6.8,3.3-11.9,3.7
		c-3.1,0.2-1.3,3.2-2.7,4.2c-8.7,6.5-11.1,8-21.4,1.3c-1.3-0.8-2.5-1.9-4.1-2.3c-1.6-0.4-4-0.5-5.5-0.1c-1.4,0.4-3,1.5-3.1,2.4
		c-0.4,3.4-0.1,6.7-0.2,10.1c0,1,0,2.6-1,3.1c-7.9,3.4-3.9,8.2-4.6,12.4c-0.4,2.8-0.4,5.6,0,8.4c0.4,2.7-3.1,3.8-5.5,5.4
		c1.1,0.8,2.2,1.6,3.3,2.4c0.6,0.4,1.8,0.8,1.9,1.2c0.3,1.1,0.9,2.7,0,3.3c-3.3,2-6.6,3.9-5.9,7c-2.7,1.6-5.4,3.2-8.1,4.8
		c-2-1.1-4.1-2.1-6.1-3.2c-3.3,2.5-9.6,3.9-8.5,8.1c-3.3,2-6.6,4-9.8,6c-2.6,1.6-2.3,3.5,0.7,5.7c0.6,0.4,1.4,0.8,2,1.2
		c1.5,1.2,1.9,3.8,0.6,4.5c-2.7,1.6-5.1,3.4-8.2,4.7c-3.7,1.5-1.3,4.2-4,5.8c-3.4,2-6.8,3.9-10.1,5.8c0,4.7,0,9.2,0,13.6
		c-1.9,1.6-4.6,1.5-7.5,1.8c-3.4,0.3-3.8,1.5-1.6,3c4.5,3,4.6,4.5,0.5,6.9c-2,1.2-3.9,2.5-6.1,3.5c-2.6,1.2-2.6,2.8-2.6,4.5
		c0,1.1,0.1,2.3,0,3.4c-0.2,1.3-3.8,2.4-6.6,2.2c-3.3-0.2-4.5-1.8-6.7-2.8c-1.3-0.6-3-0.2-3.8,1.1c-0.6,1,0.1,2.2-0.3,3.3
		c-0.5,1.2-4.1,2-7.4,1.6c-0.8-0.1-1.6-0.4-2.3-0.7c-1.8-0.8-1.4-1.5,0.9-2.4c2.4-1,3.8-2.4,3.3-4.2c-0.7-2.9,0.4-5.5,4.9-7.2
		c6.4-2.5,7.5-6.1,6.6-10.2c-0.1-0.5-0.9-0.9-1.5-1.3c-1.3-0.9-2.4-0.5-4.1,0.7c-2.5,1.7-5,3.6-8.2,4.7c-4.8,1.7-1.9,5.3-6,7
		c-4.7,2-2.4,6.4-8.1,8.2c-0.6,0.2-0.9,1-0.8,1.4c0.4,1.8-1,3.2-3.3,4.3c-4.6,2.2-1.6,5.2-2.2,6.7c-3.1,5.1-13.6,6.1-12,11.8
		c-2.7,1.6-5.4,3.2-8.2,4.8c-2.2,1.2-3.6,2.5-3.2,4.3c0.8,3-1.1,5.1-4.8,7.3c-2.3,1.4-0.4,4.4-4.3,5.6c-4.1,1.3-0.8,4.3-4.1,5.8
		c-3.3,1.5-5,3.3-4.2,5.7c-1.9,1.2-3.7,2.4-5.4,3.4c1.7,1.3,3.2,2.5,4.8,3.7c-7.2,2.6-5,6.8-5.1,10.5c-0.2,3.9,0.1,7.9-0.2,11.8
		c-0.1,0.9-1.7,1.8-2.8,2.6c-3.4,2.5-4,6.4-1.5,9.1c1,1,2.9,1.1,5,1c2-0.1,4.1-0.3,4.6-1.5c0.7-1.6,0.6-3.3,0.5-4.9
		c-0.1-1.3,0.4-2.1,1.6-3c4.1-3.2,4.3-3.2,4.1-7.4c-0.1-1.3,0.1-2.2,2-2.9c3.6-1.3,3.5-3.6,4.3-5.7c0.5-1.4,4.1-2.4,5-3.8
		c0.9-1.5,0.2-3.3,0.2-5c0-2.5,5.2-3.1,5.7-5.3c0.5-2.2-0.9-4.4,1-6.5c0.4-0.4,1.4-1,2-1c0.8,0.1,1.9,0.7,2,1.1
		c0.4,3.7,2.5,6.3,9.9,5.7c3.1,2.4,6.9,3.6,12.2,3.1c2.8-0.2,5.7-0.1,8.6,0c2.9,0,4.6,1.3,4.6,3.3c0,5.1,0,10.1,0,15.2
		c-3.7,1.8-6.5,3.7-5.9,7c0.6,3.3,0,6.7-0.2,10c0,0.4-1.8,1.2-1.9,1.1c-1.3-0.5-3.3-1.2-3.3-1.9c-0.3-3.9-0.2-7.9-0.1-11.8
		c0-1.1-0.8-2.1-2.7-2.7c-1.6-0.5-6.4,0.1-7.7,1c-3,2-7.9,3.4-6.8,6.8c-1.7,1.3-3.5,2.6-5.6,4.1c0,4.1,0,8.6,0,13.3
		c3.6,2.2,7.5,4.6,11.2,6.9c0,6.9,0,13.6,0,20.2c-2.5,1.7-5.9,2.8-5.7,5.6c0.4,5-0.2,10.1,0.2,15.2c0.2,2.6-2,4.1-4.8,5.6
		c-0.6,0.3-0.8,0.9-1,1.4c-0.2,0.5-0.4,1.3,0,1.7c1.5,1.3,4.5,2.5,4.7,3.9c0.2,1.1-3.8,2.2-4.2,3.6c-1.4,3.9-1.4,7.7,5.3,10.3
		c0,2.8,0,5.6,0,8.4c0,2.1,1.5,3.2,4.6,3.3c1.9,0.1,3.8,0,5.7,0c5.6,0.2,6.9,0.9,6.9,3.7c0,12.9,0,25.8,0,38.4c-2.7,1.9-6,3-5.9,5.7
		c0.4,6.2,0.6,12.4-0.1,18.5c-0.4,3.4,6,4.5,5.7,7c-0.5,3.7,8,4.9,6,8.7c2.5,1.6,5,3.3,7.5,4.9c1.3,0.8,2.8,1.5,4,2.2
		c0,2.4,0,4.6,0,7.2c4.3,1.4,6.5,3.6,5.8,6.8c-0.4,1.9,0,2,4.4,5.7c0.4,0.3,0.7,1.1,0.5,1.1c-5.2,2.1-4.7,4.1,0.2,6
		c0.2,3.3,0.2,6.7,0.7,10c0.2,1.2,1.9,1.9,3.4,1.8c0.8-0.1,1.5-0.7,2-1.1c1.4-1.1,2.8-1.6,4.1-1.3c2,0.6,2.4,1.6,2,2.9
		c-0.3,1.1-0.3,2.3,0,3.4c0.3,1.3-0.6,2-2.1,2.9c-4.6,2.9-4.4,3,1.5,3.8c6.7,0.9,11.8,4.1,12,7.7c0.1,2.2-0.6,4.5,3.2,6
		c2.8,1.1,2.9,2.8,2.5,4.4c-0.9,3.2,1.6,5.3,5.7,7c0,3.4,0,6.7,0,10.2c-1.2,0.7-2.5,1.5-3.7,2.4c-1.5,1-2.8,4-1.7,4.5
		c3.7,1.9,6.3,4,6,7c2.7,1.6,5.1,3.4,8.2,4.7c3.6,1.5,1.8,4.1,4,5.8c3.8,3,11.4,4.5,10.3,9.3c2.8,1.5,5.6,3,8.5,4.6
		c6.8-2.7,6.8-2.7,14-2.8c2.9,0,5.7,0,8.6,0c1.4-0.7,2.8-1.5,4.2-2.2c3-1.6,7.1-1.6,9.8,0c3.2,1.9,7.6,3.4,6.8,6.8
		c-0.2,0.7,2,1.8,3.4,2.4c3,1.2,1.8,3,2.2,5c4.4,2.5,9.1,5.3,14.1,7.9c1.1,0.6,3.6,0.2,5.9,0.2c6.4,3.9,13,8,20.1,12.3
		c0,0.6,0,1.7,0,2.8c0,0.6,0,1.1,0,1.7c-0.1,2.1,1.6,3.4,4.5,3.4c5.7,0,11.1-0.3,15.2,3c3.4,2.7,8,4.8,12.1,7.2
		c2.4,1.4,2.4,1.4-0.6,3.6c-3.1,2.2-3.6,4.2-0.7,5.7c3.1,1.6,4.7,3.3,4.1,5.8c-0.1,0.3,1.1,0.9,1.9,1.2c1.4,0.4,3-0.1,3.6-1.4
		c0.5-1,0.1-2.2,0.5-3.3c0.4-1,6.1-2.1,7.5-1.5c3.7,1.6,8.8,3.2,9.1,5.9c0.4,4,4,4,9,4.5c3.1,0.3,4.6,3.1,9.2,3.2
		c4.7,0.1,4.8,0.6,5.1,5.4c6.9,3.9,14.5,8.1,21.9,12.5c1,0.6-0.1,1.6-2.1,2.4c-2.8,1.1-2.9,2.7-2.6,4.4c0.3,1.4,2.8,2.2,6.5,2.2
		c6.6,0,13.3,0,18.9,0c3.5,2,6.3,3.5,9.1,5c-4.9,2.8-4.7,2.8-1.4,6.1c0.9,0.9,0.9,2,1.3,3c1.2,2.7,1.2,2.8,8.6,2.7
		c4,2.3,7.8,4.9,12.2,7c4.9,2.3,7.2,6.9,15.5,6.4c4.2,2.2,8.2,4.6,12.6,6.6c1.2,0.5,3.7,0.1,5.8,0.1c5.3,3.2,10.7,6.4,16.2,9.5
		c1,0.6,2.7,0.1,4-1.2c1.4-1.3,2.9-1.6,4-0.8c2.5,1.8,5.4,2.9,9.7,2.7c1,0,2.9,1.4,3.2,2.3c0.5,1.6-0.2,3.4,0.3,5
		c0.3,1,1.8,1.8,2.8,2.7c0.7-0.4,1.3-0.8,2-1.2c5-2.7,5.5-2.8,6.4,0.8c1,3.8,5.3,5.7,10.4,7c2.4,0.6,5.2,0.7,7.3,1.9
		c6.6,4,13.4,7.9,19.8,11.7c6.1,0.2,12.1-1,16.2,2.6c0.7,0.6,3.3,0.7,5.1,0.8c2.8,0.2,5.5,0.2,8,0.3c6.4,3.8,12.5,7.3,18.6,10.9
		c0.4,0.2,0.4,0.9,0.1,1.1c-0.5,0.5-1.3,1.1-2,1.1c-7.6,0.1-15.3,0-22.9,0c-6.2-3.6-13-6.9-18.2-10.9c-3.9-2.9-10.4-1.9-14.2-4.6
		c-4.2-3-9.3-5.5-14.4-8c-1-0.5-3.7-0.1-5.4,0.3c-2.6,0.6-2.5,1.4-0.8,2.4c1.9,1.1,5.1,1.9,4.1,4c0.8,2.7,1.2,2.9,5.8,3.4
		c5.8,1.1,10.5,3.3,11.3,6.3c0.7,2.7,2.2,4,6.8,3.8c0.9,0,2,0.1,2.6,0.4c4.7,2.6,9.2,5.4,13.6,7.9c-2.1,1.6-4.1,2.7-5.5,4.1
		c-1.1,1.1,0.9,4.4,2.6,4.3c5.6-0.5,8.4,1.8,12,3.5c1.2,0.5,4,0.4,5.5-0.1c2.3-0.7,4-2,5.9-3c5.6,3.3,11,6.5,16.4,9.6
		c5,0,8.8,1.2,11.9,3.5c0.4,0.3,1.8,0.2,2.7,0.2c1.9,0,3.8,0,5.7,0c1,0,2.2-0.2,2.8,0c3.6,1.6,6.3,4.3,12,3.3c2.7,1.6,6,3,8,4.8
		c2.9,2.7,9.1,1,12,3.5c1,0.8,2.8,1.6,4.4,1.8c2.8,0.3,6-0.3,8.5,0.2c3.3,0.7,6,2.9,9.2,3.1c4.4,0.3,6.2,2.4,9.3,3.1
		c3.3,0.8,7.4,0.3,11.2,0.5c0.8,0,1.7,0.5,2.2,0.9c2.5,1.9,5.5,2.9,9.7,2.5c3.3,1.9,6.3,4.2,11.9,3.4c2.1,1.1,4.2,2.2,6.3,3.3
		c4.3-0.5,6.7,1.2,9.7,2.5c3.5,1.5,9.1,0.9,11.7,3.7c4.5,0.6,9.1,1,11.8,3.6c4.9,0.1,8.8,1.2,11.9,3.5c1,0.8,6,0.1,7.7-0.7
		c1.4-0.8,2.7-1.6,4.1-2.4c3.1,2.2,6.3,4.1,11.9,3.4c4.2-0.5,7.1,0.7,9.7,2.5c2.1,1.5,5.2,0.8,7.9,0.8c2.8,0.1,5.7-0.1,7.5,1.5
		c1.3,1.1,2.8,1.7,4,1.3c0.8-0.2,1.4-0.8,2.1-1.2c4.7-2.6,10.5-2.3,15.4-0.8c3.2,1,5.3,2.7,9.7,2.6c8.6-0.2,17.2,0.1,25.8-0.1
		c4.6-0.1,6.4,1.9,9.6,3.4c15.8,0,32,0.1,48.2-0.1c4.7,0,6.3,2.1,9.4,3.4c9.3,0,18.8,0,28.4,0c0.7,0,1.6-0.6,2.1-1
		c0.3-0.3,0.4-0.9,0.1-1.1c-2.6-1.6-5.3-3.1-8-4.6c-11.7,0-23.1,0-34.3,0c-6-3.3-6-3.3-9.4-3.3c-6.6-0.1-13.2-0.2-19.8-0.3
		c-7.5-5.2-17.6-2.2-26.5-3c-0.9-0.1-1.7-0.3-2.5-0.5c-2-0.6-2.7-1.6-2-2.9c-6.3,0-12.7,0.2-18.9-0.1c-2.6-0.1-4.7-1.3-14-3.3
		c0,0,0,0,0,0c0,0,0,0,0,0c16.3,0,22.6-0.2,28.9,0.1c2.6,0.1,4.7,1.3,4.1,3.3c3.8,0,7.7-0.1,11.5,0.1c2.2,0.1,3.9,0,4.9-1.2
		c1.2-1.5,1.7-3.2-0.4-4.5c-2.7-1.6-5-3.1-4.7-5.7c0.1-0.8-2.1-1.7-3.4-2.5c-0.6-0.4-1.3-0.8-2-1.2c1.4-0.6,2.7-1.7,4.2-1.7
		c7.7-0.2,15.3,0.1,23-0.1c4.5-0.1,6.8,1.5,9.4,3c2,1.2,4.1,2.4,6.2,3.7c2-1.1,3.9-3,6-3.1c4.1-0.1,7.4-0.5,9.8-2.6
		c0.5-0.4,1.4-0.9,2.2-0.9c3.8-0.1,7.8-0.4,11.5,0c5.8,0.6,7.9-2.8,12.1-3.3c4.6-0.6,9.5-0.3,14.3-0.1c5,0.2,9.4-0.2,12.5-2.8
		c0.2-0.2,1.6-0.2,1.9,0c7.5,4.5,14.7,4,21.8-0.5c3.4,1.7,6.3,3.4,11.8,3.4c5.7,0,8.4-1.9,11.6-3.5c11.8,0,23.3,0,36.1,0
		c-0.5,5.5,9.7,1.5,12.5,4.9c-1.3,0.8-2.5,1.6-3.8,2.4c-0.6,0.4-1.7,1-1.5,1.2c1,1.1,2.6,1.6,4.5,1.6c6.7,0,13.4,0.1,20.1-0.1
		c1.1,0,3.2-1.4,3.1-1.9c-0.5-1.2-2.5-1.6-4.6-1.4c-0.9,0.1-2,0.2-2.8,0c-2.1-0.5-3-1.4-2.4-2.2c0.4-0.5,1.3-1.1,2-1.1
		c4.8-0.1,9.6-0.1,14.4-0.1c4.3,0,4.4,0.1,5.7,2.7c2,4,2,4,6.3,4c9.6,0,19.2,0,28.7,0c3.6,0,4.7-0.4,5.1-3c0.3-1.9,1.1-3.5,4-3.7
		c6.7-0.3,13.4-0.1,20.1-0.1c1.9,0,3.4,0.6,4.6,1.6c2.6,2.2,6.5,1.7,10.2,1.8c3.1,0.1,5.5-0.4,7.3-1.8c2.8-2.2,6.8-1.3,10.4-1.6
		c3.3-0.2,5.3,0.8,7.2,2c0.7,0.4,1.3,0.9,2,1.2c1.9,0.8,2.9,1.6,2.3,2.4c-1,1.2-2.7,1.3-4.9,1.2c-8.6-0.1-17.2-0.1-25.8-0.1
		c-6,3.3-6,3.3-12,3.4c-1,0-1.9-0.1-2.9,0c-3.6,0.3-7.7-0.9-10.5,1.4c2.4,1.6,4.7,3.2,7.2,4.7c0.3,0.2,1.7,0.2,1.9,0
		c3.1-2.6,7.5-2.8,12.5-2.8c15.3,0.1,30.7-0.1,46,0.1c4.6,0.1,6.5-1.9,9.6-3.4c16.8,0,34-0.2,51.2,0.1c5.5,0.1,8.9-1.3,11.9-3.5
		c4,0,7.9-0.3,11.6,0.1c5.8,0.6,8.5-1.7,12-3.5c9.5,0,19,0,28.4,0c3-1.5,4.8-3.5,9.5-3.3c6.6,0.2,13.2-0.2,19.8-0.3
		c5.4-4.8,13.7-2.5,20.9-3c0.8-0.1,2-0.2,2.4-0.6c3.7-3.6,9.8-2.7,15.3-2.8c2.9,0,5.8-0.2,8.6,0c4.6,0.3,6.5-1.8,9.7-3.4
		c5.3,0,11-0.3,16.7,0.1c5.6,0.4,8.9-1.2,11.9-3.4c3.9,0,7.9-0.3,11.6,0.1c5.8,0.6,8.5-1.7,11.9-3.4c3,0,5.9,0,8.8,0
		c2.8,0,5.7-0.1,8.5-0.2c2.8-3.4,9.9-2.5,13.9-4.8c0.7-0.4,1.3-0.8,2-1.2c3.4-1.8,5.7-4.6,11.6-4c2.8-1.5,6.5-2.6,8.2-4.4
		c2.9-3,8.9-1.4,12.1-3.5c1.8-1.2,3.7-2.2,7-2.3c4.5-0.1,5.1-0.8,5.3-2.8c0.1-1.7-0.1-3.4,0.1-5.1c0-0.5,0.9-0.9,1.5-1.3
		c1.3-0.8,2.3-0.3,4.1,0.7c3.6,2,7.6,2.4,9.7,1.2c2.8-1.5,5.9-3,8-4.8c2.6-2.2,7.5-0.3,10-2.3c1.1-0.9,2.7-2.3,4-2.3
		c4.2,0.1,7.4-0.5,9.8-2.5c1.2-1,2.9-1.1,5.1-1c4.8,0.3,9.3,0.2,12.7-2.5c0.8-0.7,3.4-0.9,5.1-0.8c5,0.2,9-0.4,12.6-2.8
		c1.5-1,5.5-0.5,7.5-1.4c3-1.4,5.3-2.8,9.7-2.8c3.6,0,4.6-3.6,9.1-3.2c4.8,0.3,6.3-2.1,9.1-3.4c2.9-1.5,5.3-3.2,8.2-4.7
		c0.7-0.4,1.4-0.8,2.1-1.3V138.3z M839.9,69.2c0-0.4,1.2-0.9,2-1.2c0.5-0.2,1.5-0.1,2,0.2c2.8,1.5,5.5,3.1,8.2,4.7
		c2.9,1.7,6.9,1.8,9.8,0.2c1.3-0.7,2.7-1.5,4.1-2.2c1.8,0.7,2.6,1.6,2.7,2.7c0.3,2-0.9,3.5-3.6,3.9c-1.8,0.3-4.7-0.2-5.4,0.4
		c-3.9,3.4-9.5,3.2-15.2,3c-2.9-0.1-4.6-1.3-4.6-3.4C839.8,74.8,839.7,72,839.9,69.2z M814,80.9c2-1.1,3.5-2.5,4.6-3.3
		c4.2,0,7,0.1,9.8,0c2.2-0.2,3.8,0,4.7,1.2c0.6,0.7-0.4,1.4-2,2.3c-2,1.1-3.5,2.5-4.6,3.3c-4.2,0-7-0.1-9.8,0
		c-2.2,0.2-3.8,0-4.7-1.2C811.3,82.4,812.3,81.8,814,80.9z M57.7,638.7c-1,1.2-2.4,1.7-3.7,1.3c-0.8-0.2-1.6-0.7-1.9-1.1
		c-0.3-0.5-0.1-1.1-0.1-1.6c0-2.1,1.8-3.5,3.8-2.9c2,0.6,2.5,1.5,2,2.8C57.5,637.6,58,638.2,57.7,638.7z M97.7,654.9
		c-0.4,1.4-3.1,2.6-4.9,3.8c-1.2,0.8-2.8,1.4-4.3,2.1c-1.4,0.6-7-0.5-7.5-1.5c-0.8-1.5,0.5-3.2-2-4.6c-2-1.1-4.4-1.9-4.2-4
		c0.4-5.6,0.1-11.2,0.1-16.8c0-2.8,0-5.6,0-8.4c-6.7-2.5-6.3-6.4-5.5-10.3c8.3-3,5-7.9,5.4-12.1c0.5-6.1,0.4-12.2,0.7-18.4
		c0-0.4,1.2-1,2-1.1c0.5-0.1,1.8,0.5,1.9,0.8c1,3.9,4.4,6.9,10.2,8.9c0.7-0.4,1.3-0.9,2.1-1.2c1.3-0.6,2.9-1.6,4-1.4
		c2.1,0.2,2.3,1.5,2.3,2.7c0.1,1.3,0,2.4-2,2.9c-2.5,0.6-5.2,0.7-7.7,1.3c-2,0.5-2.1,1.6-2,2.9c0.1,1.2,0.3,2.2,2.3,2.8
		c0.8,0.2,1.7,0.3,2.6,0.4c6.8,1,6.6,1,6.8,3.8c0.2,2.9,0.1,5.5-4.6,7.3c-0.6,0.3-1.2,0.9-1.2,1.4c-0.1,9.5-0.1,19.1,0,28.6
		c0,1.9,3.3,2.5,4.7,3.9C99,650.4,98.3,652.8,97.7,654.9z M120.8,484c0.6,4.4,0.2,8.9,0.2,13.2c-2.5,1.8-6,2.8-5.9,5.6
		c0.3,7.2,0.1,14.5,0.1,21.4c-2.9,1.9-5.9,3-5.9,5.7c0.1,12.8-0.3,25.6-0.6,38.5c0,0.4-1.2,1-2,1.1c-0.5,0.1-1.5-0.4-2-0.8
		c-2.2-2-0.8-4.3-1.1-6.4c-0.3-1.7-2.3-2.7-5.8-2.6c-1,0-1.9,0.1-2.9,0c-4.2-0.4-7.4,0.4-9.8,2.4c-0.4,0.4-1.6,0.9-1.9,0.8
		c-1.9-0.6-2.7-1.5-2.6-2.7c0.1-1.7,0.4-3.4-0.1-5c-0.8-3.2,1.6-5.3,5.7-7c0-5.6,0-11.2,0-16.7c1.4-0.9,2.6-1.7,3.9-2.5
		c2.7-1.8,2.7-3.9,0-5.7c-1.2-0.8-2.3-1.6-3.5-2.4c4.1-1.7,6.4-3.9,5.6-7c-0.4-1.6-0.1-3.2,2.5-4.4c1.4-0.6,2.8-1.6,3-2.6
		c0.4-2.2,0.1-4.5,0.1-6.7c0-3.3-1.1-6.8,4.9-8.9c0.3-1.6,0.9-3.2,0.7-4.8c-0.1-1.8,0.9-3.2,3.3-4.2c2.7-1.2,2.5-2.8,2.6-4.4
		c0.1-1.6-1.2-3.5,1.5-4.6c4.7-1.9,4.6-4.6,4.2-7.4c-0.2-1.3,0.1-2.2,1.8-2.9c1.8-0.8,6-0.9,7.8-0.1c0.7,0.3,1.9,0.8,1.9,1.2
		c0.1,4.5,0.1,9,0.1,13.5C123,478.8,120.4,480.7,120.8,484z M131.5,740.5c-0.5,0.4-1.3,0.8-1.9,1.2c-0.7-0.4-1.4-0.7-1.9-1.2
		c-0.5-0.4-0.6-0.9-0.9-1.4c-0.4-1.8,1.3-4.3,2.9-4.1c0.8,0.1,1.7,0.7,1.9,1.1c0.5,1,0.8,2,0.9,3C132.5,739.5,132,740.1,131.5,740.5
		z M132.5,451.6c0,2.7-2.2,3.9-6.8,3.5c-1.6-0.1-3-1-4.5-1.5c3.5-2.2,4-3,5.6-6.7c0.6-1.3,2.4-1.7,3.7-1.3c0.8,0.2,1.8,0.7,1.9,1.1
		C132.6,448.3,132.5,450,132.5,451.6z M143.9,473.6c-0.1,0.4-1.2,0.8-1.9,1.2c-0.7,0-1.5,0.1-1.9-0.1c-2.9-1.1-2.8-4.8,0.1-5.5
		c0.5-0.1,1.4-0.1,1.9,0.1c0.7,0.3,1.7,0.7,1.8,1.2C144.2,471.5,144.2,472.6,143.9,473.6z M272.4,270.2c1.5-0.6,2.8-1.4,3.9-2.3
		c1.5-1.1,2.6-1.5,3.9-1c1.7,0.7,2.4,1.6,1.9,2.5c-0.2,3.5-5.5,4.4-8,6.5c-0.2,0.1-1.4,0-1.9-0.2c-0.7-0.3-1.7-0.8-1.7-1.2
		C270.7,273.1,269.4,271.4,272.4,270.2z M226.5,523.1c2.4-1.6,2.3-1.6,3.9-5.7c0.2-0.5,1.2-1,2-1.1c1.4-0.3,3.2,0.3,3.5,1.5
		c0.5,2.2,0.1,4.4,0.1,6.6c0,1.7-0.2,3.3,0.1,4.9c0.3,1.3-0.2,2.1-2.1,2.8c-1.9,0.7-5.7,0.7-7.7-0.1
		C223.7,530.9,223.7,524.9,226.5,523.1z M222.8,555.6c2.5-1.4,1.1-3.1,2-4.6c0.3-0.5,1.8-1.2,1.9-1.1c1.2,0.6,3.3,1.2,3.3,1.9
		c0.2,7.3,0.1,14.6,0.1,21.9c0,1.1-1.3,1.8-2.6,2.8c-4.6,3.4-4.5,3.8-0.1,6.9c2.3,1.6,2.3,1.7-0.7,3.6c-0.6,0.4-1.4,0.8-2.4,1.4
		c0,8.8,0.1,17.7-0.1,26.7c0,1.2-2.2,1.8-3.6,1.4c-0.8-0.2-2-0.8-2-1.2c-0.1-18.5,0-37.1-0.2-55.6
		C218.6,557.5,220.9,556.7,222.8,555.6z M169.7,576.6c0.5-0.1,1.7,0.5,1.9,0.9c1.5,2.4,1.8,5,5.8,6.9c2.3,1.1,1.6,4.6,0.2,7.7
		c-0.2,0.5-1.1,0.9-1.9,1.2c-3.4,0.9-8.6-0.6-8.6-2.5c0-2.2,0-4.4,0-8.3c0.1-0.5,0.3-2.7,0.8-4.8
		C167.9,577.3,168.9,576.8,169.7,576.6z M161.4,554.7c0.5-1.3,2.4-1.7,3.7-1.2c0.8,0.3,1.8,0.8,1.9,1.2c0.2,3.3,0.4,6.6-0.1,9.9
		c-0.2,1.2-2.4,1.7-3.6,1.2c-0.8-0.3-1.8-0.7-1.9-1.2c-0.2-1.6-0.1-3.3-0.1-5C161.2,558,160.8,556.3,161.4,554.7z M155.6,582.4
		c0.4-0.9,1.8-1.7,2.8-2.6c0.7,0.4,1.5,0.7,1.9,1.2c1.4,1.4,1.4,3,0,4.4c-0.4,0.5-1.3,0.8-1.9,1.2
		C156.8,586.6,154.9,584.1,155.6,582.4z M152.6,603.4c-1-0.9-2.5-1.7-2.7-2.6c-0.5-1.6-0.5-3.3,0-4.9c0.3-0.9,1.8-1.7,2.7-2.6
		c1,0.9,2.3,1.7,2.8,2.6c0.5,1,0.1,2.2,0.1,3.4C155.8,600.9,155.1,602.4,152.6,603.4z M253.6,794.1c0.7-3.1-2.4-5.1-6-7
		c-0.5-0.3-0.1-1.1-0.1-1.6c0-1.1,0-2.2,0-3.4c-3.1,0.4-5-0.8-5.6-2.2c-0.6-1.4-0.1-3-0.1-4.5c-1,0-2.3,0.2-2.8,0
		c-2.8-1.5-5.5-3.1-8.7-5c0-5.8-0.1-11.9,0.1-18.1c0-1.2,0.1-2.5-1.6-3c-5.8-1.7-2.7-6.2-8-8.2c-3.1-1.2-5.2-3.2-7.7-4.8
		c1.1-4.9-7-6.2-10.6-9.2c-1.8-3.8-0.7-7.7-0.8-11.6c-0.1-3.3,0.8-6.8-5.2-8.8c-0.2-5-0.5-10-0.5-15c0-1.2,0.1-2.4-1.5-3
		c-6.3-2.3-3.6-5.9-4.4-9.1c-0.3-1.3-2.3-1.8-3.6-1.4c-2,0.6-2.6,1.6-2,2.9c0.6,1.3,0,2.3-2.1,2.8c-1.4,0.3-3.2-0.3-3.5-1.5
		c-0.7-3.2,1.7-6.7-4.4-9.1c-1.1-0.4-1.3-1.9-1.4-3c-0.2-3.4-0.1-6.7-0.1-10.1c0-1.1-1-1.9-2.7-2.7c-4.5-2.1-2.4-6.4-8.1-8.1
		c-0.2-2.7-0.9-5.5-0.6-8.2c0.3-2.7-3.1-3.8-5.9-5.7c0-3.1-0.1-6.4,0.1-9.8c0-0.4,0.9-0.9,1.6-1.3c1.3-0.7,2.4-0.2,4.1,0.9
		c2.6,1.7,3,1.7,5.9-0.2c1.8-1.1,2.5-1.3,4.2-0.7c1.8,0.6,2.4,3.7,5.9,1.4c1-0.7,0.7-2,1.2-3.1c1.2-2.3,3.8-3.2,8.7-2.4
		c2.4,0.4,2.9,1.6,1.4,2.3c-3.1,1.5-4.9,3.1-4.6,5.7c0.1,0.8-2.2,1.6-3.5,2.5c-3,2-3,2,2.4,2.9c7.2,1.3,6.9,1.2,7.1,5.3
		c0.1,2.5-1.3,4.2-4.4,5.7c-1.5,0.7-1.7,1.8-1.5,3c0.2,1.1,0.1,2.2,0,3.4c0,1.1,0.7,2.3,2.7,2.6c0.7,0.1,2.3-1.3,3-2.2
		c0.7-1,0.5-2.1,1.1-3.1c0.2-0.4,1.4-1.1,1.9-1c0.8,0.1,1.9,0.7,2,1.1c0.4,2.7,0.4,5.5,0.9,8.2c0.5,2.7-2.9,3.9-5.6,5.6
		c1.8,1.2,3.5,2.3,5.4,3.6c0,3.2,0,6.6,0,10.3c3.2,1.8,6.6,3.7,10.1,5.6c1.4,0.8,1.2,1.8,1.6,3c1,3.1,7.5,4.9,5.7,8.7
		c-0.8,1.6,0.6,3.1,2.7,4.4c3.3,2,6.6,3.8,11.9,3.5c4.7,2.8,9.5,5.5,13.9,8.4c1,0.6,0.3,2.1,0.3,3.3c7.1,1.7,3.7,7.4,10.1,9.3
		c2.1,2.2,1.6,4.1-1.5,5.6c-4.3-2.2-8.4-4.4-12.7-6.6c-1.3-0.7-6.8,0.5-7.5,1.6c-0.8,1.3,0.2,4.2,1.7,4.5c2.5,0.5,5.3,0.7,7.7,1.3
		c2,0.5,2.1,1.6,2,2.9c-0.1,1.2-0.5,2.1-2.3,2.9c-1.3,0.6-2.1,1.5-3.2,2.3c2.8,1.6,5.5,3.2,8.2,4.8c1-0.9,2.5-1.7,2.8-2.7
		c0.5-1.6-0.2-3.4,0.3-5c0.3-0.9,1.8-1.9,3.2-2.4c2-0.7,7.4,0.3,7.5,1.3c0.1,3,2.2,5.2,6.2,6.9c-1,3.2,2.6,5,5.9,7
		c-0.8,2.5,0.9,4.3,4.2,5.7c2.6,1.2,0.4,3.7,2.2,4.4c5.6,2.4,5.2,5.6,5.3,8.9c0,0.9,1.4,2.1,2.7,2.6c4.4,1.7,1.5,5.3,5.9,7.1
		c3.1,1.2,5.5,3.1,8.2,4.7c-0.9,3.2,2.5,5.1,6,7c-0.8,2.5,0.8,4.3,4.2,5.7c1.6,0.7,1.7,1.7,1.7,3c-0.2,5-0.1,10-0.1,14.5
		c2.3,1.7,5.3,3,5.5,4.3c0.3,2.6,2.1,5.6-3,8c-2.5-1.6-5.7-3-7.5-4.9c-1.6-1.8-0.5-4.3-4.2-5.7c-3-1.1-1.3-3.2-2.5-4.4
		c-2.2-2.3-7-3.8-5.7-7.1c0.1-0.3-1.2-0.9-2-1.1c-0.5-0.1-1.5,0-2,0.2c-0.7,0.3-1.6,0.8-1.6,1.3c-0.3,2.2-0.2,4.4-0.5,6.6
		c-0.1,0.4-1.2,1.1-2,1.2c-6.7,0.8-12.5,0.6-17.8-2.8c-3.4-2.2-1.4-5.4-5.8-7.1C258.7,797.5,256.3,795.6,253.6,794.1z M285.8,902.9
		c-2,0.6-3.8-0.8-3.8-2.9c0-0.5-0.3-1.1,0.1-1.6c0.3-0.5,1.1-0.9,1.9-1.1c1.3-0.4,2.7,0.1,3.7,1.3c0.4,0.4,0.1,1.1,0.1,1.6
		C288.4,901.4,287.8,902.3,285.8,902.9z M319.4,889.9c-5.6-2.7-9.1-7.1-17.9-7.2c-2,0-2.7-1.5-2.2-2.7c0.6-1.3,0.1-2.5-1.9-2.9
		c-4.3-0.8-8.5-1.3-11.9-3.5c-8.4-5.4-17.5-10.4-26.4-15.6c0-1.6,0.2-3.3-0.1-4.9c-0.2-1.3,0.1-2.3,1.9-2.9c1.3-0.4,2.8-0.1,4,1.2
		c2.3,2.3,7.1,0.8,9.8,2.4c2.7,1.6,5.7,3,8,4.8c2.3,1.8,5.2,0.8,8.1,1.3c4.5,2.7,9.2,5.5,14,8.2c3.4,1.9,7.1,3.7,6.1,7
		c7,1.7,4.1,7,10,9.5C324.1,885.7,322.6,888.3,319.4,889.9z M437.2,894.1c-1,0.9-1.9,1.7-2.9,2.6c-1-0.9-2.1-1.7-2.8-2.6
		c-0.4-0.4-0.4-1.2,0-1.6c0.8-0.9,1.9-1.7,2.8-2.6c1,0.9,2.1,1.7,2.8,2.6C437.5,893,437.2,893.6,437.2,894.1z M573.7,990.3
		c-1.6,0.9-6.5,1.1-7.8,0.4c-14.2-8.3-28.4-16.6-42.4-24.9c-0.3-1.7,0.6-3.3-2.1-4.7c-5-2.6-9.8-5.4-14.2-8.3
		c-2.2-1.5-0.5-4.2-4.1-5.7c-2.3-0.9-4.1-2.3-6.1-3.5c-2.7-1.6-5.8-3-8-4.8c-2.6-2.1-7-1-9.9-2.3c-0.7-0.3-1.5-0.8-1.6-1.3
		c-0.3-1.6,0.2-3.2-2.4-4.5c-3.6-1.8-6.4-4.2-10.3-5.8c-4.4-1.8-3.5-4.9-6.1-7c-2.8-2.2-6.6-4-10-6c2.8-1.9,6.7-2.6,9.6-0.9
		c5.8,3.3,13.7,6,14.3,11.6c2.7,1.6,5.4,3.2,8.1,4.8C513.9,946.7,547,966.1,581,986C577.8,987.9,575.8,989.1,573.7,990.3z
		 M615.5,1043.3c-0.3,1.6-2,1.8-5.8-0.2c-2.3-1.2-4.6-1.4-7.3-1.6c-1.4-0.1-2.6-1.1-3.9-1.7c1.5-0.5,2.9-1.1,4.5-1.5
		c0.8-0.2,1.8,0,4.8,0c0.7,0.1,3.3,0.3,5.9,0.6c0.7,0.1,1.7,0.7,1.8,1.1C615.7,1041.1,615.7,1042.2,615.5,1043.3z M630.4,1051.7
		c-2.2-1-4-2.2-6.1-3.2c-1.8-0.9-2.7-1.6-2.1-2.3c1-1.2,2.6-1.4,4.8-1.2c1.8,0.2,3.7,0,5.6,0c4.5,0,6.5,1.3,6,4
		C638.2,1050.8,632.7,1052.7,630.4,1051.7z M641.2,1078.7c-0.7,0.2-1.8,0-2.7,0c-2.1,0.4-3.7,0-4.7-1.2c-1-1.2,1.4-2.2,4.9-2.2
		c0.9,0,2-0.2,2.7,0c0.8,0.2,1.5,0.7,2,1.1C644,1077.2,643.2,1078.1,641.2,1078.7z M667.2,1086.1c-0.2,0.9-1.7,1.8-2.6,2.6
		c-3.7-2.1-5.1-2.3-11.5-3.3c-2.1-0.3-2.9-1.4-2.2-2.1c0.4-0.5,1.2-1.1,1.9-1.1c2.8-0.1,5.6,0,8.4-0.1
		C665.8,1082.1,667.9,1083.3,667.2,1086.1z M700.7,1091.1c-0.5,0.4-1.2,1-2,1c-1.8,0.1-3.7,0.2-5.5,0c-0.7-0.1-1.3-0.7-2-1.1
		c0-0.4-0.1-0.9,0.2-1.1c1.9-1.7,8.2-1.7,9.5,0.1C701,1090.3,701,1090.8,700.7,1091.1z M822.5,1115.7c-4.1,0-8.3,0.1-10,0.1
		c-12-1.1-14-2.2-16-3.4c-7.6,0-15.2,0-22.7,0c-2-1.1-4.1-2.3-6.1-3.4c-3.8,0-7.6,0-11.3,0c-3.5-3.3-8.9-3.7-14.7-3.3
		c-2.1,0.1-3.7-0.2-4.7-1.4c-0.9-0.9,2.4-2,5.9-2c3.8,0,7.6,0,11.4,0c2,0,3.4,0.4,4.7,1.4c1.7,1.3,3.9,2,7.1,2
		c10.4-0.1,20.8,0.1,31.3-0.1c4.3-0.1,7,0.9,9.6,2.6c2.5,1.6,7.3,0.1,9.8,2.3c1.5,1.4,4,2.3,5.8,3.6
		C822.9,1114.5,822.5,1115.7,822.5,1115.7z M982.6,1091c-0.4,0.5-1.3,0.8-1.9,1.2c-1.6,0-3.5-2.4-2.8-4.2c0.4-0.9,1.8-1.7,2.8-2.6
		c0.7,0.4,1.5,0.7,1.9,1.2C984,1088,984,1089.6,982.6,1091z M1055.2,1082c-2.5,0.5-5.6-0.6-7.5,1.2c-2.2,2.1-5.6,2.6-9.6,2.2
		c-0.9-0.1-1.9,0-2.8,0c-2.1,0.4-3.6,0-4.8-1.1c-1.1-1,0.8-2.1,4.9-2.2c2.1,0,3.6-0.1,4.8-1.2c2.2-2.1,5.6-2.5,9.6-2.2
		c1.8,0.1,3.7-0.1,5.6,0.1c0.7,0.1,1.5,0.6,2,1.1C1058,1080.6,1057.4,1081.6,1055.2,1082z M1103.3,1080.9c-0.5,0.4-1.3,1.1-2,1.1
		c-4.7,0.1-9.5,0-14.2,0s-9.5,0.2-14.2-0.1c-2.2-0.1-2.9-1.4-2.1-2.1c0.5-0.4,1.3-1.1,2-1.1c9.5-0.1,18.9-0.2,28.4,0
		C1103.3,1078.8,1104,1080.2,1103.3,1080.9z M1258.4,1081c-0.5,0.4-1.2,1-2,1c-1.8,0.1-3.7,0.2-5.5,0c-0.7-0.1-1.3-0.7-2-1.1
		c0-0.4-0.1-0.9,0.2-1.1c1.9-1.7,8.2-1.6,9.5,0.1C1258.8,1080.2,1258.8,1080.7,1258.4,1081z"/>
</g>
</svg>
