<?xml version="1.0" encoding="utf-8"?>
<!-- Generator: Adobe Illustrator 25.0.1, SVG Export Plug-In . SVG Version: 6.00 Build 0)  -->
<svg version="1.1" id="Layer_1" xmlns="http://www.w3.org/2000/svg" xmlns:xlink="http://www.w3.org/1999/xlink" x="0px" y="0px"
	 viewBox="0 0 1819.7 1071.9" style="enable-background:new 0 0 1819.7 1071.9;" xml:space="preserve">
<path d="M1814.5,909c1.8-1.5,3.6-3.2,5.3-4.7V0H374.5c-1.2,0.9-2.7,1.4-4.7,1.2c-4.1-0.4-8.3,0-12.5-0.1c-3.4-0.1-3.4,1.9-3.8,4.2
	c-0.3,2.2-1.2,2.5-3.6,2.5c-2.4,0-4.8,0-7.1,0c0.4,1.3,0.1,2.5-1.3,2.8c-2.9,0.6-5.6,1.2-7.5,3.5c-0.7,0.9-3.7,0.4-4.8-0.6
	c-0.9-0.8-1.7-1.6-2.6-2.4c-5.9,0-11.9-0.1-17.9,0.1c-0.7,0-1.7,1.5-1.9,2.4c-0.6,2.6,0.8,4.1,3.7,4.1c1.8,0,3.6,0,5.4,0.2
	c0.5,0,1.1,0.7,1.2,1.1c0.2,0.9-0.6,2-1.8,2c-13.2,0.1-26.5,0-39.7,0.1c-2.7,0-4.2-1.4-6.1-2.6c-1.7-1.1-2.4,1.8-3.8,2
	c-3.5,0.4-7.1,0.2-10.6,0.6c-3.3,0.4-5.7-0.8-7.7-3.1c-3.2,0.2-5.6-1.2-7.4-3.6c-3.7,0-7.3,0-11.2,0c-0.7-0.7-1.5-1.5-2.3-2.3
	c-0.8-1-1.8-1.3-3.2-1c-2.2,0.4-4.8-0.9-6.6,1.3c-1.1,1.3-2.4,2.3-4.5,2.1c-1.8-0.2-3.6-0.2-5.4,0c-2.8,0.3-4.3-1.2-6.1-2.7
	c-1.4-1.2-3.2-0.9-4.8-0.1c-1.2,0.6-1.4,1.6-1.3,2.9c0.2,2.4,0.1,2.4,3,3.2c1.1,0.3,2.5,0.2,3.2,0.8c1.7,1.6,3.4,2.7,6.1,2.6
	c5.4-0.2,10.8,0,16.2-0.1c1.4,0,2.4,0,3.2,1c1.5,2,3.5,2.8,6.2,2.4c2,2.1,4.1,3.9,7.5,3.5c2,2.3,4,3.9,6.4,0.4
	c0.3-0.4,1-0.5,1.5-0.6c2.3-0.6,4.4,0.8,4.5,3.5c0,1.2,0.1,2.5,1.5,2.7c0.7,0.1,1.9-0.8,2.5-1.5c0.9-1,1.8-1.3,3-1.4
	c1.4-0.1,2.4,0.1,3.2,1c0.6,0.8,0.3,1.6-1.1,2.4c-1.4,0.8-1.7,1.6-1,2.4c0.8,1,1.8,1.1,3.2,1c1.3-0.1,2.1-0.4,3-1.4
	c2.7-3.1,6.3-1.9,9.8-1.5c2.3,3.5,6,2.9,9.5,2.9c1.6,0,2.4,1,2.6,3.5c0.1,1.2,0.2,2.5,1.5,2.7c3,0.4,5.7,1.2,7.4,3.7
	c4.8,0,9.6,0,14.6,0c2.5,2.3,4.9,4.7,7.6,6.9c1.3,1,1.7,1.6,0.5,2.4c-0.5,0.3-1,0.7-1.5,0.7c-19.9,0-39.7,0-59.6,0
	c-0.5,0-1.2-0.1-1.6-0.4c-1.7-1.5-3.1-2.9-6-2.9c-24.1,0.1-48.2,0-72.2,0.1c-0.8,0-1.6,1.1-2.5,1.7c1.3,1.2,2.6,2.3,3.8,3.5
	c3.3,3.1,3.6,3.9,3.2,8.7c-0.1,1.6-1.5,2.5-3.7,2.5c-6,0-12,0-18.1,0c-2.2,0-3.4,0.9-3.5,2.7c-0.1,1.7,0.2,3.4-0.1,5
	c-0.2,0.9-1.3,2-2.1,2.2c-1.7,0.3-3.6,0.1-5.4,0.1c-2.4,0.1-3,0.7-3.2,3c-0.2,1.9,1,3.5,2.5,3.6c2.3,0.2,4.7,0.3,7,0.5
	c2.3,3.5,6,2.8,9.6,2.9c0.5,0,1.1,0.3,1.5,0.7c1.6,1.7,3.3,2.9,6.1,2.7c3.6-0.2,7.2-0.2,10.8,0c0.8,0.1,2,1.3,2.2,2.1
	c0.3,1.6,0.4,3,1.7,4.4c2.3,2.4,1.9,3.1-1.8,3.3c-1.3,0.1-2.5,0.1-3,1.4c-0.3,0.8,0.5,1.8,1.8,2c1.7,0.2,3.5-0.1,4.8,1.5
	c1.1,1.4,2.6,2,4.6,1.9c1.7-0.1,3.5,0.3,5.2,0.5c1.6,2.7,4.9,2.5,7.4,3.6c1.2,0.5,1.3,1.6,1.1,2.9c-0.3,2.3-0.8,2.9-3.2,3
	c-1.8,0.1-3.6-0.2-5.4,0.1c-1.3,0.2-2,1.2-1.7,2c0.2,0.5,0.8,1.1,1.2,1.1c2.4,0.1,4.8,0,7.2,0.2c0.5,0,1,0.6,1.3,1.1
	c0.5,0.8-0.1,2.1-1.4,2.1c-15.6,0.1-31.3,0.1-46.5,0.1c-2.2-1.4-3.2-3.7-6.2-3.4c-1.8,0.2-3.6,0.1-5.4,0c-3.5-0.1-7.3,1-9.6-2.7
	c-4-1.1-8.1-1-12.1-0.1c-0.5,0.1-1.1,0.8-1.1,1.1c0.1,0.4,0.7,0.9,1.2,1.2c2.7,1.3,6-0.7,8.4,1.3c1.8,1.5,3.4,2.8,6.1,2.6
	c3-0.2,6,0.1,9-0.1c3-0.2,3.9,2.1,5.8,3.4c7.1,0,14.4,0,21.6,0c3.7,3.2,3.7,3.2,7.6,3.3c1.2,0,3.1-0.3,3.4,0.2
	c2,3.3,6.4,2.3,8.8,4.7c3.3,3.3,6.5,6.3,12.2,5.2c2.1-0.4,2.9,3.4,5.7,3.1c1.4-0.1,2.3,0.1,3.2,1c1.6,1.6,3.5,3.1,5.1,4.7
	c1.4,1.5,3.3,0.7,4.9,1.2c0.5,0.2,1.3,1,1.2,1.1c-0.6,0.7-1.3,1.9-2,1.9c-3,0.2-6,0.1-9,0.1c-2.6,0-3.3-3.2-5.7-3.3
	c-7.8-0.1-15.7-0.1-23.5,0c-0.5,0-1.2,0.2-1.5,0.6c-3.5,4.7-8.8,2.5-13.3,2.6c-9.6,0.3-19.3,0-28.9,0.2c-0.7,0-1.4,1.2-2,1.9
	c-0.1,0.1,0.8,1.1,1.2,1.1c3.6,0.2,7.2,0.3,10.8,0.2c2.5-0.1,4.9,0.1,6.2,2.2c1.5,2.3,4.7,0,6.3,2.3c0.9,1.3,2.2,2.3,4.4,2.2
	c5.4-0.1,10.8,0.1,16.1,0.2c0.4,0,1,0.7,1.2,1.1c0.1,0.3-0.3,0.8-0.7,1.1c-0.8,0.8-1.7,1.6-2.5,2.4c0.8,0.8,1.6,1.6,2.4,2.4
	c0.4,0.4,1,0.9,0.9,1.1c-0.6,1.1-1.6,1.5-2.9,1.6c-3.6,0.1-7.2,0.2-9.5-3.3c-8.3,0-16.7,0-25.1,0c-0.5,0-1,0.6-1.3,1
	c-0.2,0.3-0.3,0.9-0.1,1.1c2.5,2.2,4.4,5.3,8.7,4.7c2.2,3.4,5.8,3.2,9.5,3.1c1.7,0,3.5,0.3,5.2,0.4c2.3,3.5,6,2.9,9.5,2.9
	c3,0,6,0.2,9-0.1c2.9-0.2,4.1,1.7,5.9,3c3.1,2.2,0.6,3.3-0.8,4.8c-0.4,0.4-0.5,0.9-0.7,1.4c-0.3,1-0.2,2.2-0.7,3.1
	c-1.1,1.8-3.2,1.1-4.9,1.1c-8.4,0.1-16.8,0-25,0c-1.5-1.2-2.8-2.5-4.3-3.3c-1.8-1-4.8,0.9-5,3c-0.2,1.9,1,3.5,2.6,3.6
	c2.3,0.2,4.7,0.1,7,0.6c1.2,0.2,1.6,1.1,3.6,2.8c1.4,0.1,2.9-0.4,4.1,0.8c0.3,0.3,0.4,0.7-2.9,0.1c3.1,2.4-0.1,2.8-2.3,1.7
	c-0.5-0.2-0.9-0.7-1.1-1.1c-0.2-0.5-0.3-0.8-0.2-1.1c-3.9-0.5-6.2-0.5-8.4-0.5c-1.2,0-2.5-0.3-3.4,0.1c-4.7,1.9-6.3-4.2-10.6-3.5
	c-0.7,0.1-1.8-1-2.6-1.7c-0.3-0.3,0-1,0-1.5c-1.8,0-3.6,0.3-5.3-0.1c-1.4-0.3-1.8-1.4-1.3-2.1c0.3-0.4,0.8-1,1.3-1
	c1.8-0.1,3.5,0,5.3,0c0-0.6,0.2-1.2,0-1.6c-0.2-0.5-0.7-1-1.2-1.2c-4.7-1.8-11,1.9-14.6-3.5c-2.4-0.1-4.8-0.5-7.1-0.2
	c-3.4,0.4-5.7-1-7.6-3.4c-10.8,0-21.6-0.1-32.4,0.1c-1.3,0-1.8,1.4-1.3,2.1c0.3,0.4,0.8,1,1.3,1.1c2.4,0.1,4.8,0.1,7.2,0.1
	c2.2,3.4,5.7,3.5,9.4,3.3c1.8-0.1,3.6,0.2,5.4-0.1c2.7-0.3,4.3,1.2,6.1,2.6c1.2,0.9,3.3,0.6,4.8,1.3c1.5,0.7,2.3,2.8,4.2,2.7
	c2.9-0.2,4,2.1,5.9,3c2,0.9,4.7,0.3,6.1,2.5c0.7,1.1,1.7,1.5,3,1.3c0.6-0.1,1.2,0.1,1.8,0c2.6-0.3,4.7,0.2,6.2,2.3
	c1.3,1.7,3.4,0.6,4.8,1.3c1.5,0.7,2.6,2.1,4,3.1c0.4,0.3,1.2,0.1,1.8,0c3.1-0.2,5.9-0.1,7.9,2.6c0.3,0.4,1,0.7,1.5,0.7
	c3.5,0.1,7.3-0.7,9.6,2.9c2.3,0.2,4.7,0.2,7,0.6c0.9,0.2,1.6,1.2,2.4,1.8c-0.4,0.4-0.9,0.8-1.3,1.2c-1.9,2-2,2.1-0.4,3.5
	c1.1,1,1.7,1.6,1.2,2.4c-0.7,1.1-1.7,1.2-3.1,1.1c-3-0.2-6,0-9,0c-1.9,2.4-4.1,3.6-7.6,3.4c-2.7-0.1-4.3-1.1-6.1-2.7
	c-0.7-0.6-2.4-1-3.2-0.7c-2,0.8-3.7,2.5-5.8,3.1c-2.1,0.7-4.7-0.5-6.9,0.8c-0.4,0.2-0.9,1-0.8,1.1c1.6,1.6,3.4,3.2,5.2,4.8
	c3.5,0,7.1,0,10.7,0c0.4,0,1,0.6,1.3,1c0.5,0.8,0,2.1-1.3,2.1c-6,0.2-12,0.1-17.8,0.1c-1.9-1.4-3-3.5-5.9-3.4
	c-5.4,0.2-10.7,0.1-15.4,0.1c-2-1.4-3.3-3.2-4.7-3.2c-7.1-0.1-14.3-0.7-21.4,0.4c-0.5,0.1-1.2,0.7-1.2,1.1c0,0.4,0.7,0.9,1.2,1.1
	c2,0.9,4.7,0.2,6.2,2.4c1.6,2.3,4.3,1.4,6.5,1.5c2.4,0.1,4.8,0.2,7.2,0c3-0.3,4,2,5.9,3.3c3.5,0,7.1,0,10.7,0c2.1,1.9,3.9,4,7.5,3.5
	c2.3-0.4,4.8-0.1,7.2-0.1c1.9,2.3,4.1,3.9,7.5,3.4c1.8-0.3,3.6,0,5.4-0.1c1.3,0,2.2,0.4,3,1.4c1.1,1.4,2.6,2,4.6,1.9
	c1.7-0.1,3.5,0.3,5.2,0.4c2.3,3.5,6,2.7,9.5,2.9c1.8,0.1,2.9,1.5,2.6,3.5c-0.2,2,1.1,3.2,3.1,3c2.9-0.2,3.8,2.5,5.8,3.1
	c2.1,0.7,4.7,0.2,7.1,0.3c0.5,0,0.9,0.7,1.3,1c3.1,2.2,3.1,2.2,6.2,2.3c2.6,0,2.7-0.1,6.1,2.5c1.6,1.2,3.4,0.5,4.9,1.2
	c0.5,0.2,1,0.7,1.2,1.2c0.1,0.3-0.4,1-0.8,1.1c-1,0.4-2.2,0.6-3.3,0.7c-1.7,0.2-3.5,0.3-5.2,0.5c-0.5,0.1-1.2,0.7-1.2,1.1
	c0,0.4,0.7,1.1,1.1,1.1c5.4,0.2,7.8,4.3,11.4,7.2c2.3,0,4.7,0.3,7-0.1c3.5-0.5,5.5,1.4,7.5,3.5c3.6,0,7.2,0,10.8,0.1
	c0.4,0,1,0.7,1.2,1.1c0.1,0.3-0.1,0.8-0.4,1.1c-1.3,1.5-3.4,0.5-4.8,1.2c-1.5,0.8-2.6,2.2-4.1,2.9c-0.9,0.4-2.5,0.1-3.3-0.4
	c-1.8-1.4-3.2-3-6-2.8c-5.4,0.2-10.8,0.1-16.2,0c-1.1,0-2.8-0.1-3.2-0.7c-2.5-3.5-6.3-2.5-9.7-2.6c-7.2-0.1-14.4,0-21.7,0
	c-0.5,0-1,0.5-1.4,0.8c-0.3,0.3-0.6,0.9-0.5,1.1c0.2,0.5,0.8,1.1,1.2,1.1c4.1,0.1,8.4-0.5,11.1,3.5c0.2,0.3,1.1,0,1.7,0
	c3-0.1,6-0.5,8,2.4c0.7,1,1.8,1,3.2,1c4.2,0,8.3,0.1,12.5,0.2c2.7,4.2,7.2,2.9,11.3,3.1c3.5,0.2,7.1,0.3,10.6,0.5
	c0.5,0,1.1,0.7,1.2,1.1c0,0.3-0.7,1-1.1,1.1c-7.1,1.2-14.3,0.3-21.4,0.5c-0.5,0-1.2-0.3-1.5-0.6c-2.9-4.3-7.5-2.4-11.5-2.6
	c-6-0.2-12-0.2-18,0c-2.9,0.1-4-1.9-5.9-3.3c-3.5,0-7.1,0-10.6,0c-1-0.8-1.8-1.5-2.7-2.3c-0.4-0.4-0.9-0.7-1.3-1.1
	c-0.6,0.9-1.4,1.7-1.7,2.7c-0.3,1-0.1,2.2-0.1,3.3c0,3,0.9,4,4,4c3,0,5.9,0,8.7,0c1.5,1.4,2.7,2.7,4.1,3.7c1.1,0.8,1.7,1.6,1.3,2.8
	c-0.4,1.3-0.1,2.5,1.2,2.8c2.8,0.7,5.7,1,7.4,3.6c3,0.1,5.9,0.5,8.9,0.3c2.9-0.2,4,1.9,5.8,3.2c0.8-0.7,1.7-1.4,2.5-2
	c1.9-1.5,4.2-1.5,6.2,0.1c1.3,1.1,2.3,2.3,4.5,2.1c3-0.2,6,0.1,9-0.1c2.7-0.2,4.3,1,6.1,2.6c1.9,1.6,4.5,0.5,6.8,0.8
	c2,0.2,2.9,1.2,2.9,3.3c0,1.1,0,2.2,0,3.3c0,2.4,0.3,2.9,2.8,3.3c1.7,0.3,3.4,0.3,4.3,1.9c-1.7,1.6-3.4,3.1-5.1,4.7
	c-3.4-0.5-5.4,1.5-7.5,3.4c-0.3,0.3-1.2,0.1-1.8,0c-1.4-0.3-2.7,0-2.9,1.3c-0.1,0.7,0.9,1.6,1.5,2.3c0.3,0.4,0.8,0.8,1.3,1.2
	c-0.7,0.6-1.4,1.7-2.3,1.8c-1.8,0.3-3.8-0.3-5.4,0.2c-2.1,0.7-3.8,2.2-5.8,3.2c-0.5,0.2-1.2-0.1-1.8,0.1c-2.2,0.7-2.7,1.2-2.6,3.5
	c0,1.6,0,3.3,0,4.8c1,0.9,1.9,1.7,2.7,2.5c1.6,1.5,1.6,1.4,6.1,2.5c1.4,0.4,1.9,1.4,1.4,2.2c-0.3,0.5-0.8,1.1-1.3,1.1
	c-3.6,0.1-7.2,0-10.6,0c-1.4-1.1-2.6-2.2-3.9-3.2c-1.8,1.5-3.1,3.5-6,3.2c-3-0.2-6.1-0.4-9,0c-3.6,0.5-4.7-3.2-7.5-3.3
	c-3.6-0.2-7.1,0.3-9.5-3c-0.7-0.9-3.7-0.5-4.8,0.5c-0.9,0.7-1.7,1.6-2.7,2.5c-8.3,0-16.7,0-25.1,0c-0.5,0-1,0.6-1.3,1
	c-0.2,0.3-0.3,0.9-0.1,1.1c1.6,1.6,3.4,3.1,4.9,4.5c3.3,0,6.3,0,9.3,0c1.3,0,2.2,0.4,3,1.4c1.1,1.3,2.5,2,4.5,2c1,0,1.9,1,2.9,1.5
	c-0.9,0.6-1.8,1.5-2.8,1.6c-1.8,0.3-3.7,0.4-5.4,0c-4.3-0.8-6.5,1.9-9,4.2c-0.3,0.3-0.6,0.9-0.5,1.1c0.6,1.2,1.6,1.4,3,1.4
	c3-0.1,6,0,9,0c0.9,0.7,1.9,1.4,2.6,2.2c1.4,1.7,3.3,1,4.9,1.1c4.8,0.1,9.6,0,14.5,0c1.8,2.4,4.1,3.6,7.4,3.6c1.1,0,2.2,3,1.5,4.3
	c-0.5,0.8-1.6,1.9-2.4,1.9c-5.4,0.2-10.8,0.1-16.2,0.1c-1.8,0-2.7,1-2.9,3.2c-0.2,2.2-1.2,3.4-2.8,3.4c-12,0-24.1,0-36.1,0
	c-1.1,0-2.8,0-3.2-0.6c-3-4.2-7.6-2.4-11.5-2.6c-5.4-0.2-10.9,0.4-16.2-0.2c-4.5-0.4-6.4,2.3-8.9,4.5c-0.2,0.2-0.3,0.9-0.1,1.1
	c0.3,0.5,0.8,1.1,1.3,1.1c1.8,0.1,3.6,0.1,5.4,0c2.2,0,3.5,0.9,3.6,2.7c0.2,3.3,0.3,6.6-3.3,8.7c-1.5,0.9-2.6,2.3-3.9,3.5
	c1.3,2.9,5.8,0.5,7,3.5c-1.7,1.6-3.4,3.1-5.3,4.9c-2.2,0-4.6,0.3-7-0.1c-3.5-0.5-5.5,1.3-7.5,3.4c-4.9,0-9.7,0-14.5,0
	c-1.7,1.6-3.4,3.1-5.1,4.7c0.7,0.8,1.3,1.6,2,2.3c1.6,1.6,3.1,3,5.9,3c8.4-0.2,16.8,0.1,25.3-0.1c3.3-0.1,5.8,0.6,7.7,3
	c4.1-0.3,6.3,2.4,8.7,4.7c0.2,0.2,0.3,0.9,0.1,1.1c-0.3,0.5-0.8,1.1-1.3,1.1c-3.6,0.1-7.2,0-10.8,0.1c-0.4,0-1,0.7-1.2,1.1
	c-0.3,0.8,0.3,1.7,1.6,2.1c1.1,0.3,2.8-0.2,3.4,0.3c2.2,2.1,4.4,3.3,7.7,3.1c3.5-0.2,7.1,0.2,10.6,0.4c0.5,0,1.2,0.7,1.2,1.1
	c0.2,1.6,0.1,3.3,0.1,5c0.1,2-1.1,3.4-2.7,3.4c-12,0-24.1,0.1-36.1-0.1c-2.8,0-4.2,1.6-5.9,3c-1.1,0.8-3.7,0.6-4.8-0.4
	c-0.9-0.7-1.7-1.6-2.8-2.5c-5.8,0-11.8-0.2-17.8,0.1c-3.5,0.2-5.6-1.3-7.5-3.4c-4.3,0-8.5,0-12.7,0c-0.4,1.3-0.1,2.3,1.3,2.8
	c1.6,0.5,3.6,0.4,4.8,1.3c1.9,1.4,3.4,2.7,6.1,2.6c4.8-0.2,9.6-0.2,14.4,0c1.3,0,2,1.1,1.8,2c-0.1,0.5-0.7,0.9-1.2,1.2
	c-1.2,0.8-1.7,1.6-1.3,2.4c0.7,1.1,1.7,1.2,3.1,1.1c4.2-0.1,8.4,0,12.5,0c3.8,3.4,3.8,3.3,5.9,3.3c4.2,0,8.3,0.1,12.5,0.3
	c0.4,0,0.9,0.7,1.4,1.2c-2.3,2.3-4.7,4.6-7,6.9c0.5,0.5,0.9,1.2,1.4,1.2c2.3,0.2,4.8,0.5,7.1,0.3c3.4-0.4,5.7,1,7.6,3.4
	c2.4,0,4.8,0.3,7.2-0.1c3.5-0.5,5.5,1.4,7.5,3.4c9.7,0,19.3,0,28.8,0c1.9,1.3,2.9,3.5,5.8,3.4c5.4-0.2,10.7-0.1,16-0.1
	c2,2.7,4.4,3.8,7.7,3.4c1.8-0.2,3.5,0,4.8,1.8c-1.7,1.5-3.4,3-5.2,4.5c-0.8,0.7-3.8,0.4-4.9-0.5c-0.9-0.7-1.7-1.6-2.6-2.4
	c-4.7,0-9.5,0-14.3,0c-2.1-1.9-3.9-3.9-7.5-3.5c-3.5,0.4-7.2,0.1-10.7,0.1c-0.9-0.8-1.8-1.6-2.6-2.4c-0.9-1-1.6-0.8-2.6,0.5
	c-2.1,2.8-6.9,1.4-8.7,4.7c-1.7,0.2-3.4,0.5-5.2,0.5c-3,0.1-6,0.2-9-0.1c-1-0.1-2-1-2.8-1.8c-0.9-0.9-1.7-1.5-3-1.5
	c-9,0-18-0.1-27.1,0.1c-0.9,0-1.8,1.2-2.7,1.9c-2.3,1.7-4.5,2-6.1,0.3c-1.7-1.9-3.6-2.6-6.2-2.3c-1.2,0.2-2.4,0-3.6,0
	c-1.7,1.6-3.4,3.2-5.1,4.7c0.7,0.6,1.4,1.8,2.2,1.8c3,0.2,6,0,9,0.2c1,0.1,2.1,0.8,2.9,1.6c1.3,1.3,2.8,1.8,4.7,1.7
	c1.7,0,3.9-0.7,5.1,0.6c2.2,2.4,4.8,2.8,7.9,2.7c5.4-0.2,10.8-0.1,16.2,0c0.7,0,1.4,1.2,2,1.9c0.1,0.1-0.8,1.1-1.2,1.1
	c-12,0.1-24,0.1-36,0.3c-0.7,0-1.8,1.4-2,2.3c-0.7,2.5,0.9,4.3,3.5,4.3c7.8,0,15.6,0,23.5,0c1.9,2.1,3.9,3.7,7.5,3.4
	c4.8-0.4,9.6-0.1,14.1-0.1c2,1.5,3.1,3.5,6,3.4c4.8-0.2,9.6-0.1,14.4-0.1c1.2,0,2.1,0.5,2.9,1.5c1.1,1.4,2.7,1.9,4.6,1.8
	c1.7,0,3.4,0.3,5.2,0.5c1.9,2.6,4.7,2.7,7.8,2.9c5.6,0.4,12-2.3,16.7,3c2.4,0.1,4.8,0.4,7.1,0.2c3.5-0.4,5.6,1.1,7.5,3.4
	c3.7,0,7.3,0.3,10.8-0.1c3.6-0.4,5.4,1.6,7.6,3.6c3.5,0,7.1,0,10.7,0.1c0.4,0,1.1,0.7,1.2,1.1c0.2,0.9-0.6,1.9-1.9,1.9
	c-16.8,0.1-33.6,0.1-50,0.1c-2.5-2.3-4.6-4.2-6.7-6.2c-0.9-0.8-3.6-0.6-4.9,0.2c-4.1,2.7-4.1,2.7-6,2.6c-1.8,0-3.6,0.2-5.4,0
	c-2.1-0.2-3.2,1-4.5,2.1c-2,1.7-4.3,1.8-6.1,0.2c-0.9-0.7-1.6-1.8-2.6-2.1c-1-0.4-2.8-0.4-3.4,0.1c-2.2,1.9-3.8,4-6.5,0.5
	c-1.1-1.4-3.3-0.6-5-0.7c-3.5-0.2-7.1,0.6-10.6-0.5c-2.3-3.6-6.1-2.8-9.6-2.8c-6,0-12,0.1-18-0.1c-0.9,0-1.9-1.1-2.8-1.8
	c-2.6-1.8-6.7-2.1-9.8-0.5c-0.3,0.1-0.5,0.9-0.4,1.1c0.2,0.5,0.8,1.2,1.2,1.1c2.5-0.1,4.7,0.3,6.2,2.4c1.5,2.2,4.7,0,6.2,2.3
	c0.9,1.4,2.3,2.3,4.4,2.1c3-0.2,6,0.1,9-0.1c2.7-0.2,4.2,1.2,6.1,2.6c2.4,1.9,5.8-0.1,8.4,1.2c1.3,0.6,1.7,1.6,1.3,2.8
	c5.4,0,10.8,0,16.6,0c1.5,2.5,3.8,3.8,7.2,3.4c1.8-0.2,3.6,0,5.4-0.1c1.3-0.1,2.2,0.4,3,1.4c0.7,0.8,1.7,1.8,2.7,1.9
	c3.5,0.3,7-0.5,9.7,2.7c1.4,1.7,4.6,0.9,6.8,0.6c4.3-0.7,6.5,1.9,9,4.2c1.7,1.6,0.1,4.2,2.5,5.8c1.9,1.3,3.5,3.1,5.1,4.7
	c0.2,0.2,0,0.8-0.3,1.1c-0.3,0.4-0.9,0.9-1.4,0.9c-1.2,0.1-2.8,0.3-3.4-0.3c-2.2-2.1-4.4-3.2-7.7-3.1c-8.4,0.2-16.9,0-25.3,0.1
	c-2.8,0.1-4.2-1.4-6-2.8c-1.4-1.1-3.4-1.1-4.8,0.1c-1.8,1.5-3.3,2.7-6.1,2.8c-1.4,0.1-2.7,1.9-4.3,3.1c-5.7,0-11.7,0-17.8,0
	c-1.2-1-2.3-2.6-3.8-3.1c-1.6-0.6-3.6-0.1-5.4-0.1c-0.6,0-1.2,0-1.7,0c-1.9,1.3-2.9,3.5-5.9,3.4c-7.8-0.2-15.6-0.1-23.1-0.1
	c-2-1.7-3.2-3.6-6.1-3.4c-4.1,0.3-8.3,0.3-12.4,0.5c-0.5,0-1.1,0.7-1.2,1.1c0,0.3,0.7,1.1,1.1,1.1c2.3,0.3,4.7,0.2,7,0.6
	c0.9,0.2,1.6,1.1,2.4,1.8c-1.3,1.2-2.6,2.3-3.8,3.5c-1.8,1.7-4.3,1.8-6.2,0.2c-0.9-0.8-1.7-1.5-2.7-2.3c-4.7,0-9.5,0.1-14.3-0.1
	c-0.6,0-1.4-1.6-1.7-2.6c-0.6-1.8,0.8-3,2-4.2c1.5-1.4,1.2-2.6-1-3c-1.8-0.3-3.3-0.5-4.7-1.7c-1.9-1.6-2.1-1.5-3.8,0.1
	c-1.1,1.1-2,2.3-3,3.5c0.9,0.8,1.9,1.5,2.5,2.4c1.2,1.7,0.4,4.1,2.5,5.7c2.3,1.8,4.2,3.8,7.7,3.2c0.6-0.1,1.2,0,1.8,0
	c1.2-0.1,2.1,0.5,3,1.5c0.7,0.8,1.8,1.7,2.7,1.8c3.6,0.2,7.2,0.3,10.8,0c2.8-0.2,4.1,1.6,6,2.8c2.5,1.6,6-0.6,8.4,1.3
	c1.8,1.5,3.4,2.8,6.1,2.6c3-0.2,6,0.1,9-0.1c3-0.2,4,2,5.8,3.3c2.3,0,4.7,0,7.1,0c1.3,1.1,2.7,2.3,4,3.4c3.5,0,7.1,0,10.7,0
	c1.9,2.4,4.2,3.7,7.6,3.3c2.3-0.3,4.7-0.1,6.7-0.1c2.5,2.3,4.4,4.4,6.8,6.1c1.2,0.9,3.6,0.5,4.7,1.4c1.9,1.4,3.4,3,6.1,2.5
	c2.2,1.9,4.3,3.8,6.5,5.6c0.4,0.4,0.9,0.7,1.3,1c0.6,0,1.2,0,1.8,0c3-0.2,6-0.3,7.9,2.5c0.7,0.9,1.9,0.9,3.2,0.9
	c1.7-0.1,3.5,0.2,5.3,0.3c2.2,3.5,5.9,3,9.5,3c2.4,0,4.8-0.2,7.2,0.1c1,0.1,2.1,0.9,2.8,1.7c1.3,1.4,3,1.4,4.7,1.6
	c2.1,0.3,2.4,1.5,0.9,3c-1.8,1.8-1.8,1.8-0.3,3.5c3.2,3.7,2.7,5.7-2.1,6.6c-1.2,0.2-2,0.6-3,1.4c-3.5,2.8-4.2,2.7-7.4,0.5
	c-3.7-2.6-3.9-2.8-7.4,0.1c-2.1,1.8-4.3,1.3-6.6,1.5c-2,0.2-3.4-0.7-4.5-2c-0.8-1-1.8-1.3-3-1.4c-1.9-0.1-3.6,0.8-3.9,2.4
	c-0.5,2.5,0.7,4.1,3.6,4.2c1.4,0,2.2,0.2,3.1,1.2c1.1,1.2,2.2,2.4,4.4,2.2c3-0.2,6,0.1,8.9,0.1c3.7,5.5,9.9,1.9,14.7,3.5
	c2.1,2,4.3,3.9,6.5,5.9c2.4-1,3.9-3.5,7.3-3.2c4.3,0.4,4.3,0,5.7,4.2c0.9,3,4,3.6,6.7,1.4c0.9-0.7,1.7-2,2.7-2
	c3.6-0.2,7.2,0,10.7,0.2c0.4,0,0.9,0.7,1.3,1.1c1.6,2.1,4,2,6.4,1.9c1.8-0.1,3.5,0.1,4.7,1.6c1.1,1.2,2.4,2.3,3.6,3.5
	c-1.8,1.6-3.5,3.2-5.3,4.9c-7,0-14.2-0.1-21.4,0.1c-0.7,0-1.7,1.4-1.9,2.3c-0.2,0.9-0.1,2.6,0.6,3c3.8,2.3,2.7,5.7,3.1,8.9
	c0.1,0.8,1.3,2.1,2.1,2.2c2.4,0.3,4.8,0.1,7.2,0.1c1.2,0,3-0.2,3.4,0.3c2.4,3.3,5.9,3.1,9.6,3.1c1,0,2.3,0.8,2.8,1.6
	c0.5,0.9,0.5,2.3,0.1,3.2c-0.4,0.9-1.6,1.6-2.4,2.4c-1.6,1.6-1.4,2.1,2,2.6c1.3,0.2,2.6,0,3.2,0.9c1.3,2.1-1.3,2.4-2.1,3.5
	c-0.6,0.9-1.7,1.5-2.6,2.3c-6,0-12,0-18,0c-1.9,2.3-4.1,3.9-7.5,3.3c-0.6-0.1-1.2,0-1.8,0c-1.3-0.1-2.5,0.3-2.8,1.5
	c-0.1,0.4,1.4,1.7,2.2,1.8c5.9,0.4,11.9-0.4,17.8,0.6c0.5,0.1,1.3,0.8,1.2,1.1c-0.3,2.4,0.6,4.1,2.6,5.7c1.8,1.5,1.5,3.5-0.3,5.6
	c-0.6,0.7-1.1,1.6-1.7,2.3c3.8,2.1,3.2,5.5,3.2,8.8c0,2.2,0,4.4,0,6.6c0,1.5,1.6,2.5,3.8,2.5c2.4,0,4.8,0,7.2,0c2.2,0,3.4,1,3.5,2.8
	c0,2.2-0.2,4.5,0.1,6.6c0.3,2.7-2,3.8-3.5,5.4c3,3.9,7.6,6.4,10.2,10.2c-1.2,1.6-2.9,2.8-3,4.2c-0.4,3.3-0.3,6.6-0.1,10
	c0.2,2.6-1.6,3.9-3.3,5.4c0.2,0.4,0.2,0.9,0.5,1.2c5.5,5.1,11,10.2,16.7,15.4c-0.5,0.7-0.8,1.7-1.5,2.2c-1,0.8-1.7,1.6-1.6,2.7
	c0.3,3.4,0.1,6.6-3.4,8.7c-0.8,0.5,0,3.5,1,4.4c0.8,0.8,1.6,1.6,2.3,2.3c-1.1,1.2-2.2,2.3-2.8,2.9c2.9,3.1,5.6,6,8.3,8.8
	c4,0,7.6,0,11,0c1.9,1.5,3,3.6,5.9,3.3c2.4-0.2,4.8,0,7.2,0c1.2,0,2,0.6,2.9,1.5c1.2,1.2,2.7,2.1,3.9,3.1c-1.5,2.1-3.3,1.9-5,2.1
	c-0.8,0.1-2.1,1.4-2,1.8c0.3,1.2,1.6,1.4,2.9,1.4c3.7,0.2,7.1-0.2,9.4-3.4c1.9,2.3,4,4,7.5,3.4c1.1-0.2,2.3,0.1,3.5,0.2
	c1.7,1.6,3.6,3,5,4.8c0.6,0.7,0.3,2.1,0.1,3.2c-0.1,0.4-0.7,1.1-1.1,1.2c-8.4,1-8.3,0.8-18.3-2.2c-3.9-1.2-8.3-1.3-11,2.7
	c-0.9-0.7-1.7-1.3-2.6-2c-1.9-1.6-4.4-1.6-6.2,0.1c-1.3,1.2-2.6,2.4-3.8,3.5c0.7,0.6,1.4,1.5,2.2,1.9c1,0.4,2.6,0,3.3,0.6
	c1.8,1.3,3.3,2.6,6,3c6.2,0.8,13.3-2.9,18.5,2.8c4.8,0.2,9.5,0.3,15,0.5c1.7,1.5,3.9,3.4,5.8,5.4c1.5,1.6,3.4,0.6,4.9,1.2
	c1.5,0.7,2.5,2.3,4,3.1c0.9,0.5,2.4,0.1,3.6,0.1c1.2,0,3-0.2,3.4,0.3c2.7,4.2,7.4,2.4,11.2,3.5c0.5,0.2,1.2,0.7,1.2,1.1
	c0.1,2.2,0.1,4.4,0.1,6.8c1.7,1.5,3.3,3.1,5.1,4.6c1.5,1.2,5.2,0.1,5.7-1.9c0.1-0.5-0.1-1.1,0-1.7c0.6-2.5,0.7-2.5,3.4-2.8
	c2.6-0.3,3.7-1,3.7-2.5c0-1,0-2.4-0.6-3c-2.3-2.4-4.4-5.2-8.7-4.8c-1.7-1.6-3.4-3.1-5.1-4.7c1-0.6,1.9-1.2,2.9-1.6
	c0.5-0.2,1.2,0.1,1.8-0.1c2.1-0.6,2.7-1.5,2.6-3.6c-0.2-2.2-1-3-3.2-3c-3.6,0-7.2-0.1-10.8,0c-2.1,0.1-3.4-0.8-4.5-2.1
	c-1.4-1.7-3.2-1-4.9-1.3c-0.5-0.1-1-0.6-1.3-1.1c-0.5-0.8,0-2,1.3-2.1c3.6-0.3,7.2-0.1,10.6-0.1c3.8,3.3,3.8,3.3,7.7,3.3
	c1.8,0,3.6,0,5.4,0c2,0,2.6,0.5,3,3.1c0.2,1.2,0.3,2,1.1,2.9c2.6,2.8,7.1,4.5,6.4,9.2c1.5,1.6,3.5,2.7,3.5,5.4
	c-0.1,2.4,2.6,3.5,4.2,5c5,4.8,10,9.6,15.3,14.1c3.3,2.8,5.4,7.5,11.2,7.1c1.7,1.6,3.4,3.1,5.1,4.7c-0.3,0.4-0.6,1-1,1.1
	c-5.9,1.3-11.8,0.4-17.8,0.6c-0.5,0-1.2-0.2-1.5-0.6c-2-2.6-4.7-3-7.8-2.8c-3.6,0.3-7.2,0.3-9.4-3.1c-2.4-0.1-4.8-0.4-7.1-0.1
	c-3.5,0.4-5.6-1.2-7.5-3.4c-2.5,0-4.9,0-6.7,0c-4.6,4.1-9,7.9-13.3,11.8c-0.6,0.5,0.5,4.4,1.4,4.4c3.1,0.2,5.5,1.3,7.5,3.5
	c1.1,1.3,2.5,2.4,3.7,3.5c2.5,0,4.9,0,7.4,0c1.9,2.2,4,4,7.5,3.3c1.2-0.2,2.4,0.1,3.6-0.1c2.7-0.4,4.3,1.1,6.1,2.5
	c2.3,1.7,7.8,1.1,9.7-0.8c2.4-2.3,5.2-4.2,6.9-6.8c-1.1-1.4-2.3-2.6-3.1-4c-0.7-1.3,0.5-3.9,1.8-4.2c1.2-0.2,2.6-0.4,3.5,0.1
	c6.5,3.2,6.4,3.2,9.4,3.2c3,0,5.9,0.1,8.9,0.3c0.5,0,0.9,0.7,1.3,1.1c1.2,1.3,2.6,2.1,4.6,1.9c1.8-0.2,3.6-0.1,5.4,0
	c1.1,0,2.9-0.1,3.3,0.5c1.9,2.5,5.4,2.1,7.4,3.6c3.7,2.7,6.8,6.2,10,9.2c1,0,1.6,0.1,2.2,0c1.4-0.3,2.4,0.1,3,1.3
	c0.1,0.3-0.1,0.9-0.4,1.1c-2.1,2-4.2,3.9-6.4,5.9c0.9,0.6,1.9,1.6,2.8,1.6c6.6,0.1,13.2,0,19.9,0.2c0.9,0,2.1,1,2.7,1.8
	c1.3,1.5,3.1,1.6,4.8,1.4c5.1-0.7,7.4,2.6,9.4,5.9c0.4,0.7,0,2.2-0.6,3c-1.2,1.5-4,2.6-0.8,4.8c1,0.6,1.6,1.6,2.6,2.3
	c1.5,1.1,3.2,0.9,4.9,0.2c1.3-0.6,1.7-1.6,1.3-2.8c-0.4-1.3,0-2.3,1.3-2.8c1.6-0.7,3.4-1,4.9,0.2c2.2,1.9,4.3,3.9,6.4,5.8
	c0.3,0.3,1.2,0.2,1.7,0.1c2.2-0.3,3.4,0.8,3.7,2.6c0.3,1.6,0,3.3,0.1,5c0.1,1.5,1.2,2.3,3.8,2.4c1.3,0.1,2.4,0.2,3,1.4
	c0.5,1-1.3,2-3.7,2c-3,0-5.9,0-8.3,0c-2.2,1.9-3.9,3.4-5.7,5c0.5,0.5,0.9,1.1,1.4,1.2c2.3,0.3,4.8,0.8,7,0.4
	c4.4-0.7,6.4,2.1,8.9,4.4c0.3,0.2,0.5,0.9,0.3,1.1c-0.3,0.5-0.8,1.1-1.2,1.1c-3,0.1-6,0.1-9,0.1c-2.6,0-3.2,0.1-3.6,2.6
	c-0.3,1.7-0.8,3-2,4.3c-1.6,1.6-1.3,2.7,0.7,3.1c1.1,0.3,2.8-0.1,3.4,0.4c2.1,2.2,4.5,3.2,7.8,3c2.3-0.2,4.7-0.6,7,0.5
	c0.5,0.2,0.8,0.8,1.2,1.2c-1.3,1.2-2.7,2.3-3.8,3.6c-0.9,1-1.7,1.4-3,1.4c-4.1,0.2-5.9,3.1-7.5,5.9c-0.4,0.7,0.3,2,0.7,3
	c0.2,0.4,0.9,1,1.3,1c3.8-0.4,5.6,1,5.2,4.6c2.8,2.8,5.7,5.6,8.8,8.8c3.3,0,6.9,0.1,10.4-0.1c0.7,0,1.4-1.2,2.1-1.9
	c0-0.1-0.8-1-1.2-1.1c-2.4-0.2-4.8,0-7.1-0.3c-1.4-0.2-1.9-1.3-1.6-2.1c0.2-0.5,0.7-1,1.3-1.1c0.5-0.2,1.2,0,1.8,0
	c1.8,0,3.8,0.4,5.4-0.1c1.5-0.6,2.6-2.1,3.7-3.1c8.6,0,17,0,25.2,0c2,1.4,3.1,3.3,6,3.3c10.2-0.2,20.5-0.1,30.7,0
	c3.6,0,7.1,0.2,10.7,0.4c0.5,0,1,0.7,1.2,1.1c0.2,0.5,0.2,1.1,0.1,1.6c-0.3,1.3,0,2.2,1.2,2.9c1.6,0.9,3.9,0.9,4.9,0
	c2.2-1.9,4.3-3.9,6.4-5.9c1.2-0.1,2.4,0,3.5-0.2c3.5-0.7,5.6,1.2,7.4,3.3c1.3-1.1,2.6-2.1,3.8-3.2c0.5,0.5,1,0.9,1.4,1.3
	c1.2,1.2,2.5,2.3,4.6,1.9c3.4-0.5,7.1,1.3,10.1-1.6c0.8-0.7,1.9-1.7,2.8-1.7c9-0.1,18.1-0.1,27.1,0c0.9,0,1.9,1.1,2.8,1.7
	c1.7,1.2,1.6,1.2,3.8-0.5c2.3-1.7,4.3-1.9,6.2-0.3c0.9,0.7,1.6,1.6,2.3,2.4c2-1.4,3-3.7,6-3.5c3,0.2,6-0.1,9,0.1
	c2.7,0.2,4.2-1.2,6.1-2.6c2.5-1.7,5.6-0.9,8.4-0.4c1.7,2.6,4.8,2.6,7.4,3.6c1,0.4,1.7,1.5,2.6,2.3c1.3-0.9,2.6-1.8,4.2-2.9
	c6.8,0,14,0,22.1,0c0.8,4.4,4.9,3.2,8.5,3.3c0.6,0,1.2,0,1.7,0c2.2-2,4.3-4,6.5-5.9c0.8-0.7,1.4-0.1,2.6,0.9c3.1,2.5,8.2,2.3,11-0.1
	c0.4-0.4,0.9-0.7,1.3-1.2c0.6-0.8,1.8-1.7,1.6-2.3c-0.2-1.2-1.6-1.3-2.9-1.3c-49.4,0-98.7,0-148.1,0c-19.9,0-39.7,0-59.6-0.1
	c-1.3,0-1.9-1.3-1.4-2.1c0.3-0.5,0.8-1.1,1.3-1.1c9-0.1,18.1,0,27.1,0c2.7,0,3.1,0,3.4-2.7c0.3-2.5,1-3.8,4.1-4
	c3.4-0.2,4.4-3.4,2.2-5.8c-0.8-0.8-2.4-1.6-2.4-2.4c0-2.4-0.5-4.3-2.7-5.7c-0.4-0.3-1-0.9-0.9-1.1c0.6-1.1,1.6-1.5,2.9-1.5
	c21.7,0,43.3,0,65,0c0.6,0,1.3-0.2,1.8,0c1,0.5,2,1.2,2.7,2c1.3,1.7,3.2,0.9,4.9,1.3c1.4,0.3,1.9,1.4,1.4,2.1
	c-0.3,0.4-0.8,1.1-1.3,1.1c-4.8,0.1-9.6,0-14.3,0c-1.4,1.2-2.7,2.2-4,3.3c-2.7-0.5-4.4,1-6.1,2.6c-0.7,0.6-2.1,0.7-3.2,0.7
	c-2.4,0.1-4.8,0-7.2,0c-1.8,0-2.9,1.1-2.8,3.3c0,1.3,0,2.4-1.3,2.8c-1.6,0.5-3.3,0.8-4.9,1.3c-0.4,0.1-0.9,0.8-0.8,1.1
	c0.2,0.5,0.8,1.1,1.2,1.1c19.2,0.2,38.4,0.3,57.6,0.2c1.7,0,2.5-1.9,2.3-3.8c-0.1-1.1,0.4-2.2,1.7-2.6c1.1-0.3,2.6-0.5,3.5-0.1
	c1.5,0.8,2.5,2.5,4,3.1c1.5,0.6,3.5-0.3,4.8,1.3c1,1.3,2.4,2.2,4.5,2.1c7.8-0.1,15.6-0.1,23-0.1c3.9-3.3,3.9-3.3,6.2-3.3
	c4.8,0,9.6-0.1,14.4,0.1c1,0,2.2,0.9,2.8,1.6c1.8,2.1,4.2,1.5,6.5,1.7c2,0.2,3.4-0.5,4.6-1.9c0.8-1,1.7-1.5,3-1.5
	c1.8,0.1,3.6,0,5.6,0c2.5-2.1,5-4.4,7.6-6.7c3.4-0.2,7.3,1.1,9.7-2.4c0.7-1,1.5-0.6,2.6,0.6c0.7,0.8,1.8,1.8,2.7,1.8
	c4.7-0.1,9.5,0.8,14.2-0.5c0.5-0.1,1.2-0.8,1.1-1.1c0-0.4-0.7-1.1-1.2-1.1c-3.5-0.2-7.1-0.2-10.6-0.6c-0.8-0.1-2.3-1.3-2.1-1.8
	c0.3-1.2,1.6-1.5,2.8-1.5c6.6,0,13.2-0.1,19.9,0.1c1.3,0,2,1.2,1.7,2c-0.2,0.5-0.8,1.2-1.2,1.1c-3.4-0.2-5.8,0.4-5.6,4.3
	c0,0.8-1,1.9-1.9,2.5c-1.3,1-1.7,1.6-0.7,2.4c0.4,0.3,0.9,0.8,1.4,0.8c6,0.1,12-0.1,18.1,0.1c2.7,0.1,4.2-1.3,6.1-2.7
	c1.2-0.9,3.5-0.5,4.7-1.4c1.9-1.3,3.3-2.9,6-2.8c5.4,0.2,10.8,0.2,16.2,0c2.9-0.1,4.1,1.7,6,3.3c10.6,0,21.4,0,32.3,0
	c1.3,1.2,2.7,2.2,3.9,3.4c0.8,0.8,1.8,1.7,1.8,2.6c-0.2,4,2.5,4.2,5.7,4.1c7.2-0.1,14.4,0,21.4,0c2.5,2.2,2.5,2.2,6.6,0.6
	c0.4-0.1,1.1-0.2,1.2-0.1c1.9,2.6,4.7,3.1,7.8,2.7c1.1-0.1,2.5-0.2,3.2-0.8c2.3-1.8,4.2-4,6.5-5.7c0.7-0.5,2.6-0.5,3.5,0
	c1.5,0.8,2.6,2.2,3.8,3.1c6.2,0,12.2,0,18.1,0c1.9-1.4,3-3.4,5.9-3.3c9.6,0.2,19.3,0.1,28.9,0.1c1.2,0,2-0.6,2.9-1.5
	c2.8-2.9,6.3-1.9,9.7-1.2c1.9,2.6,4.7,2.8,7.8,2.8c10.8-0.1,21.7,0,32.5,0c1.8,0,3.6-0.1,5.4,0c0.5,0,1,0.4,1.5,0.7
	c1.1,0.8,0.6,1.3-0.5,2.4c-2,1.9-4.7,3.3-5.7,6.1c-0.4,1.2,0.9,4,2.1,4c4.8,0,9.6,0,14.2,0c1.1-1,1.9-1.8,2.8-2.5
	c1.5-1.2,3.3-1,4.8-0.3c1,0.5,1.6,1.9,2.6,2.2c4,1.1,8.1,1.1,12.1,0.1c1.9-2.6,4.7-3,7.8-2.8c2.4,0.2,4.8,0,7.2,0
	c10.2,0,20.5-0.2,30.7,0.1c3.4,0.1,5.6-1,7.7-3.2c0.7-0.7,3.8-0.1,4.8,0.8c0.5,0.4,0.8,0.8,1.3,1.2c1.9,1.6,4.3,1.6,6.2,0
	c0.9-0.7,1.8-1.4,2.6-2.1c2.4,0,4.8-0.2,7.2,0c2.7,0.3,4.3-1.1,6.1-2.5c2.2-1.7,7.3-1.2,9.7,0.8c1.1,0.9,2,1.7,2.5,1
	c2-2.6,4.7-2.8,7.9-2.7c10.8,0.1,21.7-0.1,32.5,0.1c2.9,0,4.1-1.9,5.9-3.3c1.2,1,2.5,2.1,3.8,3.1c1.8-1.2,2.8-3.4,5.7-3.3
	c5.4,0.2,10.8-0.1,16.1-0.2c0.4,0,1-0.7,1.2-1.1c0.1-0.3-0.3-0.8-0.7-1.1c-0.8-0.8-2.4-1.6-2.4-2.4c0-2.3-0.5-4.3-2.7-5.7
	c-0.4-0.3-1-0.9-0.9-1.1c0.6-1.1,1.6-1.6,2.9-1.6c4.8,0,9.6-0.2,14.4,0.1c2.9,0.1,4-1.9,5.9-3.3c5.9,0,11.9,0,17.9,0
	c2.1-1.9,4-3.6,7.5-3.6c3.4,0,5.1,1.9,7.4,3.3c1.8-1.5,3-3.3,5.9-3.2c7.8,0.2,15.6,0.1,23.5,0c1.1,0,2.9,0.1,3.3-0.5
	c2.5-3.4,6.1-2.8,9.6-2.8c3.6,0,7.2,0.1,10.8-0.1c1-0.1,1.9-1.1,2.8-1.7c1.6-1.1,1.8-1.3,3.8,0.6c2.1,2,4.5,0.8,6.7,1.3
	c1.4,0.3,2.4-0.1,3.2-1.1c0.7-0.9,1.6-1.7,2.2-2.3c6.4,0,12.4,0,18.4,0c3.8-3.3,3.8-3.3,5.8-3.3c6.6,0,13.2,0,19.4,0
	c2-1.7,3.3-3.5,6.2-3.4c5.4,0.2,10.8,0.1,16.2,0c1.1,0,2.7,0.1,3.3-0.5c5.5-5.5,12.5-1.7,18.7-2.7c1.7-0.3,3.6,0,5.4-0.1
	c0.5,0,1.2-0.3,1.5-0.7c2.4-3.6,6.2-2.6,9.7-2.6c4.2-0.1,8.4-0.2,12.6,0c3,0.2,4-2,5.9-3.3c4.7,0,9.5,0,14.2,0
	c1.4-1.2,2.7-2.3,4-3.4c1.8,0,3.6,0.1,5.4,0c1.4-0.1,2.4,0.1,3,1.3c0.8,1.4,0.6,3.5-0.4,4.5c-2.5,2.3-4.6,4.9-8.9,4.3
	c-3.5-0.4-7.1,0.1-10.6,0.4c-1.3,0.1-1.7,1.5-1.3,2.8c7.8,0,15.6,0,23.5,0c3.8-3.3,3.8-3.3,7.5-3.3c4.8,0,9.6,0,14.1,0
	c2-1.6,3.1-3.6,6.1-3.4c3.6,0.2,7.2,0.1,10.8,0.1c1.2,0,2.1-0.6,2.9-1.6c1.1-1.4,2.7-1.8,4.6-1.8c2.9-0.1,5.9,0.7,8.8-0.5
	c2.3-3.6,6.1-2.6,9.6-2.8c4-0.1,8.5,1.1,11.2-3.1c2.4-0.1,4.8-0.4,7.1-0.1c3.5,0.4,5.6-1.2,7.5-3.4c4.3,0,8.5-0.2,12.7,0.1
	c2.3,0.1,3.2-1.3,4.3-2.4c1.5-1.4,3.3-0.7,4.9-1.2c0.5-0.2,1.3-1,1.2-1.1c-0.6-0.7-1.3-1.9-2-1.9c-3.6-0.2-7.2,0.1-10.8-0.1
	c-2.8-0.2-4.2,1.4-6.1,2.7c-2,1.4-4.3,1-5.9-1.1c3-2.7,6-5.5,8.8-8.1c1.8-0.4,3.8,0.6,5-1.3c1.5-2.1,3.7-2.4,6.2-2.2
	c1.7,0.1,3.5,0.3,4.8-1.3c1.1-1.3,2.5-2.1,4.5-2c2.9,0.1,5.9-0.2,8.8-0.3c4.1-4.8,9.9-2.2,14.9-2.9c1.1-0.2,2.2-0.4,3.3-0.6
	c2.1-2,4.3-3.9,5.5-5c3.6-2,6.7,0.2,9.4-2c3.2-2.5,3.3-2.4,6.1-2.4c2.4,0,4.8,0,7.3,0c1.9-2.2,4-4,7.5-3.4c1.1,0.2,2.3-0.1,3.6-0.2
	c5.9-5.4,11.8-10.9,17.7-16.4c2.4,0,4.8,0,7.2,0c1.7-1.6,3.4-3.1,5.4-5c0-3-0.1-6.3,0.1-9.6c0.1-0.7,1.7-2.1,2.3-1.9
	c4.1,0.9,5.4-4.4,9.4-3.4c1.4-1,2.8-1.9,4.1-3c1.8-1.5,3.9-2.9,5-4.7c1.8-3,5.6-1.3,7.6-3.5c1.1-1.2,2.3-2.3,4.5-2.2
	c2.2,0.2,4.3,0,6.5,0V911c-0.8,0.8-1.6,1.2-2.8,1.3c-1.3,0.1-2.4-0.1-3.2-0.9C1812.8,910.6,1813.2,910,1814.5,909z M118.2,535.3
	c-0.2,0.5-0.8,1.1-1.2,1.1c-2.4,0.1-4.7,0.1-7.1,0.1c-2.4,0-4.8,0.2-7.1-0.1c-1.3-0.2-1.9-1.3-1.5-2.1c0.2-0.5,0.8-1.1,1.2-1.1
	c4.7-0.1,9.5-0.2,14.2,0C118,533.3,118.6,534.5,118.2,535.3z M136.2,538.6c-0.2,0.5-0.8,1.1-1.2,1.1c-1.8,0.1-3.5,0.1-5.3,0.1
	c-1.8,0-3.6,0.2-5.3-0.1c-1.3-0.3-1.9-1.3-1.4-2.1c0.2-0.5,0.8-1.1,1.2-1.1c3.5-0.1,7.1-0.2,10.6,0
	C136.1,536.7,136.7,537.9,136.2,538.6z M175.3,592.5c-1.2,1.1-2.4,2.3-3.7,3.4c-0.2,0.2-0.8-0.1-1.2-0.2c-1.1-0.6-1.2-1.6-1.2-2.8
	c0-1.2,0.1-2.2,1.4-2.7c1-0.4,2.2-0.7,3.2-0.5c1,0.2,1.8,1,2.7,1.6C176.2,591.7,175.7,592.1,175.3,592.5z M320.4,891.2
	c-0.3,0.4-0.8,1-1.3,1.1c-1.2,0.2-2.3,0-3.5,0c-1.2,0-2.4,0.3-3.5-0.1c-1.4-0.4-1.8-1.4-1.3-2.2c0.3-0.4,0.8-1,1.3-1.1
	c2.3-0.1,4.7-0.3,7,0C320.5,889.3,320.9,890.5,320.4,891.2z M525.7,1048.1c-6,2.4-9.8-0.7-13.2-4.6c0.5-2.4-0.4-4.1-2.5-5.5
	c-0.4-0.3-0.6-0.7-0.9-1.1c0.9-0.5,1.9-1.4,2.8-1.5c2.9-0.2,5.8-0.1,8.8-0.1c1.6,0,2.7,1.4,2.7,3.3c0,1.6,0,3.2,0,4.9
	c1.2,1.1,2.4,2.3,3.5,3.5C526.9,1047,526.2,1047.9,525.7,1048.1z M530.7,1033.8c-2.1-2.6-6.9-1.3-8.6-4.6c-2.3-0.2-4.6-0.3-6.9-0.5
	c-0.5,0-1-0.4-1.5-0.6c-1.4-0.8-1-1.3,0.2-2.4c1.9-1.8,4.5-3.1,5.4-5.7c-2.6-2.1-4.4-5.4-8.7-4.7c-0.3,0.1-1-0.7-1.2-1.1
	c-0.1-0.3,0.1-1,0.4-1.1c3.3-1.4,6.6-1.8,9.7,0.5c0.9,0.7,1.8,1.8,2.7,1.9c4.2,0.2,8.3,0.1,12.5,0.1c1.2,0,2,0.7,3,1.4
	c3.6,2.8,4.2,2.9,7.3,0.2c2-1.7,4.2-1.6,6.5-1.7c1.9-0.1,3.3,0.4,4.6,1.7c2.4,2.4,5.1,4.6,7.5,7c1,1,3.2,1.8,2.5,3.4
	c-0.8,1.9-3.1,1.1-4.8,1.1c-3.1,0.1-3.1,0-6.1-2.3c-2.6-2-5.7-1.2-6.5,1.8c-1,3.9-1,3.9-4,3.8c-2.4,0-4.8,0.1-7.1,0
	c-1.3,0-2.1,0.4-3,1.4C533.4,1034.5,532.3,1035.8,530.7,1033.8z M564.6,1055.2c-8.3,0.2-16.6,0.1-25,0.1c-2-1.8-3.8-4.1-7.3-3.4
	c-0.3,0.1-1-0.6-1.2-1.1c-0.4-0.8,0.1-2,1.5-2.1c3.5-0.3,7.1-0.1,10.7-0.1c1.9,2.2,3.9,3.7,7.4,3.4c4.7-0.4,9.5-0.1,14.2,0
	c0.4,0,1,0.7,1.2,1.1C566.5,1053.9,565.9,1055.1,564.6,1055.2z M786.4,1037.5c-0.3,0.4-0.8,1.1-1.3,1.1c-3.6,0.1-7.2,0-10.8,0
	c-1.9,2.2-4,3.9-7.5,3.4c-2.3-0.3-4.7-0.1-6.8-0.1c-2-1.5-3.1-3.5-6-3.4c-5.4,0.2-10.8,0.2-16.2,0c-2.7-0.1-4.1,1.6-6.1,2.6
	c-3.1,1.5-6.7,1.9-9.7-0.8c-3-2.7-6.3-1.9-9.7-1.1c-2.3,3.6-6.1,2.7-9.6,2.7c-1.9,0-3.3-3.5-2.1-5.2c0.3-0.5,0.8-1.1,1.3-1.1
	c11.3-0.1,22.7-0.3,34-0.2c2.9,0,4-1.9,5.8-3.3c2.1,1.7,3.9,3.5,7.4,3.3c8.4-0.4,16.8-0.1,25.1-0.1c3.6,0,7.2-0.2,10.8,0.1
	C786.4,1035.5,786.9,1036.7,786.4,1037.5z M804.5,1037.5c-0.3,0.5-0.8,1-1.2,1.1c-1.1,0.2-2.3,0.1-3.5,0.1c-1.2,0-2.4,0.2-3.5-0.1
	c-1.3-0.4-1.8-1.4-1.4-2.1c0.3-0.5,0.8-1.1,1.2-1.1c2.3-0.1,4.7-0.3,7,0C804.4,1035.5,804.9,1036.7,804.5,1037.5z"/>
</svg>
