<?xml version="1.0" encoding="utf-8"?>
<!-- Generator: Adobe Illustrator 25.0.1, SVG Export Plug-In . SVG Version: 6.00 Build 0)  -->
<svg version="1.1" id="Layer_1" xmlns="http://www.w3.org/2000/svg" xmlns:xlink="http://www.w3.org/1999/xlink" x="0px" y="0px"
	 viewBox="0 0 1890.9 1088" style="enable-background:new 0 0 1890.9 1088;" xml:space="preserve">
<style type="text/css">
	.st0{fill:#049DD9;}
</style>
<path class="st0" d="M0,904.3c0.1,0.3,0.4,0.8,0.6,1c2.1-0.2,4-1.3,5.5-2.7C13.9,896,22.4,889.9,31,884c1.9-1.2,3.8-2.5,5.9-3.3
	c2.3,0.8,4.3,2.3,7.1,2.3c5.1,0,10.2-0.8,15.3-1.4c2.4-0.2,5.1-0.3,6.8,1c1.2,2.2,1.7,4.6,2.9,6.7c5.5-1.3,10.7-3.7,16.2-5.1
	c3.5-0.7,7,3.1,3.5,5.5c-9.1,8.3-18.2,16.5-27.7,24.6c-1.8,1.9-5.2,3.9-4.5,6.4c1-0.3,1.9-0.8,2.8-1.3c5.7-4.2,10.6-9.1,15.9-13.5
	c4.7-3.8,8.6-8.2,13.9-11.5c-2.6,4.1-6.9,7.4-9.7,11.4c-6,7.9-14.3,14.5-21.6,21.7c-3.7,4-6.8,8.4-10.4,12.5
	c-4.7,5.3-7.9,11.4-9.5,17.4c0.6,3.1,2.4,5.7,3,8.8c0.7,6.1-1.7,12.6-1.9,18.8c-0.1,3.2,1.2,7,5.3,7.8C51,994.6,59,991,65,987.5
	c6.3-4.6,12-9.8,17.8-14.8c5.3-4.5,9.6-9.5,14.8-14c10.6-8.9,19.6-18.8,30-27.8c6.4-5.6,12-11.8,18.5-17.3
	c13.4-11.9,24.9-25.4,41-35c6.2-2.9,13-4.6,18.8-8.1c5-3.6,9.8-7.4,14.1-11.6c5.1-5.9,8.6-12.4,14.2-18c7.5-7,12.8-15.5,21.6-21.7
	c6.4-4.2,10.4-10,15.3-15.2c4.3-4.8,10.9-7.7,15.9-12c2.5-2.5,3.9-5.5,6-8.1c3.7-3.8,8.1-7.2,11.6-11.2c2.4-2.8,4.2-5.8,6.4-8.6
	c3.7-3.9,8.2-7.2,12-11c2.5-3.4,4.3-7.2,7.5-10.3c3.5-2.9,7.4-5.4,11.5-7.6c1.4,2,1.8,4.6,1.5,7.1c-0.5,2.8-3,5.2-5.1,7.5
	c-4,4.5-10.1,7.5-14.1,12c-3.7,4.1-7.7,8-11.5,12c-4.1,4-4.2,9.6-9.2,13.1c-3.8,3-8.2,5.6-11.8,8.8c-2.8,3.4-3.4,7.5-6.3,10.9
	c-3.8,4.2-8.6,8.1-11,13c-2.2,4.4-5.9,8.3-9.7,12.1c-6.5,6.6-12.3,13.6-19.4,19.8c-8.3,6.9-16.7,13.8-24.8,20.8
	c-5,4-6.4,9.5-10.3,14c-7.4,8.9-16,17.5-20.8,27.4c-0.6,3.3-3,7.4-0.4,10c2.6,4,9.3,3.1,14.2,4.2c-1.5,2.4-3.3,4.7-5,7.1
	c2.7-2.4,5.4-4.9,8.6-7c4.4-0.9,8.8-0.6,13.1-0.9c-0.5,2.1-1.9,4.1-3.2,6c2.5-2,4.9-4.2,7.6-6c1-0.1,2-0.2,2.9-0.1
	c-1.5,2.5-3.1,5.1-4.3,7.7c2.8-2.5,5-5.3,7.4-8c4.3-1,8.7-1.6,13-2.2c-3.6,3.5-9.1,5.9-11.1,10.2c6.8-4.2,12-10.1,19.6-13.4
	c4.6-1.7,9.3-3.2,14-3.8c5.1-0.9,9.6,2,10.8,5.6c1.6,5.7-2.3,11.8-6.9,16.8c-11.7,12.9-24.2,25.3-36.4,37.9
	c-11.1,11.3-16.6,25-28.2,36.1c-27,24.8-54.2,49.5-81.6,74.1h39c1.9-1.7,3.7-3.3,5.6-5c14.7-13.6,29.8-26.9,44.5-40.5
	c9.7-8.4,18.2-17.6,28.5-25.7c12.9-9.9,24.1-21.1,37.5-30.6c0,2.2-0.6,4.5,0.8,6.3c1-2.6,1.4-5.2,2.3-7.8c1.5-2.9,5.3-4.6,8.2-6.5
	c3.1-1.9,6.6-3.4,10.2-3.7c1.9,0.2,3,1.5,3.3,3c-4.2,4.7-11.4,7-15.4,11.8c5.2-2.6,9.8-6,15-8.7c-0.1,3.4-1.5,6.8-2.9,10.2
	c-2.7,6.7-6.7,13.2-11.3,19.5c-4.2,5.5-9.6,10.5-14.4,15.7c-5.3,5.5-10.2,11.2-15.8,16.5c-5.3,4.9-10,10.2-14.5,15.6
	c-3.9,4.6-6.1,9.9-8.5,14.9c-1.8,4-2.6,8.2-5.4,12c-0.8,1.1-1.6,2.1-2.5,3.1h54.9c11.1-9.1,20.6-19.4,31.7-28.5
	c8-6,16.8-11.2,25.4-16.6c-0.1,1-0.2,2-0.3,3c3.8-4.2,7-8.7,11.1-12.7c8.8-8.9,18-17.6,26.8-26.5c8.5-8.3,16.2-17.2,25.9-24.7
	c5.4-4.1,10.6-8.9,17.2-11.4c3.9-2.4,9.1-0.2,7.5,3.6c-0.5,9.8-5.9,19.6-12,28.7c-3.4,5.4-9.1,9.7-13.9,14.5
	c-5.9,5.7-12.1,11.2-18,16.8c-9.1,8.9-20.2,16.5-31.6,23.3c-2.9,2-6.3,3.6-8.5,6.2c7.3-3,13.3-7.8,20.2-11.4
	c-3.4,4-7.9,7.4-11.8,11.1c-8.7,8.2-17.6,16.3-26.4,24.5h72.2c6.6-6.5,13-13,19.4-19.6c14.2-13.3,26.8-27.5,41.1-40.7
	c6.6-5.8,10.1-13.1,16-19.3c4.5-4.8,8.4-10.3,14.4-14.1c-0.3,1-0.6,2-0.9,3c1.3-1,2.9-2,3.4-3.4c-3-1.2-7.4-1.3-8.7-4.2
	c-0.5-2.3-0.9-5.1,1.3-7.4c3.2-4.1,11.7-6,14.5-2.2c0.7,0.6,2.1,1.8,2.8,2.4c4-2.7,7.3-6,10.3-9.4c2.2-2.6,5.8-4,8.7-6
	c3.5-2.4,6.7-5,9.6-7.8c6.8-6.5,14.1-12.7,21.5-18.8c9.5-8.3,18.5-17,28.7-24.8c-3.3,4.7-7.5,9.1-11.2,13.7c-1,1.4-2.3,2.9-2.6,4.5
	c0.4,1.2,1.3,2.2,1.8,3.4c-2.9,3.2-6.5,5.9-9,9.2c-5,6.6-11.9,12.3-16.7,19c-5.8,7.9-11.7,15.8-18.4,23.3c-4.7,4.8-10.1,9.2-14.8,14
	c-3.6,3.6-7.1,7.4-11.2,10.7c-5.3,4.5-11,8.6-15.9,13.4c-6.5,7.5-11.1,15.7-16.7,23.5c-3,1.7-3.6-1.6-5.2-2.7
	c-1,2.3,1.4,3.9,1.8,5.9c-3.7,3.4-7.9,6.5-11.6,9.9c-3.1,3.7-2,8.3-5.1,12.1c-3.9,4.4-8.5,8.5-13,12.5h14.7c1.3-0.8,2.7-1.5,4-2.3
	c6-3.4,12.5-6.2,18.4-9.9c1.3-1.4,2-3.1,3.1-4.6c3.2-2,6.9-3.2,10.2-5.1c5.9-2.5,10.1-7,15.6-10c5.5-3.1,11.1-6.4,14.7-11.1
	c-1.8-1.1-3.9-2-5.4-3.3c-1-2.2-0.8-5.3,1.5-7.5c2.3-2.3,6.1-3.1,9.1-2.8c1.5,0.5,2.6,1.4,3.9,2.2c4.3-2.3,7.8-5.6,11.3-8.5
	c6.9-5.8,10.5-13.8,18.8-18.7c-6.5,8.9-15.1,16.9-20.7,26.2c-0.6,1.4-0.6,3-1.5,4.4c-12.8,11.8-27.3,22.4-39,34.9
	c-2.3,2.4,0.4,4.8,3.4,4.5c5.2-3.1,8.9-7.4,12.8-11.3c8.1-8.4,17.1-16.1,26-23.9c5.4-4.9,10.3-10.1,15.4-15.2
	c5.2-5.3,11-10.2,15.7-15.8c-11.2,7-20.4,16.1-31.2,23.5c2.2-5.7,6.8-10.8,11.1-15.8c5.7-6.3,10.6-13,17.6-18.5
	c3.5-3,7.9-5.3,10.4-8.9c-2.5,1.5-4.8,3.1-7.2,4.6c2.2-3.1,5.3-5.8,8.1-8.6c7.9-7.4,14.4-15.5,22.3-22.8c7.2-6.5,14.3-13,21.1-19.7
	c6.7-6,13.5-12,20.1-18c2.1-1.9,4.7-3.4,7.5-4.1c0.3,1.8-1.2,3.6-2.4,5.3c-5.4,6.9-11.9,13.3-17.3,20.2c-0.8,1.6,2.3,2.3,3.2,0.8
	c5.7-8,11.9-15.7,18.4-23.3c4.3-4.7,9.7-8.5,14.8-12.5c3.1-2.4,6-5,9.5-7.1c-2.7,3.4-6.1,6.4-8.1,10c6-5.1,11-10.7,16.3-16.2
	c5.4-5.7,11.2-11.1,16.6-16.8c4.6-4.9,9.9-9.3,14.8-14c4.4-3.5,5.9-8.3,9.6-12.2c3.7-3.9,8.3-7.1,12.1-10.9c0.4-0.4,0.8-0.8,1.2-1.2
	c5,2.1,10,4.2,14.9,6.5c-1.4,1.3-2.9,2.7-4.2,4.1c-10.8,10.6-19.7,22.2-31.4,32.3c-4.3,4-7.4,8.6-11.2,12.9
	c-5.7,5.1-13.1,9.7-15.9,16.3l3.5-1.6c2-1.1,3.4-2.9,5-4.3c9.4-9.6,18.7-19.2,27.5-29.1c9.8-9.7,19.7-19.4,29.6-29.1
	c5.2,2.6,10.2,5.3,15,8.5c2.5,2.4,3.4,6.2,6.4,8.1c3.9,2.6,6.4,6.8,10.3,9.4c6.2,3.3,14,3.6,21,5.4c2.6,0.7,3.6,3.3,5.4,4.9
	c2.4,3.3,6.8,4.3,11.1,4.2c5.3-0.2,9.4,2.5,13.7,4.4c6.9,3.4,14.8,5.1,21.4,8.9c4,1.9,7.5,4.8,12,5.7c3.6,0.7,7.3,1.2,10.8,2.1
	c4,1.6,7,4.5,10.8,6.2c6.1,3,13.1,4.7,19,7.9c4.7,3.1,8.6,7.6,14.5,9.1c8.4,1.9,15.9,5.5,23,9.5c6.5,3.6,15.2,2.8,21.9,5.9
	c7.8,5.5,13.9,13,22.3,17.7c4.4,2.6,9.6,4.3,12.9,8.3c-4.9,2.1-8.6-1-12.9-1.4c-3.9-0.8-8.1-0.6-12-1.4c-4-1.2-7.2-4.2-11.6-4.5
	c-0.5,0.4-1.3,1.1-1.8,1.4c0.8,4.7,7.1,3.2,10.3,5.1c1,1.7,1.6,3.8,2.9,5.4c2.4,1.7,5.7,2,8.6,2.8c12.7,3,23,9.8,34.3,15.2
	c5,2.2,8.4,6.6,11.9,10.5c4.3,4.9,11.4,6.5,15.5,11.6c-7.4,1.5-11.6-4.5-17.9-5.7c-5.4-0.4-11-0.9-16.9,1.3
	c7.9,7.7,19.1,11.1,28.8,16.5c3.7,2.4,6.2,6.2,9.7,8.8c12.6,9.6,27.5,16.4,43.7,20.4c2.9,0.7,5.9,1.4,8.6,2.5
	c11.9,5.2,24.7,8.9,36.6,14.1c5.2,2.4,10.7,4.6,17.3,3.6c-0.5-1-1.1-2.1-1.6-3.1c7,0.6,13.6,2.2,20.6,2.6
	c-4.9-4.8-11.6-7.2-17.9-10.2c-13.4-5.9-25.8-13.3-39.3-19.1c-4.6-1.9-9.9-2.4-14.3-4.6c-2.8-1.3-2.6-5.3-2.6-8.4
	c3.1-2.4,6.6-2.3,9.4-1.5c13.4,3.6,25.3,10.3,39,13.3c11,2.7,22.2,5,34.2,4.8c-1.8-2.1-2.2-5.4-3.4-8c2.3-1,4.8-1.8,6.9-1.3
	c12.6,1.7,23.5,6.9,35.5,9.7c5.7,1.8,12.5-0.5,18.9-1.3c5.4-1,10.2,0.3,15.3,0.7c5.7,0.6,11.7-0.1,17.7-0.7
	c7.1-0.7,14.5-2.9,21.3-2.3c16.2,0.9,32.8,0,49.1,0.6c10.3,0,19.1,3.6,28.9,5c10.7,1.5,21.2,5.1,33.2,1.9c-2.2-1-4.8-1.1-7-2.1
	c6-1.8,12.1-3.2,18-3.7c2.3,1.9-1.5,2.8-3.2,3.9c1.5,0.3,3,1.3,4.5-0.7c4.1-3.9,8.1-8,13.1-10.5c5.3-4.7,11.1-3.4,16.3-3.3
	c11.5-0.1,20,6.4,29.4,10.4c7.5,2.9,14.6,6.6,22.1,9.5c1.4,0.8,3.3,0.2,5-0.4c-1.8-4.1-5.9-5.5-9.4-7.6c-5.7-3.3-10.2-8.4-16.8-10.4
	c-5.4-2-12.1-2.2-15.7-6.9c-3-2.7-5.9-5.5-8.2-8.9c2.3-1.2,4.7-1.5,6.6-0.5c7.5,1.5,13.2,5.8,18.9,10c7.5,5.4,17.2,7.6,24.4,13.4
	c3.9,3.1,9,4.5,14,5.8c7.9,1.8,17.7,2,26.3-4c3.3-4.2,1.2-8.6-0.8-11.4c-6.3-6.9-16.6-8.7-23.1-15.4c-3.8-3.9-8.5-7.2-10.9-12.3
	c1.8-2.8,4.6-5,6.3-8c0-2.3-1.6-3.5-3.2-4.5c-10.3-6.2-21.4-11.3-31.7-17.4c-3.1-6.4-3.2-14.4-3.4-22.1c6.6-3.8,14.6-9.9,21.3-8.1
	c7.3,1.7,14.3,4.2,21.6,5.9c3.3,0.6,6.6,1.9,10.4,0.5c-4.3-4.9-11.6-5.8-16.5-9.9c-6.7-3.2-0.5-5.6,2.3-7.1c5.9-2.6,12-5,17.9-5.5
	c12.2-1,24.7-1.7,37.2-6.8c1.2-1.9,2.2-3.9,3.2-6c3.9,1.3,3.7,7.5,8.1,7.7c1.8-2.3,3.4-4.6,5.2-6.9c16.7,3.2,32,9.4,48,14
	c7.1,3,16.2-2,24.2-2.4c5.3,2.4,9.5,6.2,14.7,8.8c5,0.6,10.7-1.2,15.7-0.4c5.7,1.3,10.4,4.3,15.7,6.2c9.4,2.4,20,1.5,29.9,2.7
	c7,2,10.7,8.6,17.4,11.1c4.8,3,11.6,0.2,17.4,0.7c4.9,3.3,8.5,8.8,15.1,9.6c3.9,0.7,8.3,1.6,12.7-0.7c0.9-2.1,2.1-4.7,0.8-6.4
	c-2.3-3.7-5.5-7.2-10-8.1c-5.1,0-10.5,2.3-15.6,2.6c-5.2-2.8-6.7-9.8-12-12.7c-6.3-2-13.7-1.6-20.2-3.1c-5.8-3.4-8.4-10.5-14.3-13.8
	c-8.9-6.4-22-5.4-31.2-11.2c-8.5-5-17.7-9.1-25.6-14.9c-6.7-4.5-14.8-7.1-21.3-12c-3.4-3.1-1.2-10.7,4-13.5c5.5-2.8,11.1-3.3,16.7-5
	c5.6-1.5,10.9-5.2,16.1-8.8c6.6-5.9,9.8-14.1,13.9-21.5c2.9-2.1,5.8-3,8.9-4.9c1,1.3,2.1,2.5,3.1,3.8c5.1,6.7,11.6,12.8,16.5,19.6
	c4.9,6.5,10.6,12.8,14.9,19.6c3.6,6.1,10.1,10.8,14.8,16.3c5.4,6.5,12.5,11.8,18.9,17.5c3.3,2.6,6.3,5.8,10.1,7.9
	c-2.3-7.8-7.9-15.2-12.1-22.7c-3.6-6.6-8-13-12-19.5c-3.2-5.6-4.2-11.4-7.4-16.9c-3.7-4.8-10.9-5.7-14.9-10.3
	c-5-4.5-7.3-10.1-10.7-15.2c-3.1-4.5-7.5-8.3-11.2-12.4c-1.8-2.3-3.6-4.7-5.3-7.1c1.8-0.9,3.5-1.9,5.2-3.1c-0.8-2.1-1.7-4-2.6-6
	c1.5,2.3,3,4.6,4.6,6.9c5.5,8.4,9.5,17.5,17.4,24.9c4.6,4.2,9.1,9.5,15.3,11.7c0.2-8.8-9.7-17-12.2-25.7c4.6,2.4,7,6.9,10.1,10.5
	c4.5,6.3,10.7,11.6,16.1,17.3c2.3,3.1,4,6.6,4.3,9.9c-1.4,1.2-5.4-0.4-5.3,2.1c1.9,3.9,5.2,7.5,6.8,11.5c0.7,1.3,1,2.8,2.2,4
	c4.2,3,10.1,2,13.6,6c3.4,3.5,6.5,7.2,10.1,10.7c1,0.8,2,1.8,3.3,2c0.7-0.7,1.2-1.5,1.9-2.1c7.9,5.7,14.2,12.9,21.1,19.5
	c5.6,5.4,9.4,11.7,14.1,17.5c4.6,4.6,10.3,8.2,16,11.5c9.4,4.9,13.4,14.6,22.2,20.2c2.6,0.9,6.9,3.1,7.7,0.7
	c-0.9-5.8-2.2-11.8-1.5-17.4c1.3-0.5,3-0.4,4.4-0.8v-4.5c-1.5-3.1-3.3-6.3-2.7-9.3c0.7-0.7,1.6-1.1,2.7-1.2v-43.2
	c-1-1.2-1.9-2.4-2.9-3.5c-5.8-7-9.9-14.7-15.6-21.7c-5.4-6.7-9.7-13.7-14.5-20.6c-5.9-8.5-12-17-18.3-25.3
	c-5.1-7.4-10.9-14.7-14.9-22.4c-0.6-2.9-0.4-6.3,2.5-7.4c7,2.4,13.5,7.2,17.7,12.9c9.1,11.9,17,24.2,26.4,36
	c7.1,8.8,13.5,17.9,19.7,27.1v-40.5c-1.1-1.5-2.2-3-3.1-4.5c-3.9-5.7-6.4-11.8-9.3-17.7c-1.2-2.1-0.8-4.3-0.5-6.1
	c2.1,0,5.3,0.1,5.4,3.5c2.4,3.4,5,6.7,7.5,10.1v-409c-4.4-3.9-8.4-8.5-9.7-13.5c2.4-3,8.6-3.2,8.4-7.8c0.2-2.1,0.8-4,1.4-5.9v-2.3
	c-2.1-3-6.7-4-9.8-5.6c-7.2-3-12.3-9-17.2-14.3c-1.9-2.3-4.3-5.3-3.1-7.6c1.8-0.6,3.8-0.7,5.9-0.5c0.9,1.5,2.6,4.4,3.5,5.9
	c1.3,1.7,4.8,2.6,6.4,1.7c4.1-2.8,8.2-5.6,12-8.7c0.6-0.5,1-1.1,1.2-1.8c0.4,0,0.8-0.1,1.1-0.2v-1.3c-0.3,0-0.5-0.1-0.8-0.1
	c0.2-1.8-0.3-3.7-1.1-5.5c-1.3-3-2.6-5.9-4.2-8.8c-1-2.3-4.1-3.4-6.4-4.1c-2.4-1.2-4.7-0.6-7-0.8c-4.1-1.8-7.7-4.5-11.9-6.1
	c-4.8-0.1-9.2,1.4-12,4.2c-1.3,1.7-1.4,4.6-3.8,5.5c-4.1-3.4-6.4-7.8-9.7-11.7c-3.6-4.6-8.3-8.4-12.4-12.7c-2.2-2.1-1.5-4.8-1.6-6.8
	c2.2,0.5,4.4,1.4,6.6,1.6c4.9,0,6.9-5.3,4.2-9.3c-2.6-3.2-7-3.6-10.6-4.5c-3-3.7-3.3-7.8-4.9-11.6c-5-3.6-10.4-6.6-15.3-10.3
	c-1.7-1.3-3.4-2.7-5.3-3.7c-1.7-0.2-3.4,0.2-5.2-0.3c-1.9-0.7-3.8-1.8-5.8-2.5c-1,0.3-2,0.7-3,1c-2.5-0.5-5.5-2.8-4.5-4.9
	c2.2,0.6,4.3,1.4,6.5,1.9c0.2-0.4,0.5-1.3,0.7-1.7c-0.5-0.6-1.1-1.2-1.8-1.7c1.8,0.3,3.6,0.7,5.4,1.2c7.3,3.2,13.1,9.3,22,9.8
	c3.3,0.2,6.6,0.6,9.9,0.9c2.5,1,5,1.9,7.5,2.5c1.2-0.2,2.2-0.6,3.2-1.1c3.3,0.5,6.5,1,9.8,1.6c1.4,0.2,2.7,0.3,4.1,0.5
	c-0.2,0.6-0.3,1.2-0.3,1.8c0.9,3.2,3.3,6.2,4.6,9.4c-1,1.1-2.3,1.9-3.2,3.1c-0.4,2.8-0.3,7,3.6,9.3c1,0.7,3,2.1,4,2.7
	c3-0.9,5.6-2,8.7-2.7c2,5,5.6,9.7,8.7,14.5c1.7,2.5,2,5.4,4.1,7.8c2.3,1,4-0.5,6.1-0.6c3.7,2.4,7,5.3,10.8,7.5
	c0.1,0.1,0.3,0.1,0.4,0.2v-61.8c-1.2-1.4-2.5-2.8-3.7-4.2c-0.1-0.2-0.3-0.3-0.4-0.5c1.4-0.1,2.7-0.5,4.1-0.8v-10.8
	c-1.1-0.1-2.2-0.1-3.4,0c-6.1,0.3-7.5-7-13.4-7.3c-1.6,0.1-3.1,0.4-4.7,0.6c-0.6-0.5-1.3-1-2-1.5c-2.3-1.3-4.9-1.8-7.2-3
	c-1.6-2.5,0.4-4.9-1.6-7.4c-3.5-5-7.8-9.7-11.6-14.6c-5.5-6.8-10.3-14-16.6-20.4c-4.2-4.2-6.8-9.2-10.5-13.6
	c-3.7-5-8.5-9.4-12.5-14.2c-4.1-4.8-7-10.1-10.8-15.1c-3.3-4.4-6.6-8.8-9.6-13.3c-3.6-6.2-3.6-12.9-8.7-18.8
	c-4-4.1-8.7-7.6-13.1-11.4c-4-3.5-7.1-7.7-10.9-11.4c-1.3-1.4-3-0.6-4.4-0.8c-2.5-1.8-4.3-4.2-6.6-6.2c-2.6-2.5-6-3.9-8.8-6.1
	c-3.6-4.9-1.1-9.5-1.4-14.2c-3.7-7.9-9.9-15.4-17.2-21.8c-2-1.8-4.3-0.6-6.5-1.1c-2.6-0.9-5.1-2.4-7.8-3.3c0.5,4.6,4.3,9,6.7,13.4
	c2.6,4.1,3.9,8.4,6.5,12.4c5,3.8,10.6,6.8,14.9,11.2c3.6,2.9,5.5,6.6,8,9.9c3.9,5.4,8.3,10.6,12.3,16c1.5,2,3.1,4.3,3.1,6.6
	c-0.5,2.1-2.7,3.2-3.3,5.3c1.8,5.7,5.9,11.5,11.8,15.4c3.8,2.6,8.3,4,12,6.7c7.2,6.1,12.2,13.7,18.6,20.3
	c7.9,6.4,13.5,14.5,20.1,21.8c6.8,7.3,11.4,15.6,17.5,23.2c4.4,5.5,8.8,11.1,12,17c2.4,4.4,5.5,8.7,9.7,12.3
	c3.1,2.2,5.1,5.2,5.7,8.3c-5.2,0.2-10.3,0.3-15.5,0.9c-8.5,0.5-14-5.2-21-7.7c-9.4-2.4-19.7-2.2-29.2-4.2c-2.6-0.4-5.1-0.9-7.6-1.4
	c-1.2-1.1-2.7-1.9-4.8-1.2c-0.3-0.1-0.5-0.1-0.7,0c-4.3-1.1-8.6-2.2-12.9-3.2c-5-6.1-12.1-11.1-18.5-16c-3.3-2.3-5.5-5.5-7.8-8.4
	c-2.6-3.4-5.4-6.8-6.8-10.6c-0.6-4.5-6.3-6.6-8.4-10.6c-2.4-3.1-4.6-6.7-3.9-9.9c-0.2-3,3.3-4,4.3-6.4c0.6-4.8-4.3-10.4-9.8-12.8
	c-2.2-1-3.9,0.2-5,1.3c-1.5,0.7-2.7,3.4-5.3,1.8c-2.9-2.3-6.1-4.5-8.5-7.3c-7.7-9.9-13.3-20.7-21.7-30.3c-2-0.3-3.9-0.1-5.9-0.2
	c-1.7-0.7-3.2-2-4.6-3.2c-7.4-6.8-14-14.3-21-21.5c-1.5-1.8-3.5-3.3-5.6-4.4c1.4,4.4,4.7,8.5,7.5,12.6c10,13.1,20.2,26.1,29.4,39.5
	c1.3,2.1,4,2.2,6.1,3c1.8,0.4,3.1,1.8,4.2,3.1c-0.2,1-1.5,1.2-2.3,1.8c-2.2,1-2.9,3.4-4.9,4.6c-2.1,0.4-4.4,0.6-6.7,0.2
	c-3-1.8-4.8-4.8-6.8-7.3c-2-2.9-2.7-6.2-4.8-9.1c-3.2-3.6-9.1-4.6-11.2-9.1c-3.4-4.6-7.5-8.8-11.1-13.3c-4.2-6.2-12.5-10-16.5-16.3
	c-3.4-6.2-8.5-11.8-11.3-18.1c-0.9-1.7-1.7-3.5-3.1-5c-5.8-5.8-12.9-10.3-19.2-15.6c-6.8-5.8-14-11.7-18-19
	c-2.3-0.4-4.5-0.2-6.7-0.4c-3.3-3.8-3.9-8.3-6.5-12.4c-3.9-6-9.2-11.7-15.8-15.9c-2.5-1.7-5.3-3.1-7.6-5.1c-0.7-1.1-1.2-2.2-1.7-3.3
	h-513.4c1.2,1.5,2.3,3,3.5,4.5c-0.2,2.9-0.4,5.9-2.4,8.7c-1.5,2.5-3.1,5-4.8,7.5c-4-1.3-8.2-2.2-12.5-2.9c0.6-1.6,1.2-3.2,1.7-4.8
	c0.7-2.9,0.8-6.2-1.4-8.3c-1.5-1.7-4.8,0.3-6.9-0.5c0.1-1.4,0.5-2.8,1-4.2h-55.5c-2.5,3.3-5.4,6.4-8.3,9.5
	c-4.1-1.2-8.2-2.5-12.3-3.7c1-1.9,2-3.9,3-5.8H912c-0.7,1.1-1.3,2.3-2,3.4c-4.6-1-9.3-1.8-14.2-2c3.6,2.6,7.4,4.6,11.5,6.4
	c-1.6,2.5-3.3,5.1-5.1,7.5c-4.5,2.6-10,4.2-13.8,7.7c-12.6,11.6-24.2,23.9-34.3,36.8c-0.9,1.2-1,2.5-0.8,3.6c1.6-0.4,3-1,4.3-1.9
	c8.6-5.9,16.8-12.2,26.1-17.3c-0.5,1.6-1.2,3.2-2.2,4.8c-4.4,7.1-9.5,13.9-14,21c-3.7,5.9-8.6,11.5-12.8,17.2
	c-2.2,3.1-5.3,5.7-7.7,8.7c-2.6,3-4.2,6.3-6,9.5c-5.4,10.2-10.8,20.4-18.2,30c-5.2,6.5-11.9,12.5-15.2,19.7c-1,1.8-1.8,3.6-2.7,5.4
	c-2.7-0.7-5.4-1.1-8.4-1.2c1.6,2.2,3.6,4,5.9,5.4c0,0.1-0.1,0.1-0.1,0.2c-1.9,1.6-4.2,3-6,4.7c-2.8-1.1-5.8-2.1-9-2.7
	c-0.5,0.2-1.6,0.7-2.1,0.9c2,2.6,4.2,4.8,6.4,7.1c-0.5,0.6-1.1,1.2-1.6,1.7c-3.5-0.6-6.8-1.6-10-2.9c1.7-1.8,3-3.9,4.5-5.9
	c3-4.5,6.9-8.7,10.2-13c-0.8-1.2-2.8-1.8-2.8-3.3c1.3-1.9,3.8-1,5.7-1c4-4.1,6.8-8.9,10.7-13.1c-1.9,0-3.8-0.2-5.7,0.4
	c-5.5,5.4-10.2,11.3-16.3,16.3c-1.1,1-2.5,1.7-4.1,1.9c-0.6-0.5-1.1-1.2-1.5-1.9c1.1-4.5,4.6-9.1,3-13.5c-2.2-0.2-4,1.5-5.6,2.6
	c-5.8,4.3-12,8.2-17.5,12.8c-2.3,2.2-5.9,4-9.2,3.4c-0.4,0-0.8,0-1.2-0.1c-1.8-0.9-3.6-1.9-5.3-3c-1-1.5-1.4-3.4-0.8-5.3
	c0-3.3,4.2-5.6,7.5-7.2c4.5-1.9,7.8,0.5,11.3,1.5c2.4-3.2,3.7-6.7,5-10.1c-2.8,1.8-5.4,4.1-8.8,5c-3.8,0.5-7.7-0.6-9.7-3
	c-0.8-2.3-0.2-4.9-0.6-7.3c-1.4-0.3-3-0.5-4.5,0.1c-1.1,1.3-1.9,2.7-3.3,3.8c-1.8,1-3.1-0.4-3.9-1.3c0.5-1.8,1.6-3.6,2.3-5.4
	c-4.6-0.8-9.3-1.1-14.1-1.5c-2.9-0.1-6.6,0.2-8.8,2.4c1.9,0.8,4.7,1,5.5,2.8c0.8,2.2,1.7,4.9-0.4,7.1c-0.8,1.1-2,2.1-3.4,2.8
	c-3.9-2-7.7-4-11.5-6.1c0-0.5,0-1-0.1-1.5c-0.4,0.2-0.9,0.5-1.3,0.7c-2.2-1.3-4.4-2.6-6.6-4c-8.2-5.3-16.8-10.2-25.8-14.5
	c-9.9-5.2-21.3-7.9-31.5-12.6c-10.6-5.4-21.4-10.5-31.8-16.4c-10-5.5-21.1-10.5-34.6-7.7c-3.7,0.9-8.2,1.5-10.8,5.5
	c-5.4,6.3-9.9,16.5-5.3,21.9c7.3,10.3,16.9,18.4,24.9,28.1c7.3,8.2,13,17.8,21.2,25.2c4.1,2.8,9,4.9,11.8,9.3
	c-5.7-0.6-10.1-3.5-15.5-4.8c-3.4,0.4-5.7,4.6-8.6,6.6c-3.2-0.1-5.9-1.2-8.7-2.2c-11.1-3.8-22-7.8-32.4-12.7
	c-9.9-4.1-19.1-9.6-29.8-12.4c-0.8,0.4-2.3,1.2-3.1,1.5c1.3,3.4,4.6,4.9,7.5,6.6c6.9,4,14.2,7.8,19.2,14.1
	c-10.1,2.4-19.1-0.6-27.7-2.9c-48.7-15.4-96.9-31.8-145.4-47.6c-13.5-4-26.5-9-40.3-12.4c-9.7-2.4-19.2-5.8-30.1-4.8
	c-1.8,0-3.5,1.2-5.1,2.5c0.5,2.3,1.5,4.6,3.5,5.6c9.6,7.4,21.2,12.2,33.2,16c2.9,1.2,6.2,1.8,8.7,3.6c0.3,2.5-0.2,5.4,0.9,7.6
	c10.6,5.2,22.7,7.8,33.9,12.1c33.5,11.1,66.1,23.8,99.5,35c20.1,7.4,41,13.5,60.1,22.7c9.3,3.5,18.6,7.2,27.7,11.1
	c-6.4,4.7-12,10-15.9,16.1c-0.1,0.1-0.2,0.2-0.3,0.4c-15.5-5.2-30.9-10.8-46.5-15.9c-13.5-5.4-28.1-8.5-41.3-14.5
	c-30.1-10-59.4-21.3-89-32.3c-14.8-4.7-28.3-11.9-44.6-13.5c-7.4,0.3-15.7,1.2-22.6,7.3c-1.2,1.8-2.8,4.2-2.1,5.9
	c1.7,5,4.7,9.1,7.7,13.1c6,9.3,17.3,12.3,26.5,17.7c7.2,4.3,15.5,7,22.7,11.2c3.4,1.7,5.1,6.5,2.7,10.8c-4.3,2-8.8,2.8-13.2,4.2
	c6.2,8.7,10.6,18.9,15.9,28.3c7.5,6.1,17.1,9.5,25,15c9.5,6.8,19.5,13.4,26,23.4c3.1,2.9,1.8,8.2-1,12.2c-9.2,7.2-20.7,9.8-29.7,7.6
	c-11.5-3-22.3-7.5-31.9-13.7c-10.5-7.5-22.3-13.3-32.9-20.7c-3.6-1.9-6.8-5.1-11.3-5.6c-6.9,0-14.6,3.7-20.9,1.4
	c-6.7-0.9-12-6.1-19.6-4.3c-0.8,3.3,1.1,5.5,2.7,7.5c4,5.1,8.5,9.8,11.3,15.8c-2.6,1.5-5.2,2.8-7.8,4.2c3.2,5,7,9.4,10.2,14.4
	c7.4,11.6,18.8,19.2,28.9,28c12.8,10.6,26.6,19.9,39.6,30.1c4.3,3.5,8.9,6.9,10.6,12.8c-1.9,1.8-4.2,3-6.5,2.9
	c-3.1-0.9-5.1-3.4-7.6-5.3c-5.6-5.2-12.7-8.3-18.6-13.1c-3.8-3-7.7-5.9-11.9-8.4c-11.4-6.8-21.1-16.1-33.5-21.7
	c-2.9-2.5-9.4-1.6-12.4,2.9c-2,4.5,0.2,8.1,2.9,10.3c8.1,7,15,15.2,22.3,22.9c9.1,7.9,17.3,16.7,26.5,24.4
	c7.9,6.7,15.4,13.8,23.3,20.4c3.8,3.2,8,6.1,11,10.2c-3,1.9-5.9,3.7-8.9,5.6c0.5,3.7,2.4,6.7,4.5,9.2c3,3.8,9.9,0.6,13.3,3.9
	c8.7,5.1,13.6,14.3,21,20.8c4.4,4.4,9.6,7.8,14.4,11.7c-4.2,4.3-7.2,9.2-11.2,13.7c-3.5,3.6-4.8,7.9-7.6,11.7
	c-4.8,4.7-11.3,8.5-14.9,14c-3.8,5.1-8.2,9.9-12.6,14.7c-1-0.2-2.1-0.3-3.1-0.5c-7.5-2.3-14.2-6.4-22.7-6.6c-2.7,1.3-1.3,2.9-0.2,4
	c5.8,4.3,11.8,8.3,17.5,12.6c-4.1,5-7.6,10.4-12.4,15.1c-5.6,6.8-11.5,13.4-17.9,19.8c-1.8,1.8-4,4-6.9,4.3
	c-2.6-0.3-2.1-3.6-4.9-3.6c-2.2,1.7-4.2,3.6-6.8,4.9c-3.7,1.9-7.5,3.9-10.4,6.7c-1.6,3.4-1.1,6.9-3,10.2c-3.2,2.7-7.5,4-11.2,6.1
	c-4.7,3.5-8.2,7.8-11.5,12.1c-2.7,3.6-6.7,6.5-10.2,9.7c-3.9,5.5-6.1,11.5-9.9,17.1c-2.9,3.8-7.2,6.8-10.8,10.1
	c-4.3,4.2-8,8.8-12.4,13c-6,5.9-13.3,11-18.1,17.5c-4.1,5.6-7.7,11.3-12.8,16.5c-3.1,2.9-6.7,5.4-9.4,8.6
	c-3.7,4.1-7.7,8.8-13.7,10.6c-0.3-0.1-0.9-0.4-1.2-0.5c0.1-2.4,1.2-4.9,3.1-7c3.4-3.7,7.5-7.1,10-11.2c5.1-8,13.5-14.4,19.2-22.1
	c5.2-7.2,12.5-13.4,18-20.5c4.5-6.1,10.6-11.5,14.6-17.8c3.2-5,8.3-9.2,12.8-13.5c5.3-5.2,9.2-11.2,13.4-16.9
	c4.5-5.4,11.5-9.5,14.9-15.5c3.1-4.8,6.1-9.6,10.2-14.1c2.5-2.7,5.1-5.3,7.3-8.2c2.6-3.2,4.2-6.7,6.6-9.9c2.6-3.4,5.4-6.7,8.2-9.9
	c2.6-2.9,5.9-5.4,8.1-8.5c3.7-5.2,6.3-10.8,8.6-16.3c-5.9,4-11.1,8.6-15.8,13.5c-5.9,6.2-10.2,13.1-16.2,19.2
	c-5.5,5.6-11.2,11.1-16.3,17c-6.2,7.2-13.7,13.8-19.5,21.3c-3.9,4.7-8.7,8.9-13.1,13.4c-9.5,10.2-17.6,21.2-28,31
	c-7.6,7.5-14.9,15.2-22.6,22.6c-8.5,9.5-17.1,19.1-26.8,27.9c-7,6.4-14,12.7-21,19c-3.9,3.6-9.1,6.1-12.7,9.9
	c-7.3,7.2-15.4,13.9-21.8,21.6c-14.9,17.2-33.1,32.6-46.6,50.5c-13,14.9-21.8,31.3-33.5,46.7c-5.2,7.3-11.3,14.6-13.7,22.6
	c4.1-2,8.2-4.2,12.7-5.2c0.4,3.5,0.5,7,1.2,10.4c0.8,2,2.3,3.6,3.3,5.5c-1.1,3.6-4.8,6.5-7.5,9.5C14.9,891.5,7.3,897.8,0,904.3z
	 M440.6,1087.1c-0.4,0.2-1.1,0.5-1.4,0.7c2.4-3.8,5.8-7.2,10.1-9.8c1.7-1.7,5.7-2,6.3,0C450.9,1081.4,445.9,1084.5,440.6,1087.1z
	 M553,983.9c-0.5,0.2-1.6,0.8-2.2,1c0.6-3.3,3.9-5.6,7.3-7.5C557.5,979.9,556.2,982.7,553,983.9z M1828.3,247.9
	c4.4-0.5,8.5-0.3,12.4,0.4c-0.7,1.9-0.9,4-0.4,6.2c0.3,0.7,0.7,1.4,1.2,2c-0.4,0-0.7,0-1.1,0c-1.9-0.3-4-0.4-6.1-0.7
	c-0.5-1.4-1-2.8-1.8-4.1c-1.9-1.3-3.9-2.4-6-3.4C1827.2,248.1,1827.7,248,1828.3,247.9z M1794.4,237.3c-3.1,0.9-6.9,2.3-9.1,0.3
	c-0.4-0.3-1.2-0.8-1.6-1C1787.7,235.2,1791.6,235.4,1794.4,237.3z M1700.8,832.4c2.3,2.7,4.7,5.4,7,8.2c-3.2-2.1-6.8-3.8-8.2-7.6
	C1700,832.8,1700.4,832.6,1700.8,832.4z M1525.4,96.5c1.6,2.2,3.5,4.6,3.9,7c0.1,0.4,0.2,1.1,0.2,1.4c-4.8-0.5-8-4.9-10.8-8.2
	C1519,94.8,1523.7,94.8,1525.4,96.5z M1479.9,932.9c4.5-6.1,12.3-9.1,18.1-8c7,0.9,13.8,2.7,20.4,4.5c2.1,0.6,3.9,1.6,5.4,3.2
	c-8.9,3.7-17.9,5-26.8,6.6c-5.8,0.4-13,2.5-17-1.4C1478.9,936.7,1478.3,934.6,1479.9,932.9z M1473.3,926.4c0.4,0.9,1.1,2.6,1.4,3.5
	c-1,0.6-2.9,1.9-3.9,2.5c-0.4-0.9-1.1-2.6-1.4-3.5C1470.4,928.2,1472.4,927,1473.3,926.4z M1458,919.5c3.2,1.3,2.9,6.6-0.4,9.5
	c-4.8,3.4-8.1-1.5-10.7-3.9c-0.3-0.4-0.9-1.2-1.3-1.6C1449.7,921.2,1454,919.4,1458,919.5z M1390.6,888.2c0.4,0.3,1.2,0.8,1.6,1.1
	c-2.3,4.2-6.3,7.3-10.4,9.3l-0.8-0.6l-0.7-0.7C1383.1,893.7,1386.2,889.2,1390.6,888.2z M1367,882.2c3.5-5.7,8.4-2.9,8.9,0.7
	c-1.2,5.1-4.9,11-10.3,12.5l-0.7-0.6C1363.1,891.7,1364.9,886.2,1367,882.2z M1108,75.4c1.2,1.3,2.4,2.7,3.6,4
	c-3.2,3.8-6.4,7.6-10.6,10.8c-3.2,2.6-6.6,5.1-10,7.5c-6.5-1-12.9-2.2-19.2-3.5c-10.8-0.3-21.1-2-31.4-3.9c1-1.9,1.9-3.9,2.7-5.9
	c2.1-7.3,3.2-14.6,3.7-21.8c0.1-2.9-0.6-5.7-2.4-8c1,0.3,2.1,0.6,3.1,0.8c7.9,2.1,15,5.6,22.8,7.8C1083,66.9,1095.5,71.2,1108,75.4z
	 M1094.9,168.8c-2.1-0.1-4.2-0.7-6.2-1c-4.8-1.2-9.6-2.4-14.1-4.1c-2.9-1.2-3.1-4.5-3.8-6.9c-1-2.8-0.8-6.2,1.7-9.2
	c0.3-0.6,0.7-1.2,1.2-1.8c6.5,2.5,13.4,4.3,20,6.6c4.2,2.6,9,5.4,11,10.4c-0.2,0.3-0.3,0.7-0.5,1c-0.2,1.1-1,2-1.9,2.7
	c-2.4,1.1-5.1,1.3-7.6,2.1C1094.7,168.6,1094.8,168.7,1094.9,168.8z M1034.6,12.2c0,0.4,0,1.1,0,1.4c-2.8-0.4-4.6-2.7-5.2-4.9
	C1031.3,9.8,1033.1,10.9,1034.6,12.2z M1029.8,17.3c4.5,1.3,9.3,1.6,13.5,4.2c4.7,2.9,9,6.2,13.2,9.5c-8.1-2-15.9-4.8-24.3-6.1
	c-0.5-4-3-7.4-4.8-10.9C1028.3,15.1,1029.1,16.2,1029.8,17.3z M1027.2,112.5c3.9,0.7,8.2,0.9,12.1,1.5c4.1,0.1,7.1,2.6,8.5,6
	c-4.6,3.8-9.2,0.8-13.2,0.2c-3.2-1-6.6-1.8-10-2.4C1025.3,116,1026.2,114.3,1027.2,112.5z M1033.5,127.4c0.5,0.1,1.1,0.3,1.6,0.4
	c-3,0.3-6,0.5-8.9,0.5c-1.4,0.1-2.4-0.7-3.3-1.4c0-0.6,0-1.2,0-1.8C1026.3,126,1029.8,126.8,1033.5,127.4z M991.2,37.1
	c0.5,0.2,1,0.3,1.5,0.5c-0.8,0.3-1.5,0.6-2.2,1C990.7,38.1,990.9,37.6,991.2,37.1z M988.2,10.5c-0.7,1.8-1.7,3.5-2.8,5.1
	c-0.5-0.1-1.1-0.2-1.6-0.3C985.1,13.7,986.6,12.1,988.2,10.5z M967.9,173.8c6.2-5.2,13.4-10.2,21.7-12.5c2.6,0.4,3.1,2.7,3.9,4.4
	c1.4,4.5,3.7,9.2,2.1,14.2c-1.5,3-3.3,5.8-5.5,8.6c-7.4-2.3-14.4-5.5-21.1-9c-1.6-0.9-3.2-1.6-5-2.3
	C965.3,176.1,966.6,175,967.9,173.8z M954.4,892.4c12.3,2.3,22.2,9.1,32.7,14.4c4.7,1.8,10.1,2.2,14.9,3.9
	c9.1,3.4,16.6,9.1,25.5,12.9c6.7,1.8,14.1,1.8,20.7,3.8c8.4,3.2,16.1,7.4,24.7,10.3c8.8,2.2,14.6,9,23.2,11.6
	c9.9,3.4,18.8,8.7,29.2,11.1c15.6,3.8,28.4,12.6,41.8,20.1c13.4,5.3,26.4,11.3,38.8,18.2c10.7,5.5,24.7,8.5,29.2,21.1
	c-0.7,0.6-2.2,1.8-2.9,2.4c-9.1,2.2-15.8-2.3-21.9-6.5c-8.8-6.7-19-11.5-28.6-17.1c-4.8-2.7-9.2-5.9-14.1-8.4
	c-7.9-4.3-18.2-4-26.7-7.3c-18.2-5.4-33.6-15.6-49.6-24.6c-6.5-3.4-14.8-3.5-21.6-6.3c-6.4-3.7-12.8-7.5-19.9-10.1
	c-11.4-4.2-20.7-11.6-31.6-16.7c-4.3-2-9.2-2.7-13.7-4.4c-7.1-1.9-12.6-6.5-19.3-9c-3.7-1.2-7.9-1.4-11.6-2.5c-5-2-9.3-5.1-14.4-6.9
	c-3.3-1.6-7.1-2.5-9.7-5c-0.8-0.9-1.5-2-2-3.3C949.6,892.7,952.2,891.6,954.4,892.4z M908.1,25.4c2.7-4.7,5.3-9.5,7.9-14.2
	c3.4,1.2,6.8,2.2,10.2,3.3c-0.7,0.7-1.3,1.3-2,2c-5.7,5.5-10.8,11.3-16.1,17c-1.9,2-3.8,4.1-6.4,5.6
	C902.1,34.3,905.8,29.9,908.1,25.4z M922.8,878.2c3.2,1.2,6,3.3,7.3,6.6l-0.5,1.1c-5.7-0.5-9.6-4-14.1-6.5c-4.9-2.7-11.5-3.4-14.9-8
	c-0.6-1.1-1.1-2.3-1.3-3.6C907,871.3,914.7,875.2,922.8,878.2z M893.8,875.7c3.7,1.6,7.6,3.3,9.4,7.1c-1.7,1.2-3.4,0.7-4.8,0.1
	c-7.3-3.2-14.2-7.1-22.1-9.3c-4.6-1.1-8.7-3.5-10.9-7.7c-1.2-1.1-0.8-2.2,0.9-3.2C875.9,866.2,884.5,871.5,893.8,875.7z
	 M854.3,117.6c4.2-2,8.8-1.8,12.7-0.8c2.2,2.2,3.4,5.1,6,7c3.6,1,8.4-0.3,11.4,1.7c4.8,2.2,3.9,8.1,1.4,12.2
	c-5.3,3.3-11.4,5.7-16.1,9.7c-0.1,0-0.2-0.1-0.3-0.1c-4.9-2-9.2-5.2-15.1-5.3c-1-0.1-2.1-0.2-3.2-0.3c-0.3-2-0.3-4.1-0.7-6
	c-1-2.2-3.5-3.6-4.2-5.9C845.6,125.4,848.3,119.5,854.3,117.6z M827.8,143.4c1.2-6.8,14.5-9.9,17.5-4.1c0.6,0.6,1,1.4,1.2,2.2
	c-6.4-0.2-13.2,0.8-19.1,5.5C827.3,145.7,827.5,144.4,827.8,143.4z M806.2,817.3c-2.5,1.6-5,3.2-7.5,4.7c2.7,4.9,6,9.5,11.1,11.9
	c10.4,5.1,20.6,10.6,31.3,15.1c7.2,3.3,14.8,6.3,20,12.3c-5-0.2-10.3-0.2-14.7-2c-5.5-2.3-10.6-5.3-15.9-7.9
	c-5-2.6-10.8-3.7-15.7-6.5c-7.7-4.3-15.1-9.4-24.4-10.9c-4.6-0.9-9.7-0.2-14.5-0.4c7.5-8.4,15.2-16.6,23-24.8
	C802.2,810.8,805.6,812.9,806.2,817.3z M797.5,808.3c-7.8,8.4-15.8,16.8-23.4,25.3c-1.7-0.2-3.4-0.5-5-1.1c1.9-2.1,3.9-4.1,5.9-6.1
	c6.7-6.5,13.3-13.1,20.2-19.5C795.9,807.4,796.7,807.8,797.5,808.3z M772.1,793.2c0.4,0.2,0.8,0.5,1.2,0.7c-1.8,1.8-3.8,3.6-5.7,5.4
	l-0.6,0.4C768.3,797.4,770.2,795.3,772.1,793.2z M763.6,165.8c-0.8-0.4-1.6-0.8-2.3-1.2C762.5,164.5,763.5,164.8,763.6,165.8z
	 M762.7,813.2c-1-1-2.2-1.8-3.1-2.9c-1.2-1.8,1.4-4.5,4-4.7c1.8,0.3,3.2,1.2,4.7,1.9c3.2-3.6,6.5-7,9.9-10.4c4.5,2.9,9,5.7,13.7,8.2
	c-1.8,1.8-3.6,3.6-5.4,5.4c-2.7,1.5-2.7,3.8-3.3,5.8c-2,1.2-4.2,2.1-5.9,3.7c-4,3.6-7.8,7.4-11.7,11.1c-5.3-1.7-10.7-4.1-17.1-2
	c-0.7,0.1-1.3,0.4-1.9,0.7c1.7-1.8,3.2-3.7,4.7-5.7C754.4,820.2,758.8,816.9,762.7,813.2z M748.5,791.3l0.8-0.5l0.9,0.1l0.4,0.6
	l-0.2,0.7l-0.8,0.5l-0.9-0.1l-0.4-0.6L748.5,791.3z M749.4,815.8l0.5,3.2c-0.2,0.3-0.7,0.9-0.9,1.2c-2.4,2-6,1.1-6.9-0.7
	C741.2,816.7,747.2,813.5,749.4,815.8z M704.4,863.4c-0.8,2.7-2.7,5.8-6.2,7.1c-2.8,0.9-6.2,2.3-9.1,1.8c-4.4-0.6-7.7-3.4-7.5-7.3
	c-0.7-3,1.9-6.1,4.6-8.5c3.7-1.9,8.2-3.4,12.1-2.7C702.8,855.1,705.8,859.2,704.4,863.4z M714.4,844.6c-4.5,2.1-9.9,1.9-13.5-0.1
	c-4.9-3-6.1-9.4-2.3-14.5c7.1,3.9,15.2,6.3,23,9C719.8,841.4,717.3,843.4,714.4,844.6z M720.9,781.3c2-1.3,4.1-2.9,6.5-3.1
	c5-0.3,9.3,3,8.3,7.2c-0.8,2.1-2.1,4.6-4.9,5.5c-2.7,1.1-6.2,2-8.8,1c-3-1-3.5-4-3.7-6.5C718.5,784,718.8,782.2,720.9,781.3z
	 M716.2,824c5.5,0.6,7.4,5.4,7.7,9.5c0,0.2-0.1,0.5-0.1,0.7c-6.6-2.2-12.8-5.1-19.6-6.9c-0.6-0.1-1.1-0.3-1.6-0.5
	C706.6,824.2,711.8,822.9,716.2,824z M677,787.1c2.8-3.3,6.9-6.5,11.8-6.7c6.1-0.9,12.5,2,11.9,7.4c1.9,4.7-3.1,10.5-9.1,12.4
	c-4.6,2-9.4,0.9-13-0.9C675.7,796.1,674.7,791.4,677,787.1z M677.4,825.8c1.8,1.2,1,3.9-1.2,5.1c-3.5,2.7-6.5,0.2-7.2-2.1
	c0.6-1.7,2-3.2,3.8-4.3C674.7,824,676.2,825,677.4,825.8z M663.6,815.9c3,1.4,6,2.5,9.1,3.7c-0.2,1.9-1.7,4-3.7,4.9
	c-3.2,2-7,1.4-8.6-0.7C658.2,821.1,660.5,817.8,663.6,815.9z M653.9,865.8c1.6-0.6,3.6-1.2,4.8-0.1c0.3,0.8,0.5,1.7,0.5,2.7
	c-0.5,0.3-1.6,1-2.2,1.4C653.5,872.2,651.2,867.7,653.9,865.8z M656.7,910.6c-1.6,2.6-3.1,5.3-5.1,7.9c-1.1,0.1-1.8-0.3-2.1-1
	C651.5,915,653.8,912.6,656.7,910.6z M629.7,899.8l-0.7,0.5c-0.5-1-0.9-2-1.2-3.1c1.4-0.2,2.9-0.3,4.3-0.4
	C631.7,897.9,631,899.1,629.7,899.8z M623.1,831.8c0.5-2.5,2.5-5.1,5.4-6.4c4.4-2.1,9.2-0.5,10.9,2.5c1.5,2.7-0.2,6.4-3.5,8.4
	c-2.9,1-6.2,1.9-9.1,1.4C625.2,836.2,622.1,834.5,623.1,831.8z M609,237c3.1,1.9,6.1,3.9,9.1,5.9c0.2,0.1,0.3,0.2,0.5,0.4
	c-0.9,0.7-1.9,1.3-2.9,1.8c-4.1,1.7-9.5-1.1-8.5-4.8C607.1,239.1,607.9,238,609,237z M592.2,230c0-0.7,0.4-1.4,1-2.1
	c3.1,1.7,6.3,3.4,9.3,5.2c-0.4,0.3-0.7,0.6-1,0.9C597,236.8,591.1,234.1,592.2,230z M589.7,910.7c1.2-1.2,2.6-2.2,4.2-2.9
	c0.5,2.5-2.5,4.5-4.2,6.6c-5.1,5.1-9.9,10.4-14.9,15.5c-1.5,1.6-3.6,2.8-5.8,3.7l-0.7,0.3c1.1-2.3,2.8-4.5,4.7-6.5
	C578.6,921.9,584.2,916.3,589.7,910.7z M553,229.9c3-1.6,6.2-1.4,9.4-2.4c1.8-2.4,1.9-5.2,3.6-7.7c1.1-1.4,2.9-2.3,4.8-2.8
	c2.9,1.3,5.7,2.6,8.6,3.9c0.2,1.3-0.1,2.8-1,4.1c-1.5,1.9-3.8,3.3-5.6,5c0.2,3.1,1.1,6,1.5,9c-0.5-0.2-1-0.3-1.6-0.5
	c-7.4-2.2-14.8-4.6-22.1-7C551.3,230.8,552.1,230.3,553,229.9z M551,880.7c3.7-5.1,13-7.3,17.9-4.2c5.1,2,5.5,7.8,3.2,12.3
	c-2.1,2.6-5.2,4.8-8.7,6.1c-4.8,1.4-10.2,0.6-12.8-2.3C547.8,889.5,547.2,884.5,551,880.7z M483.5,821.8c1.9-1.8,3.9-3.7,6.7-4.6
	c0.1,1,0.3,2.1-0.7,2.9c-6,6-12.7,11.5-19.6,16.8C473.2,831.4,478.5,826.6,483.5,821.8z M321.4,627.3c-0.4,1.3-0.4,2.9-2.3,3.6
	c-0.4,0.2-1.1,0.6-1.5,0.8C317.7,629.7,319.1,628.1,321.4,627.3z M130.1,856.5c7.8-7.5,17.2-14,23.5-22.3c2.4-3,5.6-5.6,8.5-8.3
	c7.5-6.8,14.2-14.1,21.4-21c3.6-3.4,6.7-7,9.6-10.7c-5.7,4.7-11.2,9.5-16.7,14.3c0.1-0.8,0.2-1.5,0.2-2.3c-4.5,3.2-8.4,7-12.8,10.3
	c6.9-10,14.7-19.7,22.7-29.2c6.2-7.3,10.5-15.3,16.9-22.5c7.2-8.8,17-16.1,23.5-25.2c2.7-3.4,2.4-7.4,4.8-10.8
	c5.7-5.2,13-9.1,18.7-14.3c2.4-3.3,3.6-7,5.9-10.3c0.9-3,4.5-4.2,7-6c4.1-2.4,6.9-6,9.4-9.4c5.1-6.5,6.4-14.1,12.1-20.5
	c5.4-5.2,10.4-10.6,15.8-15.7c2.5-2.2,3.5-5.3,6.7-7c0.5,0.7,1.7,1.5,1,2.6c-1.4,2-3.5,3.8-4.7,5.9c-3.3,5.9-6,12-10.4,17.6
	c-5.4,7.4-12.7,13.8-17.9,21.3c-1.8,2.6-4.1,5-5.7,7.7c0.1,0.4,0.2,1.3,0.3,1.8c1.5-0.3,3.2-0.6,4.3-1.7c5.4-4.9,9.9-10.4,14.6-15.8
	c3.9-4.6,9.8-7.8,13.6-12.4c6.8-8,14.8-15.4,23-22.5c-7.1,10-17.5,18.4-26,27.7c-2.2,2.6-1.6,6.2-4.8,8.4c0-0.8,0-1.5,0-2.3
	c-7.8,7.2-14.7,15-22.2,22.5c-5,5.4-10.9,10.4-14.6,16.3c6.6-5.5,11.9-11.8,17.8-17.7c4.3-4.3,7.9-9,13.1-12.6
	c-1.3,1.8-2.7,3.6-4.2,5.3c-17.6,19-36.2,37.5-52.4,57.2c4.5-3.8,8.7-7.7,13.3-11.4c0.2,0.4,0.5,1.1,0.6,1.5
	c3.5-1.1,6.3-3.9,6.6-6.8c-0.9,0.3-1.8,0.5-2.8,0.8c4.9-6.1,10.1-12,16.3-17.3c-1.8,3.7-5.3,6.8-8.4,9.9c-1.1,1-1.3,2.3-1.5,3.5
	c1.4-0.7,2.7-1.5,3.9-2.4c10.7-8.6,17.6-19.4,28.3-28c5.7-5.2,9.9-11.3,15.6-16.6c7.8-6.9,13.4-15.1,21.9-21.6
	c1.1-0.8,2.4-1.2,3.7-1.4c0.9,3.3-0.9,6.8-2.4,10.2c-3,6.4-8.8,11.8-14.1,17.3c-9,8.8-17.5,17.8-25.8,27
	c-5.8,6.3-13.2,11.5-18.8,17.9c-8.1,9.2-16.1,18.5-24.2,27.7c-6.9,7.9-13.3,16.1-21.6,23.2c-6,5.1-12.9,9.6-18.3,15.2
	c-7.9,8.3-18,15-28.2,21.3c-4.8,2.8-5.4,7.8-9.2,11.2c-4.1,2.8-9.1,3.5-13.9,4.5c-5.9,6.3-12.6,12.3-19.6,17.9c-1.3,1-3,0.9-4.4,0.5
	C129,857.9,129.3,857.2,130.1,856.5z M299.7,686.5c0.2,2.2-1.8,4.1-4.2,5.4l-0.7,0.4C294.7,689.8,296.9,687.7,299.7,686.5z
	 M280.5,708.5c-1.6,2.8-4.5,5.1-7.6,6.8c-0.3,0.2-1,0.6-1.3,0.7c2.5-3.1,4.1-7.4,8.8-8.7C280.4,707.6,280.4,708.2,280.5,708.5z"/>
</svg>
