<?xml version="1.0" encoding="utf-8"?>
<!-- Generator: Adobe Illustrator 25.0.1, SVG Export Plug-In . SVG Version: 6.00 Build 0)  -->
<svg version="1.1" id="Layer_1" xmlns="http://www.w3.org/2000/svg" xmlns:xlink="http://www.w3.org/1999/xlink" x="0px" y="0px"
	 viewBox="0 0 1792 1536" style="enable-background:new 0 0 1792 1536;" xml:space="preserve">
<g transform="matrix(1,0,0,-1,37.966102,1343.4237)">
	<path d="M858-192.6c-17.3,0-32,6-44,18l-624,602c-6.7,5.3-15.8,14-27.5,26s-30.2,33.8-55.5,65.5s-48,64.2-68,97.5
		s-37.8,73.7-53.5,121S-38,830.8-38,875.4c0,146.7,42.3,261.3,127,344s201.7,124,351,124c41.3,0,83.5-7.2,126.5-21.5s83-33.7,120-58
		s68.8-47.2,95.5-68.5s52-44,76-68c24,24,49.3,46.7,76,68s58.5,44.2,95.5,68.5c37,24.3,77,43.7,120,58s85.2,21.5,126.5,21.5
		c149.3,0,266.3-41.3,351-124s127-197.3,127-344c0-147.3-76.3-297.3-229-450l-623-600C890-186.6,875.4-192.6,858-192.6"/>
</g>
</svg>
