<?xml version="1.0" encoding="utf-8"?>
<!-- Generator: Adobe Illustrator 25.0.1, SVG Export Plug-In . SVG Version: 6.00 Build 0)  -->
<svg version="1.1" id="Layer_1" xmlns="http://www.w3.org/2000/svg" xmlns:xlink="http://www.w3.org/1999/xlink" x="0px" y="0px"
	 viewBox="0 0 1509.33 1080" style="enable-background:new 0 0 1509.33 1080;" xml:space="preserve">
<path d="M36.13,830.11c26.33,47.75,60.66,91.15,93.96,135.1c27.13,35.81,49.23,73.55,62.28,114.79h767.36
	c-3.4-4.01-6.73-8.03-9.99-12.1c-21.67-27.04-41.15-55.18-49.92-87.98c-9.16-34.24,2.36-58.89,36.03-77.38
	c11.57-6.36,23.4-12.3,35.89-17.13c82.97-32.1,168.9-46.69,259.54-35.19c27.54,3.5,55.29,5.66,83.25,2.33
	c44.85-5.35,64.78-37.94,44.67-73.78c-5.66-10.08-13.21-19.07-20.84-28.02c-12.18-14.28-26.12-27.49-34.62-44.03
	c-7.3-14.18-3.57-23.99,11.95-31.53c5.57-2.71,11.45-4.76,17.65-6.04c11.08-2.28,22.2-4.42,33.27-6.73
	c5.85-1.22,11.71-2.44,17.43-4.06c48.74-13.84,69.47-43.89,60.13-88.37c-1.6-7.6,1.28-7.72,7.71-7.08
	c19.15,1.91,38.34,3.52,57.48,5.5V0H588.15c0.02,0.02,0.04,0.05,0.06,0.07c11.07,13.18,25.14,23.67,39.51,33.8
	c29.97,21.12,63.01,38.59,92.52,60.28c18.8,13.82,37.15,28.05,49.81,46.92c11.57,17.25,9.02,29.22-8.72,41.81
	c-16.78,11.9-36.02,19.65-56.45,25.16c-43.53,11.73-88.48,12.94-133.44,13.51c-31.04,0.39-62.09,0.08-93.13,0.08
	c-27.73,0-53.46,14.29-49.55,45.86c0.75,6.09,0.45,12.32,0.19,18.47c-0.73,17.07-9.56,30.06-26.55,38.1
	c-10.57,5.01-21.81,8.9-32.66,13.46c-17.83,7.48-32.76,17.99-43.05,33.15c-15.41,22.71-14.13,46.67-5.21,70.55
	c7.33,19.63,16.75,38.65,24.64,58.13c4.75,11.72,3.84,12.75-10.54,13.02c-35.6,0.68-70.58,5.46-105.25,12.12
	c-65.73,12.63-125.78,35.47-175.37,77.06C17.42,633.01-1.34,671.51,0.07,717.08C1.32,757.27,16.4,794.34,36.13,830.11z"/>
</svg>
