<?xml version="1.0" encoding="utf-8"?>
<!-- Generator: Adobe Illustrator 25.0.1, SVG Export Plug-In . SVG Version: 6.00 Build 0)  -->
<svg version="1.1" id="Layer_1" xmlns="http://www.w3.org/2000/svg" xmlns:xlink="http://www.w3.org/1999/xlink" x="0px" y="0px"
	 viewBox="0 0 1690.62 1080" style="enable-background:new 0 0 1690.62 1080;" xml:space="preserve">
<path d="M46.01,445.09c35.72,67.52,79.11,129.18,123.07,190.39c59.33,82.62,121.6,162.75,179.09,246.94
	c25.23,36.95,49.46,74.68,69.58,115.3c9.82,19.82,18.48,40.29,23.41,62.45c1.46,6.54,2.56,13.15,2.82,19.82h875.72
	c-1.28-1.77-2.55-3.53-3.83-5.3c-52.56-72.41-105.54-144.46-158.21-216.77c-10.82-14.85-21.1-30.16-31.63-45.25
	c2.15-1.93,3.52-0.84,4.82-0.49c42.25,11.51,84.4,23.37,126.64,34.92c94.95,25.97,189.54,53.24,284.27,79.97
	c51.74,14.6,112.03-29.71,106.21-97.49c-2.88-33.52-14.02-63.86-27.69-93.09c-31.1-66.48-71.12-126.64-112.68-185.51
	c-54.14-76.69-109.38-152.46-164-228.76c-5.56-7.77-12.05-14.89-15.78-24.11c14.63,3.95,29.25,7.89,43.88,11.84
	c1.43-2.53,3.38-3.47,5.47-3.81c-2.09,0.34-4.04,1.28-5.47,3.81c2.8,0.91,5.57,1.95,8.42,2.72c36.85,10.09,73.78,19.9,110.55,30.24
	c66.67,18.75,133.32,37.55,199.97,56.36V0H285.4c62.36,92.83,129.7,181.52,194.16,272.6c6.82,9.64,13.65,19.29,19.42,30.61
	c-13.24-3.17-26.53-6.16-39.71-9.53c-46.47-11.9-92.89-23.99-139.37-35.88c-34.55-8.84-69.15-17.48-103.73-26.2
	c-34.82-8.78-69.59-17.75-104.47-26.28C67.55,194.52,23.63,219.3,6.34,265.45c-8.82,23.54-7.25,47.72-2.48,71.47
	C11.71,375.97,27.97,410.99,46.01,445.09z"/>
</svg>
