<?xml version="1.0" encoding="utf-8"?>
<!-- Generator: Adobe Illustrator 25.0.1, SVG Export Plug-In . SVG Version: 6.00 Build 0)  -->
<svg version="1.1" id="Layer_1" xmlns="http://www.w3.org/2000/svg" xmlns:xlink="http://www.w3.org/1999/xlink" x="0px" y="0px"
	 viewBox="0 0 779 659.31" style="enable-background:new 0 0 779 659.31;" xml:space="preserve">
<g>
	<polygon points="652.91,449.91 630.69,449.91 630.69,467.85 	"/>
	<polygon points="755.66,338.85 755.66,357.69 779,338.85 	"/>
	<polygon points="232.72,651.67 232.72,620.96 194.68,651.67 	"/>
	<polygon points="51.12,536.65 6.65,572.54 51.12,572.54 95.58,536.65 	"/>
	<polygon points="418.79,659.31 475.77,659.31 532.75,613.32 475.77,613.32 	"/>
	<polygon points="362.92,119.83 310.51,162.2 362.92,162.2 	"/>
	<path d="M658.31,297.04l34.8-28.09h31.08v-25.32l-30.8,24.86H624v-14.17l82.43-66.54h-0.32l61.44-49.59h0.1V57.41l-76.97,61.87V0
		L574.1,94.1h-30.75V18.4L418.02,119.57h-0.51V76.56l-53.93,43.53h52.65l-210.9,170.12H193h-0.05v-33.27l96.01-77.5h0.53v-0.43
		l0.42-0.34h-0.42v-76.96l-95.35,76.96h-1.37v33.81l-1.25,1.01h-85.33L0.83,298.54H0.71v69.08L0,368.2h96.45l-7.3,5.89H89v0.12
		l-83.24,67.2h90.4h0.32h0.25l0,0.16l0.2-0.16h92.84l42.95-34.67v20.44l-75.88,61.25h-0.01l-61.8,49.88h75.91l1.51-1.22h0.3
		l-1.49,1.22h61.46v82.65l0.28-0.22v0.36h83v-0.43l81.46-65.76h0.11l4.88-3.94v41.13h-0.23v-6.73l-32.39,26.14h32.39v-0.41h0.23
		v0.41l0,0h76.27v-0.14l76.11-61.44h0.1v-0.39l75.59-60.75h0.57v-0.46l0.11-0.09h-0.11v-20.47l-25.46,20.47h-39.85v-0.2h4.4
		L755,338.85h-44.9L658.31,297.04z M96.48,441.15v-0.06h0.07L96.48,441.15z M96.48,374.1v-5.89v-0.02v-2.09h0.13l0.01,8H96.48z
		 M233.62,406.08h-0.07l0.07-0.06V406.08z"/>
</g>
</svg>
